<?xml version="1.0" encoding="utf-8"?>
<!-- Generator: Adobe Illustrator 25.4.1, SVG Export Plug-In . SVG Version: 6.00 Build 0)  -->
<svg version="1.1" id="Calque_1" xmlns="http://www.w3.org/2000/svg" xmlns:xlink="http://www.w3.org/1999/xlink" x="0px" y="0px"
	 viewBox="0 0 1191.9 566.93" style="enable-background:new 0 0 1191.9 566.93;" xml:space="preserve">
<style type="text/css">
	.st0{enable-background:new    ;}
	.st1{fill:#7c238c;}
</style>
<g id="Groupe_119" transform="translate(-324 -231.526)">
	<g class="st0">
		<g>
			<path class="st1" d="M392.25,513.67c-0.38,0.58-0.86,1.12-1.42,1.63c-0.57,0.51-1.21,0.96-1.94,1.33
				c-0.73,0.37-1.51,0.67-2.35,0.88c-0.84,0.21-1.73,0.32-2.67,0.32c-1.69,0-3.25-0.3-4.69-0.9c-1.44-0.6-2.69-1.42-3.74-2.48
				c-1.06-1.06-1.88-2.31-2.48-3.76c-0.6-1.45-0.9-3.04-0.9-4.77c0-1.73,0.3-3.32,0.9-4.77c0.6-1.45,1.42-2.7,2.48-3.76
				c1.06-1.06,2.3-1.88,3.74-2.48c1.44-0.6,3-0.9,4.69-0.9c1.41,0,2.82,0.28,4.22,0.83c1.41,0.56,2.61,1.47,3.62,2.75l-2.02,1.5
				c-0.23-0.36-0.56-0.73-0.96-1.09c-0.41-0.36-0.87-0.68-1.39-0.96c-0.52-0.28-1.08-0.5-1.68-0.67c-0.6-0.17-1.2-0.26-1.79-0.26
				c-1.45,0-2.75,0.27-3.9,0.8c-1.15,0.53-2.13,1.25-2.93,2.14c-0.8,0.9-1.41,1.94-1.84,3.12c-0.43,1.18-0.64,2.43-0.64,3.73
				c0,1.3,0.21,2.54,0.64,3.73c0.43,1.18,1.04,2.22,1.84,3.12c0.8,0.9,1.78,1.61,2.93,2.14s2.45,0.8,3.9,0.8
				c0.6,0,1.19-0.05,1.78-0.16c0.59-0.11,1.16-0.29,1.73-0.54c0.56-0.26,1.1-0.6,1.6-1.04c0.5-0.44,0.96-0.99,1.39-1.65
				L392.25,513.67z"/>
		</g>
		<g>
			<path class="st1" d="M410.49,509.77c0,1.13-0.2,2.18-0.59,3.14c-0.4,0.96-0.94,1.79-1.65,2.5c-0.7,0.7-1.54,1.25-2.51,1.65
				c-0.97,0.39-2.04,0.59-3.22,0.59c-1.15,0-2.21-0.2-3.18-0.59c-0.97-0.39-1.81-0.94-2.51-1.65c-0.7-0.7-1.25-1.54-1.65-2.5
				c-0.4-0.96-0.59-2.01-0.59-3.14c0-1.13,0.2-2.18,0.59-3.14c0.39-0.96,0.94-1.79,1.65-2.5s1.54-1.25,2.51-1.65
				c0.97-0.39,2.03-0.59,3.18-0.59c1.17,0,2.24,0.2,3.22,0.59c0.97,0.39,1.81,0.94,2.51,1.65c0.7,0.7,1.25,1.54,1.65,2.5
				C410.29,507.59,410.49,508.64,410.49,509.77z M408.19,509.77c0-0.83-0.13-1.61-0.4-2.34c-0.27-0.72-0.65-1.35-1.14-1.89
				c-0.49-0.53-1.08-0.95-1.78-1.26c-0.69-0.31-1.48-0.46-2.35-0.46c-0.88,0-1.66,0.16-2.35,0.46c-0.69,0.31-1.28,0.73-1.76,1.26
				s-0.85,1.16-1.12,1.89c-0.27,0.73-0.4,1.5-0.4,2.34s0.13,1.61,0.4,2.34c0.27,0.73,0.64,1.36,1.12,1.89s1.07,0.96,1.76,1.26
				c0.69,0.31,1.48,0.46,2.35,0.46c0.87,0,1.66-0.15,2.35-0.46c0.69-0.31,1.28-0.73,1.78-1.26c0.49-0.53,0.87-1.16,1.14-1.89
				C408.05,511.38,408.19,510.6,408.19,509.77z"/>
		</g>
		<g>
			<path class="st1" d="M416.34,502.28c0.04,0.41,0.07,0.8,0.08,1.2c0.01,0.4,0.02,0.79,0.02,1.2h0.06c0.23-0.41,0.53-0.78,0.9-1.12
				c0.36-0.34,0.77-0.63,1.22-0.88c0.45-0.25,0.92-0.44,1.42-0.58c0.5-0.14,1-0.21,1.49-0.21c1.92,0,3.34,0.51,4.26,1.52
				c0.92,1.01,1.38,2.46,1.38,4.34v9.5h-2.11v-8.29c0-1.66-0.29-2.94-0.86-3.82c-0.58-0.88-1.64-1.33-3.2-1.33
				c-0.11,0-0.41,0.04-0.9,0.13c-0.49,0.08-1.01,0.32-1.55,0.7c-0.54,0.38-1.03,0.96-1.46,1.73c-0.43,0.77-0.64,1.83-0.64,3.2v7.68
				h-2.11v-11.68c0-0.41-0.02-0.92-0.05-1.54c-0.03-0.62-0.07-1.21-0.11-1.76H416.34z"/>
		</g>
		<g>
			<path class="st1" d="M439.1,504.2h-3.55v13.06h-2.11V504.2h-3.17v-1.92h3.17v-4.1c0-1.98,0.46-3.4,1.38-4.24
				c0.92-0.84,2.13-1.26,3.65-1.26c0.3,0,0.6,0.02,0.91,0.06s0.61,0.1,0.91,0.16l-0.38,1.92c-0.26-0.06-0.52-0.12-0.8-0.16
				s-0.55-0.06-0.83-0.06c-0.58,0-1.05,0.1-1.41,0.29c-0.36,0.19-0.64,0.46-0.83,0.82c-0.19,0.35-0.32,0.76-0.38,1.23
				c-0.06,0.47-0.1,0.97-0.1,1.5v3.84h3.55V504.2z"/>
		</g>
		<g>
			<path class="st1" d="M443.06,510.34c0.06,0.75,0.25,1.45,0.54,2.11s0.69,1.23,1.18,1.71c0.49,0.48,1.06,0.86,1.7,1.14
				c0.64,0.28,1.33,0.42,2.08,0.42c1.13,0,2.11-0.26,2.93-0.78c0.82-0.52,1.44-1.12,1.87-1.81l1.63,1.34
				c-0.9,1.13-1.88,1.94-2.96,2.43c-1.08,0.49-2.23,0.74-3.47,0.74c-1.11,0-2.14-0.2-3.09-0.59s-1.77-0.94-2.45-1.65
				c-0.68-0.7-1.22-1.54-1.62-2.5c-0.4-0.96-0.59-2.01-0.59-3.14c0-1.13,0.19-2.18,0.58-3.14c0.38-0.96,0.92-1.79,1.6-2.5
				c0.68-0.7,1.48-1.25,2.4-1.65c0.92-0.39,1.91-0.59,2.98-0.59c1.13,0,2.14,0.2,3.04,0.61s1.65,0.94,2.26,1.62
				c0.61,0.67,1.07,1.46,1.39,2.37c0.32,0.91,0.48,1.87,0.48,2.9v0.96H443.06z M453.24,508.62c0-1.43-0.43-2.59-1.28-3.47
				c-0.85-0.88-2.05-1.33-3.58-1.33c-0.68,0-1.34,0.13-1.98,0.4s-1.2,0.62-1.68,1.07s-0.86,0.96-1.15,1.54
				c-0.29,0.58-0.43,1.17-0.43,1.79H453.24z"/>
		</g>
		<g>
			<path class="st1" d="M459.61,506.95c0-0.66-0.02-1.33-0.05-2.02c-0.03-0.68-0.06-1.57-0.08-2.66h2.08v2.78h0.06
				c0.15-0.4,0.36-0.79,0.64-1.17c0.28-0.37,0.61-0.71,1.01-1.01c0.39-0.3,0.85-0.54,1.38-0.72c0.52-0.18,1.11-0.27,1.78-0.27
				c0.6,0,1.12,0.06,1.57,0.19l-0.42,2.08c-0.28-0.11-0.68-0.16-1.22-0.16c-0.81,0-1.5,0.16-2.08,0.46
				c-0.58,0.31-1.06,0.7-1.44,1.18c-0.38,0.48-0.67,1-0.85,1.55c-0.18,0.55-0.27,1.09-0.27,1.6v8.45h-2.11V506.95z"/>
		</g>
		<g>
			<path class="st1" d="M470.9,510.34c0.06,0.75,0.25,1.45,0.54,2.11s0.69,1.23,1.18,1.71c0.49,0.48,1.06,0.86,1.7,1.14
				c0.64,0.28,1.33,0.42,2.08,0.42c1.13,0,2.11-0.26,2.93-0.78c0.82-0.52,1.44-1.12,1.87-1.81l1.63,1.34
				c-0.9,1.13-1.88,1.94-2.96,2.43c-1.08,0.49-2.23,0.74-3.47,0.74c-1.11,0-2.14-0.2-3.09-0.59s-1.77-0.94-2.45-1.65
				c-0.68-0.7-1.22-1.54-1.62-2.5c-0.4-0.96-0.59-2.01-0.59-3.14c0-1.13,0.19-2.18,0.58-3.14c0.38-0.96,0.92-1.79,1.6-2.5
				c0.68-0.7,1.48-1.25,2.4-1.65c0.92-0.39,1.91-0.59,2.98-0.59c1.13,0,2.14,0.2,3.04,0.61s1.65,0.94,2.26,1.62
				c0.61,0.67,1.07,1.46,1.39,2.37c0.32,0.91,0.48,1.87,0.48,2.9v0.96H470.9z M481.08,508.62c0-1.43-0.43-2.59-1.28-3.47
				c-0.85-0.88-2.05-1.33-3.58-1.33c-0.68,0-1.34,0.13-1.98,0.4s-1.2,0.62-1.68,1.07s-0.86,0.96-1.15,1.54
				c-0.29,0.58-0.43,1.17-0.43,1.79H481.08z"/>
		</g>
		<g>
			<path class="st1" d="M489.24,502.28c0.04,0.41,0.07,0.8,0.08,1.2c0.01,0.4,0.02,0.79,0.02,1.2h0.06c0.23-0.41,0.53-0.78,0.9-1.12
				c0.36-0.34,0.77-0.63,1.22-0.88c0.45-0.25,0.92-0.44,1.42-0.58c0.5-0.14,1-0.21,1.49-0.21c1.92,0,3.34,0.51,4.26,1.52
				c0.92,1.01,1.38,2.46,1.38,4.34v9.5h-2.11v-8.29c0-1.66-0.29-2.94-0.86-3.82c-0.58-0.88-1.64-1.33-3.2-1.33
				c-0.11,0-0.41,0.04-0.9,0.13c-0.49,0.08-1.01,0.32-1.55,0.7c-0.54,0.38-1.03,0.96-1.46,1.73c-0.43,0.77-0.64,1.83-0.64,3.2v7.68
				h-2.11v-11.68c0-0.41-0.02-0.92-0.05-1.54c-0.03-0.62-0.07-1.21-0.11-1.76H489.24z"/>
		</g>
		<g>
			<path class="st1" d="M515.93,505.8c-0.36-0.55-0.87-1.02-1.52-1.41s-1.39-0.58-2.22-0.58c-0.88-0.02-1.66,0.12-2.35,0.42
				c-0.69,0.3-1.29,0.72-1.78,1.25c-0.49,0.53-0.86,1.17-1.12,1.9c-0.26,0.74-0.38,1.53-0.38,2.38c0,0.85,0.13,1.65,0.38,2.38
				c0.26,0.74,0.63,1.37,1.12,1.9c0.49,0.53,1.08,0.95,1.78,1.25c0.69,0.3,1.48,0.44,2.35,0.42c0.83,0,1.57-0.19,2.22-0.58
				c0.65-0.38,1.16-0.85,1.52-1.41l1.73,1.31c-0.75,0.88-1.59,1.52-2.53,1.94c-0.94,0.42-1.92,0.63-2.94,0.66
				c-1.22,0.02-2.31-0.17-3.3-0.56s-1.82-0.94-2.51-1.65c-0.69-0.7-1.22-1.54-1.58-2.51c-0.36-0.97-0.54-2.02-0.54-3.15
				c0-1.13,0.18-2.18,0.54-3.15c0.36-0.97,0.89-1.81,1.58-2.51c0.69-0.7,1.53-1.25,2.51-1.65s2.08-0.58,3.3-0.56
				c1.02,0.02,2,0.24,2.94,0.66c0.94,0.42,1.78,1.06,2.53,1.94L515.93,505.8z"/>
		</g>
		<g>
			<path class="st1" d="M521.91,510.34c0.06,0.75,0.25,1.45,0.54,2.11s0.69,1.23,1.18,1.71c0.49,0.48,1.06,0.86,1.7,1.14
				c0.64,0.28,1.33,0.42,2.08,0.42c1.13,0,2.11-0.26,2.93-0.78c0.82-0.52,1.44-1.12,1.87-1.81l1.63,1.34
				c-0.9,1.13-1.88,1.94-2.96,2.43c-1.08,0.49-2.23,0.74-3.47,0.74c-1.11,0-2.14-0.2-3.09-0.59s-1.77-0.94-2.45-1.65
				c-0.68-0.7-1.22-1.54-1.62-2.5c-0.4-0.96-0.59-2.01-0.59-3.14c0-1.13,0.19-2.18,0.58-3.14c0.38-0.96,0.92-1.79,1.6-2.5
				c0.68-0.7,1.48-1.25,2.4-1.65c0.92-0.39,1.91-0.59,2.98-0.59c1.13,0,2.14,0.2,3.04,0.61s1.65,0.94,2.26,1.62
				c0.61,0.67,1.07,1.46,1.39,2.37c0.32,0.91,0.48,1.87,0.48,2.9v0.96H521.91z M532.09,508.62c0-1.43-0.43-2.59-1.28-3.47
				c-0.85-0.88-2.05-1.33-3.58-1.33c-0.68,0-1.34,0.13-1.98,0.4s-1.2,0.62-1.68,1.07s-0.86,0.96-1.15,1.54
				c-0.29,0.58-0.43,1.17-0.43,1.79H532.09z"/>
		</g>
		<g>
			<path class="st1" d="M562.26,509.77c0,1.13-0.2,2.18-0.59,3.14c-0.4,0.96-0.94,1.79-1.65,2.5c-0.7,0.7-1.54,1.25-2.51,1.65
				c-0.97,0.39-2.04,0.59-3.22,0.59c-1.15,0-2.21-0.2-3.18-0.59c-0.97-0.39-1.81-0.94-2.51-1.65c-0.7-0.7-1.25-1.54-1.65-2.5
				c-0.4-0.96-0.59-2.01-0.59-3.14c0-1.13,0.2-2.18,0.59-3.14c0.39-0.96,0.94-1.79,1.65-2.5s1.54-1.25,2.51-1.65
				c0.97-0.39,2.03-0.59,3.18-0.59c1.17,0,2.24,0.2,3.22,0.59c0.97,0.39,1.81,0.94,2.51,1.65c0.7,0.7,1.25,1.54,1.65,2.5
				C562.07,507.59,562.26,508.64,562.26,509.77z M559.96,509.77c0-0.83-0.13-1.61-0.4-2.34c-0.27-0.72-0.65-1.35-1.14-1.89
				c-0.49-0.53-1.08-0.95-1.78-1.26c-0.69-0.31-1.48-0.46-2.35-0.46c-0.88,0-1.66,0.16-2.35,0.46c-0.69,0.31-1.28,0.73-1.76,1.26
				s-0.85,1.16-1.12,1.89c-0.27,0.73-0.4,1.5-0.4,2.34s0.13,1.61,0.4,2.34c0.27,0.73,0.64,1.36,1.12,1.89s1.07,0.96,1.76,1.26
				c0.69,0.31,1.48,0.46,2.35,0.46c0.87,0,1.66-0.15,2.35-0.46c0.69-0.31,1.28-0.73,1.78-1.26c0.49-0.53,0.87-1.16,1.14-1.89
				C559.83,511.38,559.96,510.6,559.96,509.77z"/>
		</g>
		<g>
			<path class="st1" d="M568.12,502.28c0.04,0.41,0.07,0.8,0.08,1.2c0.01,0.4,0.02,0.79,0.02,1.2h0.06c0.23-0.41,0.53-0.78,0.9-1.12
				c0.36-0.34,0.77-0.63,1.22-0.88c0.45-0.25,0.92-0.44,1.42-0.58c0.5-0.14,1-0.21,1.49-0.21c1.92,0,3.34,0.51,4.26,1.52
				c0.92,1.01,1.38,2.46,1.38,4.34v9.5h-2.11v-8.29c0-1.66-0.29-2.94-0.86-3.82c-0.58-0.88-1.64-1.33-3.2-1.33
				c-0.11,0-0.41,0.04-0.9,0.13c-0.49,0.08-1.01,0.32-1.55,0.7c-0.54,0.38-1.03,0.96-1.46,1.73c-0.43,0.77-0.64,1.83-0.64,3.2v7.68
				h-2.11v-11.68c0-0.41-0.02-0.92-0.05-1.54c-0.03-0.62-0.07-1.21-0.11-1.76H568.12z"/>
		</g>
		<g>
			<path class="st1" d="M604.28,498.34c-1-1.47-2.46-2.21-4.38-2.21c-0.6,0-1.18,0.08-1.76,0.24s-1.09,0.41-1.55,0.74
				c-0.46,0.33-0.83,0.76-1.1,1.28c-0.28,0.52-0.42,1.14-0.42,1.84c0,1.02,0.29,1.82,0.86,2.38s1.29,1.03,2.14,1.39
				c0.85,0.36,1.79,0.69,2.8,0.98c1.01,0.29,1.95,0.67,2.8,1.15c0.85,0.48,1.57,1.12,2.14,1.9c0.58,0.79,0.86,1.87,0.86,3.23
				c0,1.02-0.22,1.95-0.66,2.77c-0.44,0.82-1.01,1.51-1.73,2.06c-0.72,0.56-1.52,0.98-2.4,1.28c-0.89,0.3-1.78,0.45-2.67,0.45
				c-1.39,0-2.7-0.26-3.95-0.78s-2.31-1.38-3.18-2.58l2.11-1.5c0.49,0.83,1.17,1.5,2.04,2c0.87,0.5,1.9,0.75,3.09,0.75
				c0.57,0,1.15-0.09,1.72-0.27c0.57-0.18,1.09-0.45,1.55-0.8c0.46-0.35,0.83-0.78,1.13-1.3c0.3-0.51,0.45-1.1,0.45-1.76
				c0-0.79-0.17-1.45-0.5-1.97c-0.33-0.52-0.77-0.96-1.31-1.31c-0.54-0.35-1.16-0.64-1.86-0.88c-0.69-0.23-1.41-0.47-2.14-0.7
				c-0.74-0.23-1.45-0.5-2.14-0.8c-0.69-0.3-1.31-0.68-1.86-1.14s-0.98-1.03-1.31-1.73c-0.33-0.69-0.5-1.56-0.5-2.61
				c0-1.09,0.21-2.04,0.62-2.85c0.42-0.81,0.97-1.48,1.66-2.02c0.69-0.53,1.48-0.93,2.35-1.18c0.87-0.26,1.77-0.38,2.69-0.38
				c1.28,0,2.44,0.2,3.49,0.61c1.04,0.41,2.02,1.12,2.91,2.14L604.28,498.34z"/>
		</g>
		<g>
			<path class="st1" d="M610.58,505.61c0-0.55-0.02-1.11-0.05-1.66c-0.03-0.55-0.07-1.11-0.11-1.66h2.27v2.27h0.06
				c0.51-0.87,1.22-1.54,2.13-1.98c0.91-0.45,1.81-0.67,2.7-0.67c0.4,0,0.84,0.04,1.3,0.13c0.46,0.09,0.9,0.24,1.33,0.46
				c0.43,0.22,0.83,0.54,1.2,0.94c0.37,0.41,0.69,0.93,0.94,1.57c0.43-0.96,1.1-1.72,2.03-2.27c0.93-0.55,1.89-0.83,2.9-0.83
				c1.92,0,3.34,0.51,4.26,1.52c0.92,1.01,1.38,2.46,1.38,4.34v9.5h-2.11v-8.74c0-1.51-0.27-2.68-0.8-3.49
				c-0.53-0.81-1.53-1.22-2.98-1.22c-0.79,0-1.45,0.16-1.98,0.46c-0.53,0.31-0.97,0.72-1.3,1.23c-0.33,0.51-0.57,1.09-0.72,1.74
				c-0.15,0.65-0.22,1.33-0.22,2.03v7.97h-2.11v-8.74c0-1.51-0.27-2.68-0.8-3.49c-0.53-0.81-1.53-1.22-2.98-1.22
				c-0.13,0-0.42,0.04-0.88,0.13c-0.46,0.08-0.93,0.32-1.42,0.7c-0.49,0.38-0.93,0.96-1.33,1.73c-0.4,0.77-0.59,1.83-0.59,3.2v7.68
				h-2.11V505.61z"/>
		</g>
		<g>
			<path class="st1" d="M647.45,508.07v-0.38c0-2.58-1.28-3.87-3.84-3.87c-1.75,0-3.27,0.59-4.58,1.76l-1.28-1.5
				c1.41-1.45,3.52-2.18,6.34-2.18c0.73,0,1.42,0.11,2.1,0.32c0.67,0.21,1.25,0.54,1.74,0.98c0.49,0.44,0.89,0.99,1.18,1.65
				s0.45,1.45,0.45,2.37v6.69c0,0.58,0.03,1.18,0.08,1.81c0.05,0.63,0.11,1.15,0.18,1.55h-2.05c-0.06-0.36-0.11-0.76-0.14-1.18
				c-0.03-0.43-0.05-0.84-0.05-1.25h-0.06c-0.62,1-1.35,1.72-2.19,2.16c-0.84,0.44-1.87,0.66-3.09,0.66c-0.66,0-1.3-0.09-1.92-0.27
				c-0.62-0.18-1.17-0.46-1.65-0.83s-0.86-0.83-1.15-1.38c-0.29-0.54-0.43-1.18-0.43-1.9c0-1.22,0.31-2.17,0.94-2.86
				c0.63-0.69,1.42-1.21,2.37-1.55c0.95-0.34,1.96-0.55,3.04-0.64c1.08-0.08,2.06-0.13,2.96-0.13H647.45z M646.36,509.8
				c-0.53,0-1.2,0.03-2,0.08c-0.8,0.05-1.57,0.18-2.3,0.38c-0.74,0.2-1.37,0.52-1.89,0.94c-0.52,0.43-0.78,1.01-0.78,1.76
				c0,0.49,0.1,0.91,0.3,1.26c0.2,0.35,0.47,0.64,0.82,0.86c0.34,0.22,0.72,0.38,1.14,0.48c0.42,0.1,0.84,0.14,1.26,0.14
				c0.77,0,1.43-0.13,2-0.38c0.56-0.26,1.04-0.6,1.42-1.04c0.38-0.44,0.67-0.95,0.85-1.54c0.18-0.59,0.27-1.21,0.27-1.87v-1.09
				H646.36z"/>
		</g>
		<g>
			<path class="st1" d="M654.68,506.95c0-0.66-0.02-1.33-0.05-2.02c-0.03-0.68-0.06-1.57-0.08-2.66h2.08v2.78h0.06
				c0.15-0.4,0.36-0.79,0.64-1.17c0.28-0.37,0.61-0.71,1.01-1.01c0.39-0.3,0.85-0.54,1.38-0.72c0.52-0.18,1.11-0.27,1.78-0.27
				c0.6,0,1.12,0.06,1.57,0.19l-0.42,2.08c-0.28-0.11-0.68-0.16-1.22-0.16c-0.81,0-1.5,0.16-2.08,0.46
				c-0.58,0.31-1.06,0.7-1.44,1.18c-0.38,0.48-0.67,1-0.85,1.55c-0.18,0.55-0.27,1.09-0.27,1.6v8.45h-2.11V506.95z"/>
		</g>
		<g>
			<path class="st1" d="M672.82,504.2h-4.32v8.83c0,0.55,0.05,1.01,0.16,1.36c0.11,0.35,0.26,0.62,0.45,0.82
				c0.19,0.19,0.42,0.33,0.69,0.4c0.27,0.08,0.56,0.11,0.88,0.11c0.36,0,0.74-0.05,1.12-0.16c0.38-0.11,0.74-0.25,1.06-0.42
				l0.1,1.95c-0.79,0.36-1.74,0.54-2.85,0.54c-0.41,0-0.83-0.05-1.26-0.16c-0.44-0.11-0.84-0.31-1.2-0.61s-0.66-0.7-0.9-1.22
				c-0.23-0.51-0.35-1.18-0.35-2.02v-9.44h-3.17v-1.92h3.17v-4.22h2.11v4.22h4.32V504.2z"/>
		</g>
		<g>
			<path class="st1" d="M696.53,513.03l7.65-18.43h3.52v22.66h-2.3v-19.58h-0.06l-8.19,19.58h-1.22l-8.19-19.58h-0.06v19.58h-2.3
				V494.6h3.52L696.53,513.03z"/>
		</g>
		<g>
			<path class="st1" d="M714.55,510.34c0.06,0.75,0.25,1.45,0.54,2.11s0.69,1.23,1.18,1.71c0.49,0.48,1.06,0.86,1.7,1.14
				c0.64,0.28,1.33,0.42,2.08,0.42c1.13,0,2.11-0.26,2.93-0.78c0.82-0.52,1.44-1.12,1.87-1.81l1.63,1.34
				c-0.9,1.13-1.88,1.94-2.96,2.43c-1.08,0.49-2.23,0.74-3.47,0.74c-1.11,0-2.14-0.2-3.09-0.59s-1.77-0.94-2.45-1.65
				c-0.68-0.7-1.22-1.54-1.62-2.5c-0.4-0.96-0.59-2.01-0.59-3.14c0-1.13,0.19-2.18,0.58-3.14c0.38-0.96,0.92-1.79,1.6-2.5
				c0.68-0.7,1.48-1.25,2.4-1.65c0.92-0.39,1.91-0.59,2.98-0.59c1.13,0,2.14,0.2,3.04,0.61s1.65,0.94,2.26,1.62
				c0.61,0.67,1.07,1.46,1.39,2.37c0.32,0.91,0.48,1.87,0.48,2.9v0.96H714.55z M724.73,508.62c0-1.43-0.43-2.59-1.28-3.47
				c-0.85-0.88-2.05-1.33-3.58-1.33c-0.68,0-1.34,0.13-1.98,0.4s-1.2,0.62-1.68,1.07s-0.86,0.96-1.15,1.54
				c-0.29,0.58-0.43,1.17-0.43,1.79H724.73z"/>
		</g>
		<g>
			<path class="st1" d="M738.61,504.2h-4.32v8.83c0,0.55,0.05,1.01,0.16,1.36c0.11,0.35,0.26,0.62,0.45,0.82
				c0.19,0.19,0.42,0.33,0.69,0.4c0.27,0.08,0.56,0.11,0.88,0.11c0.36,0,0.74-0.05,1.12-0.16c0.38-0.11,0.74-0.25,1.06-0.42
				l0.1,1.95c-0.79,0.36-1.74,0.54-2.85,0.54c-0.41,0-0.83-0.05-1.26-0.16c-0.44-0.11-0.84-0.31-1.2-0.61s-0.66-0.7-0.9-1.22
				c-0.23-0.51-0.35-1.18-0.35-2.02v-9.44h-3.17v-1.92h3.17v-4.22h2.11v4.22h4.32V504.2z"/>
		</g>
		<g>
			<path class="st1" d="M751.09,508.07v-0.38c0-2.58-1.28-3.87-3.84-3.87c-1.75,0-3.27,0.59-4.58,1.76l-1.28-1.5
				c1.41-1.45,3.52-2.18,6.34-2.18c0.73,0,1.42,0.11,2.1,0.32c0.67,0.21,1.25,0.54,1.74,0.98c0.49,0.44,0.89,0.99,1.18,1.65
				s0.45,1.45,0.45,2.37v6.69c0,0.58,0.03,1.18,0.08,1.81c0.05,0.63,0.11,1.15,0.18,1.55h-2.05c-0.06-0.36-0.11-0.76-0.14-1.18
				c-0.03-0.43-0.05-0.84-0.05-1.25h-0.06c-0.62,1-1.35,1.72-2.19,2.16c-0.84,0.44-1.87,0.66-3.09,0.66c-0.66,0-1.3-0.09-1.92-0.27
				c-0.62-0.18-1.17-0.46-1.65-0.83s-0.86-0.83-1.15-1.38c-0.29-0.54-0.43-1.18-0.43-1.9c0-1.22,0.31-2.17,0.94-2.86
				c0.63-0.69,1.42-1.21,2.37-1.55c0.95-0.34,1.96-0.55,3.04-0.64c1.08-0.08,2.06-0.13,2.96-0.13H751.09z M750.01,509.8
				c-0.53,0-1.2,0.03-2,0.08c-0.8,0.05-1.57,0.18-2.3,0.38c-0.74,0.2-1.37,0.52-1.89,0.94c-0.52,0.43-0.78,1.01-0.78,1.76
				c0,0.49,0.1,0.91,0.3,1.26c0.2,0.35,0.47,0.64,0.82,0.86c0.34,0.22,0.72,0.38,1.14,0.48c0.42,0.1,0.84,0.14,1.26,0.14
				c0.77,0,1.43-0.13,2-0.38c0.56-0.26,1.04-0.6,1.42-1.04c0.38-0.44,0.67-0.95,0.85-1.54c0.18-0.59,0.27-1.21,0.27-1.87v-1.09
				H750.01z"/>
		</g>
		<g>
			<path class="st1" d="M773.05,517.26h-2.11v-2.5h-0.06c-0.34,0.51-0.75,0.95-1.22,1.31c-0.47,0.36-0.96,0.66-1.47,0.9
				c-0.51,0.24-1.04,0.41-1.58,0.51c-0.54,0.11-1.06,0.16-1.55,0.16c-1.17,0-2.25-0.2-3.22-0.59c-0.97-0.39-1.81-0.94-2.51-1.65
				c-0.7-0.7-1.25-1.54-1.65-2.5c-0.4-0.96-0.59-2.01-0.59-3.14c0-1.13,0.2-2.18,0.59-3.14c0.39-0.96,0.94-1.79,1.65-2.5
				s1.54-1.25,2.51-1.65c0.97-0.39,2.04-0.59,3.22-0.59c0.49,0,1.01,0.05,1.55,0.16c0.54,0.11,1.07,0.28,1.58,0.51
				c0.51,0.24,1,0.53,1.47,0.9c0.47,0.36,0.87,0.8,1.22,1.31h0.06v-11.71h2.11V517.26z M759.38,509.77c0,0.83,0.13,1.61,0.4,2.34
				c0.27,0.73,0.65,1.36,1.14,1.89c0.49,0.53,1.08,0.96,1.78,1.26c0.69,0.31,1.48,0.46,2.35,0.46c0.85,0,1.65-0.15,2.38-0.46
				c0.74-0.31,1.37-0.73,1.9-1.26c0.53-0.53,0.95-1.16,1.25-1.89c0.3-0.72,0.45-1.5,0.45-2.34s-0.15-1.61-0.45-2.34
				c-0.3-0.72-0.72-1.35-1.25-1.89c-0.53-0.53-1.17-0.95-1.9-1.26c-0.74-0.31-1.53-0.46-2.38-0.46c-0.88,0-1.66,0.16-2.35,0.46
				c-0.69,0.31-1.29,0.73-1.78,1.26c-0.49,0.53-0.87,1.16-1.14,1.89C759.51,508.16,759.38,508.94,759.38,509.77z"/>
		</g>
		<g>
			<path class="st1" d="M787.25,508.07v-0.38c0-2.58-1.28-3.87-3.84-3.87c-1.75,0-3.27,0.59-4.58,1.76l-1.28-1.5
				c1.41-1.45,3.52-2.18,6.34-2.18c0.73,0,1.42,0.11,2.1,0.32c0.67,0.21,1.25,0.54,1.74,0.98c0.49,0.44,0.89,0.99,1.18,1.65
				s0.45,1.45,0.45,2.37v6.69c0,0.58,0.03,1.18,0.08,1.81c0.05,0.63,0.11,1.15,0.18,1.55h-2.05c-0.06-0.36-0.11-0.76-0.14-1.18
				c-0.03-0.43-0.05-0.84-0.05-1.25h-0.06c-0.62,1-1.35,1.72-2.19,2.16c-0.84,0.44-1.87,0.66-3.09,0.66c-0.66,0-1.3-0.09-1.92-0.27
				c-0.62-0.18-1.17-0.46-1.65-0.83s-0.86-0.83-1.15-1.38c-0.29-0.54-0.43-1.18-0.43-1.9c0-1.22,0.31-2.17,0.94-2.86
				c0.63-0.69,1.42-1.21,2.37-1.55c0.95-0.34,1.96-0.55,3.04-0.64c1.08-0.08,2.06-0.13,2.96-0.13H787.25z M786.17,509.8
				c-0.53,0-1.2,0.03-2,0.08c-0.8,0.05-1.57,0.18-2.3,0.38c-0.74,0.2-1.37,0.52-1.89,0.94c-0.52,0.43-0.78,1.01-0.78,1.76
				c0,0.49,0.1,0.91,0.3,1.26c0.2,0.35,0.47,0.64,0.82,0.86c0.34,0.22,0.72,0.38,1.14,0.48c0.42,0.1,0.84,0.14,1.26,0.14
				c0.77,0,1.43-0.13,2-0.38c0.56-0.26,1.04-0.6,1.42-1.04c0.38-0.44,0.67-0.95,0.85-1.54c0.18-0.59,0.27-1.21,0.27-1.87v-1.09
				H786.17z"/>
		</g>
		<g>
			<path class="st1" d="M802.01,504.2h-4.32v8.83c0,0.55,0.05,1.01,0.16,1.36c0.11,0.35,0.26,0.62,0.45,0.82
				c0.19,0.19,0.42,0.33,0.69,0.4c0.27,0.08,0.56,0.11,0.88,0.11c0.36,0,0.74-0.05,1.12-0.16c0.38-0.11,0.73-0.25,1.05-0.42
				l0.1,1.95c-0.79,0.36-1.74,0.54-2.85,0.54c-0.4,0-0.83-0.05-1.26-0.16s-0.84-0.31-1.2-0.61c-0.36-0.3-0.66-0.7-0.9-1.22
				c-0.23-0.51-0.35-1.18-0.35-2.02v-9.44h-3.17v-1.92h3.17v-4.22h2.11v4.22h4.32V504.2z"/>
		</g>
		<g>
			<path class="st1" d="M814.49,508.07v-0.38c0-2.58-1.28-3.87-3.84-3.87c-1.75,0-3.28,0.59-4.58,1.76l-1.28-1.5
				c1.41-1.45,3.52-2.18,6.34-2.18c0.72,0,1.42,0.11,2.1,0.32c0.67,0.21,1.25,0.54,1.74,0.98c0.49,0.44,0.88,0.99,1.18,1.65
				c0.3,0.66,0.45,1.45,0.45,2.37v6.69c0,0.58,0.03,1.18,0.08,1.81c0.05,0.63,0.11,1.15,0.18,1.55h-2.05
				c-0.06-0.36-0.11-0.76-0.14-1.18s-0.05-0.84-0.05-1.25h-0.06c-0.62,1-1.35,1.72-2.19,2.16c-0.84,0.44-1.87,0.66-3.09,0.66
				c-0.66,0-1.3-0.09-1.92-0.27c-0.62-0.18-1.17-0.46-1.65-0.83c-0.48-0.37-0.86-0.83-1.15-1.38s-0.43-1.18-0.43-1.9
				c0-1.22,0.31-2.17,0.94-2.86c0.63-0.69,1.42-1.21,2.37-1.55c0.95-0.34,1.96-0.55,3.04-0.64s2.06-0.13,2.96-0.13H814.49z
				 M813.4,509.8c-0.53,0-1.2,0.03-2,0.08c-0.8,0.05-1.57,0.18-2.3,0.38c-0.74,0.2-1.37,0.52-1.89,0.94
				c-0.52,0.43-0.78,1.01-0.78,1.76c0,0.49,0.1,0.91,0.3,1.26c0.2,0.35,0.47,0.64,0.82,0.86c0.34,0.22,0.72,0.38,1.14,0.48
				c0.42,0.1,0.84,0.14,1.26,0.14c0.77,0,1.43-0.13,2-0.38c0.56-0.26,1.04-0.6,1.42-1.04s0.67-0.95,0.85-1.54
				c0.18-0.59,0.27-1.21,0.27-1.87v-1.09H813.4z"/>
		</g>
	</g>
	<g class="st0">
		<g>
			<path class="st1" d="M547.16,551.2h-3.55v13.06h-2.11V551.2h-3.17v-1.92h3.17v-4.1c0-1.98,0.46-3.4,1.38-4.24
				c0.92-0.84,2.13-1.26,3.65-1.26c0.3,0,0.6,0.02,0.91,0.06s0.61,0.1,0.91,0.16l-0.38,1.92c-0.26-0.06-0.52-0.12-0.8-0.16
				s-0.55-0.06-0.83-0.06c-0.58,0-1.05,0.1-1.41,0.29c-0.36,0.19-0.64,0.46-0.83,0.82c-0.19,0.35-0.32,0.76-0.38,1.23
				c-0.06,0.47-0.1,0.97-0.1,1.5v3.84h3.55V551.2z"/>
		</g>
		<g>
			<path class="st1" d="M564.79,556.77c0,1.13-0.2,2.18-0.59,3.14c-0.4,0.96-0.94,1.79-1.65,2.5c-0.7,0.7-1.54,1.25-2.51,1.65
				c-0.97,0.39-2.04,0.59-3.22,0.59c-1.15,0-2.21-0.2-3.18-0.59c-0.97-0.39-1.81-0.94-2.51-1.65c-0.7-0.7-1.25-1.54-1.65-2.5
				c-0.4-0.96-0.59-2.01-0.59-3.14c0-1.13,0.2-2.18,0.59-3.14c0.39-0.96,0.94-1.79,1.65-2.5s1.54-1.25,2.51-1.65
				c0.97-0.39,2.03-0.59,3.18-0.59c1.17,0,2.24,0.2,3.22,0.59c0.97,0.39,1.81,0.94,2.51,1.65c0.7,0.7,1.25,1.54,1.65,2.5
				C564.6,554.59,564.79,555.64,564.79,556.77z M562.49,556.77c0-0.83-0.13-1.61-0.4-2.34c-0.27-0.72-0.65-1.35-1.14-1.89
				c-0.49-0.53-1.08-0.95-1.78-1.26c-0.69-0.31-1.48-0.46-2.35-0.46c-0.88,0-1.66,0.16-2.35,0.46c-0.69,0.31-1.28,0.73-1.76,1.26
				s-0.85,1.16-1.12,1.89c-0.27,0.73-0.4,1.5-0.4,2.34s0.13,1.61,0.4,2.34c0.27,0.73,0.64,1.36,1.12,1.89s1.07,0.96,1.76,1.26
				c0.69,0.31,1.48,0.46,2.35,0.46c0.87,0,1.66-0.15,2.35-0.46c0.69-0.31,1.28-0.73,1.78-1.26c0.49-0.53,0.87-1.16,1.14-1.89
				C562.36,558.38,562.49,557.6,562.49,556.77z"/>
		</g>
		<g>
			<path class="st1" d="M568.86,553.95c0-0.66-0.02-1.33-0.05-2.02c-0.03-0.68-0.06-1.57-0.08-2.66h2.08v2.78h0.06
				c0.15-0.4,0.36-0.79,0.64-1.17c0.28-0.37,0.61-0.71,1.01-1.01c0.39-0.3,0.85-0.54,1.38-0.72c0.52-0.18,1.11-0.27,1.78-0.27
				c0.6,0,1.12,0.06,1.57,0.19l-0.42,2.08c-0.28-0.11-0.68-0.16-1.22-0.16c-0.81,0-1.5,0.16-2.08,0.46
				c-0.58,0.31-1.06,0.7-1.44,1.18c-0.38,0.48-0.67,1-0.85,1.55c-0.18,0.55-0.27,1.09-0.27,1.6v8.45h-2.11V553.95z"/>
		</g>
		<g>
			<path class="st1" d="M611,552.93c0,1.73-0.3,3.32-0.9,4.77c-0.6,1.45-1.42,2.7-2.48,3.76c-1.06,1.06-2.3,1.88-3.74,2.48
				c-1.44,0.6-3,0.9-4.69,0.9c-1.69,0-3.25-0.3-4.69-0.9c-1.44-0.6-2.69-1.42-3.74-2.48c-1.06-1.06-1.88-2.31-2.48-3.76
				c-0.6-1.45-0.9-3.04-0.9-4.77c0-1.73,0.3-3.32,0.9-4.77c0.6-1.45,1.42-2.7,2.48-3.76c1.06-1.06,2.3-1.88,3.74-2.48
				c1.44-0.6,3-0.9,4.69-0.9c1.68,0,3.25,0.3,4.69,0.9c1.44,0.6,2.69,1.42,3.74,2.48c1.06,1.06,1.88,2.31,2.48,3.76
				S611,551.2,611,552.93z M608.5,552.93c0-1.3-0.21-2.54-0.64-3.73c-0.43-1.18-1.04-2.22-1.84-3.12c-0.8-0.9-1.78-1.61-2.93-2.14
				c-1.15-0.53-2.45-0.8-3.9-0.8c-1.45,0-2.75,0.27-3.9,0.8c-1.15,0.53-2.13,1.25-2.93,2.14c-0.8,0.9-1.41,1.94-1.84,3.12
				c-0.43,1.18-0.64,2.43-0.64,3.73c0,1.3,0.21,2.54,0.64,3.73c0.43,1.18,1.04,2.22,1.84,3.12c0.8,0.9,1.78,1.61,2.93,2.14
				s2.45,0.8,3.9,0.8c1.45,0,2.75-0.27,3.9-0.8s2.13-1.25,2.93-2.14c0.8-0.9,1.41-1.94,1.84-3.12
				C608.29,555.47,608.5,554.23,608.5,552.93z"/>
		</g>
		<g>
			<path class="st1" d="M621.82,551.2h-3.55v13.06h-2.11V551.2h-3.17v-1.92h3.17v-4.1c0-1.98,0.46-3.4,1.38-4.24
				c0.92-0.84,2.13-1.26,3.65-1.26c0.3,0,0.6,0.02,0.91,0.06s0.61,0.1,0.91,0.16l-0.38,1.92c-0.26-0.06-0.52-0.12-0.8-0.16
				s-0.55-0.06-0.83-0.06c-0.58,0-1.05,0.1-1.41,0.29c-0.36,0.19-0.64,0.46-0.83,0.82c-0.19,0.35-0.32,0.76-0.38,1.23
				c-0.06,0.47-0.1,0.97-0.1,1.5v3.84h3.55V551.2z"/>
		</g>
		<g>
			<path class="st1" d="M630.71,551.2h-3.55v13.06h-2.11V551.2h-3.17v-1.92h3.17v-4.1c0-1.98,0.46-3.4,1.38-4.24
				c0.92-0.84,2.13-1.26,3.65-1.26c0.3,0,0.6,0.02,0.91,0.06s0.61,0.1,0.91,0.16l-0.38,1.92c-0.26-0.06-0.52-0.12-0.8-0.16
				s-0.55-0.06-0.83-0.06c-0.58,0-1.05,0.1-1.41,0.29c-0.36,0.19-0.64,0.46-0.83,0.82c-0.19,0.35-0.32,0.76-0.38,1.23
				c-0.06,0.47-0.1,0.97-0.1,1.5v3.84h3.55V551.2z"/>
		</g>
		<g>
			<path class="st1" d="M636.28,543.52c0,0.45-0.16,0.82-0.48,1.1s-0.67,0.43-1.06,0.43c-0.38,0-0.74-0.14-1.06-0.43
				c-0.32-0.29-0.48-0.66-0.48-1.1c0-0.45,0.16-0.82,0.48-1.1c0.32-0.29,0.67-0.43,1.06-0.43c0.38,0,0.74,0.14,1.06,0.43
				S636.28,543.07,636.28,543.52z M635.8,564.26h-2.11v-14.98h2.11V564.26z"/>
		</g>
		<g>
			<path class="st1" d="M651.8,552.8c-0.36-0.55-0.87-1.02-1.52-1.41s-1.39-0.58-2.22-0.58c-0.88-0.02-1.66,0.12-2.35,0.42
				c-0.69,0.3-1.29,0.72-1.78,1.25c-0.49,0.53-0.86,1.17-1.12,1.9c-0.26,0.74-0.38,1.53-0.38,2.38c0,0.85,0.13,1.65,0.38,2.38
				c0.26,0.74,0.63,1.37,1.12,1.9c0.49,0.53,1.08,0.95,1.78,1.25c0.69,0.3,1.48,0.44,2.35,0.42c0.83,0,1.57-0.19,2.22-0.58
				c0.65-0.38,1.16-0.85,1.52-1.41l1.73,1.31c-0.75,0.88-1.59,1.52-2.53,1.94c-0.94,0.42-1.92,0.63-2.94,0.66
				c-1.22,0.02-2.31-0.17-3.3-0.56s-1.82-0.94-2.51-1.65c-0.69-0.7-1.22-1.54-1.58-2.51c-0.36-0.97-0.54-2.02-0.54-3.15
				c0-1.13,0.18-2.18,0.54-3.15c0.36-0.97,0.89-1.81,1.58-2.51c0.69-0.7,1.53-1.25,2.51-1.65s2.08-0.58,3.3-0.56
				c1.02,0.02,2,0.24,2.94,0.66c0.94,0.42,1.78,1.06,2.53,1.94L651.8,552.8z"/>
		</g>
		<g>
			<path class="st1" d="M659.38,543.52c0,0.45-0.16,0.82-0.48,1.1s-0.67,0.43-1.06,0.43c-0.38,0-0.74-0.14-1.06-0.43
				c-0.32-0.29-0.48-0.66-0.48-1.1c0-0.45,0.16-0.82,0.48-1.1c0.32-0.29,0.67-0.43,1.06-0.43c0.38,0,0.74,0.14,1.06,0.43
				S659.38,543.07,659.38,543.52z M658.9,564.26h-2.11v-14.98h2.11V564.26z"/>
		</g>
		<g>
			<path class="st1" d="M673.59,555.07v-0.38c0-2.58-1.28-3.87-3.84-3.87c-1.75,0-3.27,0.59-4.58,1.76l-1.28-1.5
				c1.41-1.45,3.52-2.18,6.34-2.18c0.73,0,1.42,0.11,2.1,0.32c0.67,0.21,1.25,0.54,1.74,0.98c0.49,0.44,0.89,0.99,1.18,1.65
				s0.45,1.45,0.45,2.37v6.69c0,0.58,0.03,1.18,0.08,1.81c0.05,0.63,0.11,1.15,0.18,1.55h-2.05c-0.06-0.36-0.11-0.76-0.14-1.18
				c-0.03-0.43-0.05-0.84-0.05-1.25h-0.06c-0.62,1-1.35,1.72-2.19,2.16c-0.84,0.44-1.87,0.66-3.09,0.66c-0.66,0-1.3-0.09-1.92-0.27
				c-0.62-0.18-1.17-0.46-1.65-0.83s-0.86-0.83-1.15-1.38c-0.29-0.54-0.43-1.18-0.43-1.9c0-1.22,0.31-2.17,0.94-2.86
				c0.63-0.69,1.42-1.21,2.37-1.55c0.95-0.34,1.96-0.55,3.04-0.64c1.08-0.08,2.06-0.13,2.96-0.13H673.59z M672.5,556.8
				c-0.53,0-1.2,0.03-2,0.08c-0.8,0.05-1.57,0.18-2.3,0.38c-0.74,0.2-1.37,0.52-1.89,0.94c-0.52,0.43-0.78,1.01-0.78,1.76
				c0,0.49,0.1,0.91,0.3,1.26c0.2,0.35,0.47,0.64,0.82,0.86c0.34,0.22,0.72,0.38,1.14,0.48c0.42,0.1,0.84,0.14,1.26,0.14
				c0.77,0,1.43-0.13,2-0.38c0.56-0.26,1.04-0.6,1.42-1.04c0.38-0.44,0.67-0.95,0.85-1.54c0.18-0.59,0.27-1.21,0.27-1.87v-1.09
				H672.5z"/>
		</g>
		<g>
			<path class="st1" d="M683.19,564.26h-2.11v-24.19h2.11V564.26z"/>
		</g>
		<g>
			<path class="st1" d="M708.66,545.34c-1-1.47-2.46-2.21-4.38-2.21c-0.6,0-1.18,0.08-1.76,0.24s-1.09,0.41-1.55,0.74
				c-0.46,0.33-0.83,0.76-1.1,1.28c-0.28,0.52-0.42,1.14-0.42,1.84c0,1.02,0.29,1.82,0.86,2.38s1.29,1.03,2.14,1.39
				c0.85,0.36,1.79,0.69,2.8,0.98c1.01,0.29,1.95,0.67,2.8,1.15c0.85,0.48,1.57,1.12,2.14,1.9c0.58,0.79,0.86,1.87,0.86,3.23
				c0,1.02-0.22,1.95-0.66,2.77c-0.44,0.82-1.01,1.51-1.73,2.06c-0.72,0.56-1.52,0.98-2.4,1.28c-0.89,0.3-1.78,0.45-2.67,0.45
				c-1.39,0-2.7-0.26-3.95-0.78s-2.31-1.38-3.18-2.58l2.11-1.5c0.49,0.83,1.17,1.5,2.04,2c0.87,0.5,1.9,0.75,3.09,0.75
				c0.57,0,1.15-0.09,1.72-0.27c0.57-0.18,1.09-0.45,1.55-0.8c0.46-0.35,0.83-0.78,1.13-1.3c0.3-0.51,0.45-1.1,0.45-1.76
				c0-0.79-0.17-1.45-0.5-1.97c-0.33-0.52-0.77-0.96-1.31-1.31c-0.54-0.35-1.16-0.64-1.86-0.88c-0.69-0.23-1.41-0.47-2.14-0.7
				c-0.74-0.23-1.45-0.5-2.14-0.8c-0.69-0.3-1.31-0.68-1.86-1.14s-0.98-1.03-1.31-1.73c-0.33-0.69-0.5-1.56-0.5-2.61
				c0-1.09,0.21-2.04,0.62-2.85c0.42-0.81,0.97-1.48,1.66-2.02c0.69-0.53,1.48-0.93,2.35-1.18c0.87-0.26,1.77-0.38,2.69-0.38
				c1.28,0,2.44,0.2,3.49,0.61c1.04,0.41,2.02,1.12,2.91,2.14L708.66,545.34z"/>
		</g>
		<g>
			<path class="st1" d="M722.71,551.2h-4.32v8.83c0,0.55,0.05,1.01,0.16,1.36c0.11,0.35,0.26,0.62,0.45,0.82
				c0.19,0.19,0.42,0.33,0.69,0.4c0.27,0.08,0.56,0.11,0.88,0.11c0.36,0,0.74-0.05,1.12-0.16c0.38-0.11,0.74-0.25,1.06-0.42
				l0.1,1.95c-0.79,0.36-1.74,0.54-2.85,0.54c-0.41,0-0.83-0.05-1.26-0.16c-0.44-0.11-0.84-0.31-1.2-0.61s-0.66-0.7-0.9-1.22
				c-0.23-0.51-0.35-1.18-0.35-2.02v-9.44h-3.17v-1.92h3.17v-4.22h2.11v4.22h4.32V551.2z"/>
		</g>
		<g>
			<path class="st1" d="M735.19,555.07v-0.38c0-2.58-1.28-3.87-3.84-3.87c-1.75,0-3.27,0.59-4.58,1.76l-1.28-1.5
				c1.41-1.45,3.52-2.18,6.34-2.18c0.73,0,1.42,0.11,2.1,0.32c0.67,0.21,1.25,0.54,1.74,0.98c0.49,0.44,0.89,0.99,1.18,1.65
				s0.45,1.45,0.45,2.37v6.69c0,0.58,0.03,1.18,0.08,1.81c0.05,0.63,0.11,1.15,0.18,1.55h-2.05c-0.06-0.36-0.11-0.76-0.14-1.18
				c-0.03-0.43-0.05-0.84-0.05-1.25h-0.06c-0.62,1-1.35,1.72-2.19,2.16c-0.84,0.44-1.87,0.66-3.09,0.66c-0.66,0-1.3-0.09-1.92-0.27
				c-0.62-0.18-1.17-0.46-1.65-0.83s-0.86-0.83-1.15-1.38c-0.29-0.54-0.43-1.18-0.43-1.9c0-1.22,0.31-2.17,0.94-2.86
				c0.63-0.69,1.42-1.21,2.37-1.55c0.95-0.34,1.96-0.55,3.04-0.64c1.08-0.08,2.06-0.13,2.96-0.13H735.19z M734.1,556.8
				c-0.53,0-1.2,0.03-2,0.08c-0.8,0.05-1.57,0.18-2.3,0.38c-0.74,0.2-1.37,0.52-1.89,0.94c-0.52,0.43-0.78,1.01-0.78,1.76
				c0,0.49,0.1,0.91,0.3,1.26c0.2,0.35,0.47,0.64,0.82,0.86c0.34,0.22,0.72,0.38,1.14,0.48c0.42,0.1,0.84,0.14,1.26,0.14
				c0.77,0,1.43-0.13,2-0.38c0.56-0.26,1.04-0.6,1.42-1.04c0.38-0.44,0.67-0.95,0.85-1.54c0.18-0.59,0.27-1.21,0.27-1.87v-1.09
				H734.1z"/>
		</g>
		<g>
			<path class="st1" d="M749.94,551.2h-4.32v8.83c0,0.55,0.05,1.01,0.16,1.36c0.11,0.35,0.26,0.62,0.45,0.82
				c0.19,0.19,0.42,0.33,0.69,0.4c0.27,0.08,0.56,0.11,0.88,0.11c0.36,0,0.74-0.05,1.12-0.16c0.38-0.11,0.74-0.25,1.06-0.42
				l0.1,1.95c-0.79,0.36-1.74,0.54-2.85,0.54c-0.41,0-0.83-0.05-1.26-0.16c-0.44-0.11-0.84-0.31-1.2-0.61s-0.66-0.7-0.9-1.22
				c-0.23-0.51-0.35-1.18-0.35-2.02v-9.44h-3.17v-1.92h3.17v-4.22h2.11v4.22h4.32V551.2z"/>
		</g>
		<g>
			<path class="st1" d="M755.89,543.52c0,0.45-0.16,0.82-0.48,1.1s-0.67,0.43-1.06,0.43c-0.38,0-0.74-0.14-1.06-0.43
				c-0.32-0.29-0.48-0.66-0.48-1.1c0-0.45,0.16-0.82,0.48-1.1c0.32-0.29,0.67-0.43,1.06-0.43c0.38,0,0.74,0.14,1.06,0.43
				S755.89,543.07,755.89,543.52z M755.41,564.26h-2.11v-14.98h2.11V564.26z"/>
		</g>
		<g>
			<path class="st1" d="M768.44,552.83c-0.32-0.62-0.75-1.11-1.28-1.47c-0.53-0.36-1.18-0.54-1.95-0.54c-0.36,0-0.73,0.04-1.1,0.13
				c-0.37,0.08-0.71,0.22-1.01,0.4c-0.3,0.18-0.54,0.41-0.72,0.69s-0.27,0.62-0.27,1.02c0,0.7,0.25,1.22,0.74,1.54
				c0.49,0.32,1.23,0.6,2.21,0.83l2.14,0.51c1.04,0.24,1.91,0.71,2.61,1.42c0.69,0.72,1.04,1.61,1.04,2.67c0,0.81-0.17,1.51-0.5,2.1
				c-0.33,0.59-0.77,1.07-1.31,1.44c-0.54,0.37-1.17,0.65-1.87,0.82s-1.42,0.26-2.14,0.26c-1.15,0-2.22-0.22-3.22-0.66
				c-0.99-0.44-1.84-1.19-2.54-2.26l1.82-1.25c0.43,0.68,0.97,1.23,1.62,1.63c0.65,0.41,1.42,0.61,2.32,0.61
				c0.43,0,0.85-0.05,1.28-0.14c0.43-0.1,0.8-0.25,1.14-0.45c0.33-0.2,0.6-0.46,0.8-0.78c0.2-0.32,0.3-0.69,0.3-1.12
				c0-0.75-0.28-1.29-0.83-1.62c-0.55-0.33-1.23-0.59-2.02-0.78l-2.05-0.48c-0.26-0.06-0.6-0.17-1.04-0.32
				c-0.44-0.15-0.86-0.37-1.28-0.67c-0.42-0.3-0.77-0.69-1.07-1.17c-0.3-0.48-0.45-1.07-0.45-1.78c0-0.77,0.15-1.44,0.46-2.02
				c0.31-0.58,0.73-1.04,1.25-1.41c0.52-0.36,1.11-0.63,1.78-0.82c0.66-0.18,1.34-0.27,2.05-0.27c1.04,0,2.02,0.2,2.91,0.61
				s1.59,1.1,2.08,2.08L768.44,552.83z"/>
		</g>
		<g>
			<path class="st1" d="M781.88,551.2h-4.32v8.83c0,0.55,0.05,1.01,0.16,1.36c0.11,0.35,0.26,0.62,0.45,0.82
				c0.19,0.19,0.42,0.33,0.69,0.4c0.27,0.08,0.56,0.11,0.88,0.11c0.36,0,0.74-0.05,1.12-0.16c0.38-0.11,0.74-0.25,1.06-0.42
				l0.1,1.95c-0.79,0.36-1.74,0.54-2.85,0.54c-0.41,0-0.83-0.05-1.26-0.16c-0.44-0.11-0.84-0.31-1.2-0.61s-0.66-0.7-0.9-1.22
				c-0.23-0.51-0.35-1.18-0.35-2.02v-9.44h-3.17v-1.92h3.17v-4.22h2.11v4.22h4.32V551.2z"/>
		</g>
		<g>
			<path class="st1" d="M787.83,543.52c0,0.45-0.16,0.82-0.48,1.1s-0.67,0.43-1.06,0.43c-0.38,0-0.74-0.14-1.06-0.43
				c-0.32-0.29-0.48-0.66-0.48-1.1c0-0.45,0.16-0.82,0.48-1.1c0.32-0.29,0.67-0.43,1.06-0.43c0.38,0,0.74,0.14,1.06,0.43
				S787.83,543.07,787.83,543.52z M787.35,564.26h-2.11v-14.98h2.11V564.26z"/>
		</g>
		<g>
			<path class="st1" d="M803.35,552.8c-0.36-0.55-0.87-1.02-1.52-1.41s-1.39-0.58-2.22-0.58c-0.88-0.02-1.66,0.12-2.35,0.42
				c-0.69,0.3-1.29,0.72-1.78,1.25c-0.49,0.53-0.86,1.17-1.12,1.9c-0.26,0.74-0.38,1.53-0.38,2.38c0,0.85,0.13,1.65,0.38,2.38
				c0.26,0.74,0.63,1.37,1.12,1.9c0.49,0.53,1.08,0.95,1.78,1.25c0.69,0.3,1.48,0.44,2.35,0.42c0.83,0,1.57-0.19,2.22-0.58
				c0.65-0.38,1.16-0.85,1.52-1.41l1.73,1.31c-0.75,0.88-1.59,1.52-2.53,1.94c-0.94,0.42-1.92,0.63-2.94,0.66
				c-1.22,0.02-2.31-0.17-3.3-0.56s-1.82-0.94-2.51-1.65c-0.69-0.7-1.22-1.54-1.58-2.51c-0.36-0.97-0.54-2.02-0.54-3.15
				c0-1.13,0.18-2.18,0.54-3.15c0.36-0.97,0.89-1.81,1.58-2.51c0.69-0.7,1.53-1.25,2.51-1.65s2.08-0.58,3.3-0.56
				c1.02,0.02,2,0.24,2.94,0.66c0.94,0.42,1.78,1.06,2.53,1.94L803.35,552.8z"/>
		</g>
		<g>
			<path class="st1" d="M815.8,552.83c-0.32-0.62-0.75-1.11-1.28-1.47c-0.53-0.36-1.18-0.54-1.95-0.54c-0.36,0-0.73,0.04-1.1,0.13
				c-0.37,0.08-0.71,0.22-1.01,0.4c-0.3,0.18-0.54,0.41-0.72,0.69s-0.27,0.62-0.27,1.02c0,0.7,0.25,1.22,0.74,1.54
				c0.49,0.32,1.23,0.6,2.21,0.83l2.14,0.51c1.04,0.24,1.91,0.71,2.61,1.42c0.69,0.72,1.04,1.61,1.04,2.67c0,0.81-0.17,1.51-0.5,2.1
				c-0.33,0.59-0.77,1.07-1.31,1.44c-0.54,0.37-1.17,0.65-1.87,0.82s-1.42,0.26-2.14,0.26c-1.15,0-2.22-0.22-3.22-0.66
				c-0.99-0.44-1.84-1.19-2.54-2.26l1.82-1.25c0.43,0.68,0.97,1.23,1.62,1.63c0.65,0.41,1.42,0.61,2.32,0.61
				c0.43,0,0.85-0.05,1.28-0.14c0.43-0.1,0.8-0.25,1.14-0.45c0.33-0.2,0.6-0.46,0.8-0.78c0.2-0.32,0.3-0.69,0.3-1.12
				c0-0.75-0.28-1.29-0.83-1.62c-0.55-0.33-1.23-0.59-2.02-0.78l-2.05-0.48c-0.26-0.06-0.6-0.17-1.04-0.32
				c-0.44-0.15-0.86-0.37-1.28-0.67c-0.42-0.3-0.77-0.69-1.07-1.17c-0.3-0.48-0.45-1.07-0.45-1.78c0-0.77,0.15-1.44,0.46-2.02
				c0.31-0.58,0.73-1.04,1.25-1.41c0.52-0.36,1.11-0.63,1.78-0.82c0.66-0.18,1.34-0.27,2.05-0.27c1.04,0,2.02,0.2,2.91,0.61
				s1.59,1.1,2.08,2.08L815.8,552.83z"/>
		</g>
	</g>
	<g id="logo_cosmos_24_OK_xd" transform="translate(841.322 223.066)">
		<g id="Ligne_89">
			<rect x="197.73" y="253.43" class="st1" width="0.5" height="77.6"/>
		</g>
		<g id="Groupe_97" transform="translate(7.65 8.483)">
			<g id="Groupe_96">
				<g id="Tracé_35">
					<path class="st1" d="M116.8,208.34c-1.4,2.07-3.02,3.98-4.84,5.69c-1.98,1.85-4.19,3.44-6.57,4.72
						c-2.61,1.41-5.38,2.49-8.25,3.22c-3.22,0.81-6.54,1.21-9.86,1.18c-5.65,0.06-11.25-1-16.48-3.12
						c-9.87-3.95-17.67-11.81-21.55-21.72c-2.08-5.28-3.12-10.92-3.06-16.6c-0.06-5.69,1-11.33,3.12-16.6
						c1.97-4.89,4.91-9.34,8.63-13.08c3.73-3.71,8.16-6.64,13.03-8.63c5.18-2.12,10.73-3.18,16.32-3.13
						c5.64,0,11.21,1.17,16.37,3.45c2.38,1.05,4.62,2.37,6.69,3.94c1.94,1.45,3.63,3.2,5.02,5.19l-6.69,4.91
						c-0.93-1.4-2.04-2.68-3.29-3.8c-1.45-1.33-3.08-2.45-4.84-3.33c-1.93-0.99-3.97-1.78-6.07-2.34c-2.31-0.61-4.69-0.9-7.08-0.88
						c-4.73-0.08-9.42,0.87-13.75,2.78c-3.92,1.76-7.42,4.31-10.3,7.5c-2.85,3.19-5.05,6.91-6.46,10.95
						c-1.49,4.21-2.24,8.64-2.22,13.1c-0.02,4.47,0.76,8.9,2.29,13.1c1.45,4.03,3.67,7.74,6.53,10.93c2.88,3.19,6.38,5.74,10.3,7.5
						c4.3,1.9,8.96,2.85,13.66,2.78c4.46,0.02,8.86-0.93,12.92-2.78c4.18-1.95,7.74-5.03,10.25-8.9L116.8,208.34z"/>
				</g>
			</g>
		</g>
		<g id="Groupe_99" transform="translate(99.788 8.46)">
			<g id="Groupe_98">
				<g id="Tracé_36">
					<path class="st1" d="M128.42,181.72c0.06,5.69-1,11.33-3.13,16.6c-1.97,4.89-4.91,9.34-8.64,13.08
						c-3.73,3.71-8.16,6.64-13.03,8.64c-10.48,4.17-22.16,4.17-32.64,0c-9.87-3.99-17.7-11.83-21.67-21.72
						c-2.13-5.27-3.19-10.91-3.12-16.6c-0.06-5.69,1-11.33,3.12-16.6c1.97-4.89,4.91-9.34,8.63-13.08
						c3.73-3.71,8.16-6.64,13.03-8.63c10.48-4.17,22.16-4.17,32.64,0c9.87,3.99,17.7,11.83,21.67,21.71
						C127.42,170.4,128.48,176.04,128.42,181.72z M119.95,181.79c0.02-4.47-0.73-8.91-2.22-13.13c-1.42-4.04-3.61-7.76-6.46-10.95
						c-2.88-3.19-6.38-5.74-10.3-7.5c-4.3-1.9-8.96-2.85-13.66-2.78c-4.7-0.07-9.36,0.88-13.66,2.78c-3.92,1.76-7.42,4.31-10.3,7.5
						c-2.85,3.19-5.04,6.91-6.46,10.95c-2.96,8.5-2.96,17.75,0,26.25c1.41,4.03,3.6,7.73,6.45,10.9c2.88,3.17,6.39,5.7,10.3,7.45
						c4.3,1.9,8.96,2.85,13.66,2.78c4.7,0.07,9.36-0.88,13.66-2.78c3.91-1.75,7.42-4.29,10.31-7.45c2.86-3.17,5.05-6.87,6.46-10.9
						C119.22,190.71,119.97,186.26,119.95,181.79z"/>
				</g>
			</g>
		</g>
		<g id="Groupe_101" transform="translate(203.687 8.483)">
			<g id="Groupe_100">
				<g id="Tracé_37">
					<path class="st1" d="M89.37,154.96c-1.72-2.39-3.97-4.36-6.57-5.74c-3-1.53-6.34-2.28-9.7-2.18c-2,0.01-3.99,0.31-5.9,0.9
						c-1.97,0.58-3.82,1.5-5.46,2.73c-1.65,1.23-3,2.81-3.96,4.63c-1.04,2.03-1.55,4.29-1.5,6.58c-0.08,2.17,0.41,4.32,1.43,6.23
						c0.97,1.65,2.28,3.07,3.84,4.17c1.67,1.2,3.5,2.16,5.44,2.85c2.04,0.74,4.17,1.48,6.39,2.22c2.73,0.88,5.49,1.85,8.26,2.89
						c2.69,0.98,5.21,2.36,7.5,4.07c2.24,1.7,4.1,3.87,5.44,6.34c1.51,3.02,2.24,6.37,2.11,9.75c0.24,6.72-2.78,13.15-8.1,17.27
						c-2.45,1.88-5.24,3.28-8.22,4.12c-3.02,0.89-6.16,1.34-9.31,1.34c-2.39,0-4.78-0.24-7.13-0.72c-2.34-0.47-4.63-1.2-6.81-2.18
						c-2.15-0.97-4.17-2.21-6.02-3.68c-1.85-1.48-3.5-3.2-4.91-5.12l6.96-5.11c1.79,2.9,4.25,5.33,7.18,7.08
						c3.28,1.95,7.04,2.94,10.86,2.85c2.08-0.01,4.15-0.33,6.14-0.95c2.04-0.61,3.95-1.59,5.63-2.89c1.68-1.3,3.08-2.93,4.12-4.79
						c1.11-2.03,1.67-4.31,1.62-6.62c0.09-2.39-0.47-4.76-1.62-6.85c-1.08-1.82-2.54-3.37-4.28-4.56c-1.9-1.29-3.96-2.32-6.14-3.06
						c-2.29-0.81-4.72-1.64-7.25-2.45c-2.59-0.81-5.16-1.74-7.69-2.78c-2.47-1-4.76-2.37-6.81-4.07c-2.03-1.7-3.68-3.8-4.84-6.18
						c-1.3-2.83-1.93-5.92-1.83-9.03c-0.09-3.41,0.7-6.79,2.29-9.82c1.46-2.68,3.49-5,5.95-6.81c2.45-1.78,5.2-3.09,8.12-3.89
						c2.87-0.8,5.83-1.21,8.8-1.23c4.73-0.13,9.42,0.84,13.7,2.85c3.35,1.55,6.29,3.85,8.59,6.74L89.37,154.96z"/>
				</g>
			</g>
		</g>
		<g id="Groupe_103" transform="translate(17.697 214.521)">
			<g id="Groupe_102">
				<g id="Tracé_38">
					<path class="st1" d="M85.22,205.57h0.12l26.42-65.28H124v78.87h-8.04v-68.53h-0.23l-28.52,68.53h-4.24l-28.52-68.53h-0.23
						v68.53h-8.03v-78.87h12.25L85.22,205.57z"/>
				</g>
			</g>
		</g>
		<g id="Groupe_105" transform="translate(112.22 212.53)">
			<g id="Groupe_104">
				<g id="Tracé_39">
					<path class="st1" d="M128.42,181.72c0.06,5.69-1,11.33-3.13,16.6c-1.97,4.89-4.91,9.34-8.64,13.08
						c-3.73,3.71-8.16,6.64-13.03,8.63c-10.48,4.17-22.16,4.17-32.64,0c-9.87-3.99-17.7-11.83-21.67-21.71
						c-4.17-10.67-4.17-22.53,0-33.2c1.97-4.89,4.91-9.34,8.64-13.08c3.73-3.71,8.16-6.64,13.03-8.64c10.48-4.17,22.16-4.17,32.64,0
						c9.87,3.99,17.7,11.83,21.67,21.72C127.43,170.39,128.49,176.04,128.42,181.72z M119.95,181.77c0.02-4.47-0.73-8.91-2.22-13.13
						c-1.42-4.04-3.61-7.76-6.46-10.95c-2.88-3.19-6.38-5.74-10.3-7.5c-4.3-1.9-8.96-2.85-13.66-2.78
						c-4.7-0.07-9.36,0.88-13.66,2.78c-3.92,1.76-7.42,4.31-10.3,7.5c-2.85,3.19-5.04,6.91-6.46,10.95c-2.96,8.5-2.96,17.75,0,26.25
						c1.41,4.02,3.61,7.73,6.46,10.9c2.88,3.17,6.39,5.7,10.3,7.45c4.3,1.9,8.96,2.85,13.66,2.78c4.7,0.07,9.36-0.88,13.66-2.78
						c3.91-1.75,7.42-4.29,10.3-7.45c2.86-3.17,5.05-6.87,6.46-10.9C119.22,190.68,119.97,186.24,119.95,181.77L119.95,181.77z"/>
				</g>
			</g>
		</g>
		<g id="Groupe_107" transform="translate(206.187 212.553)">
			<g id="Groupe_106">
				<g id="Tracé_40">
					<path class="st1" d="M89.37,154.96c-1.72-2.39-3.97-4.36-6.57-5.74c-3-1.53-6.34-2.28-9.7-2.18c-2,0.01-3.99,0.31-5.9,0.9
						c-1.97,0.58-3.82,1.5-5.46,2.73c-1.65,1.23-3,2.81-3.96,4.63c-1.04,2.03-1.55,4.29-1.5,6.57c-0.08,2.17,0.41,4.32,1.43,6.23
						c0.97,1.65,2.28,3.07,3.84,4.17c1.67,1.2,3.5,2.16,5.44,2.85c2.04,0.74,4.17,1.48,6.39,2.22c2.73,0.88,5.49,1.85,8.27,2.89
						c2.69,0.98,5.21,2.36,7.5,4.07c2.24,1.7,4.1,3.87,5.44,6.34c1.51,3.02,2.24,6.37,2.11,9.75c0.24,6.72-2.78,13.15-8.1,17.27
						c-2.45,1.88-5.24,3.28-8.22,4.12c-3.02,0.89-6.16,1.34-9.31,1.34c-2.39,0-4.78-0.24-7.13-0.72c-2.34-0.47-4.63-1.2-6.81-2.18
						c-2.15-0.97-4.17-2.21-6.02-3.68c-1.85-1.48-3.5-3.2-4.91-5.12l6.9-5.12c1.79,2.9,4.25,5.33,7.18,7.08
						c3.28,1.95,7.04,2.94,10.86,2.85c2.08-0.01,4.15-0.33,6.14-0.95c2.04-0.61,3.95-1.59,5.63-2.89c1.68-1.3,3.08-2.93,4.12-4.79
						c2.16-4.23,2.16-9.24,0-13.47c-1.08-1.82-2.54-3.37-4.28-4.56c-1.9-1.29-3.96-2.32-6.14-3.06c-2.29-0.81-4.72-1.64-7.25-2.45
						c-2.59-0.81-5.16-1.74-7.69-2.78c-2.47-1-4.76-2.37-6.81-4.07c-2.03-1.7-3.68-3.8-4.84-6.18c-2.59-6.05-2.42-12.93,0.46-18.84
						c1.46-2.68,3.49-5,5.95-6.81c2.45-1.78,5.2-3.1,8.13-3.89c2.87-0.8,5.83-1.21,8.8-1.23c4.73-0.13,9.42,0.84,13.7,2.85
						c3.35,1.55,6.29,3.85,8.59,6.74L89.37,154.96z"/>
				</g>
			</g>
		</g>
		<g id="Groupe_109" transform="translate(51.45 9.085)">
			<g id="Groupe_108">
				<g id="Rectangle_22">
					<rect x="46.19" y="140.28" class="st1" width="86.3" height="0.93"/>
				</g>
			</g>
		</g>
		<g id="Groupe_111" transform="translate(139.306 89.833)">
			<g id="Groupe_110">
				<g id="Rectangle_23">
					<rect x="46.19" y="140.28" class="st1" width="93.83" height="0.93"/>
				</g>
			</g>
		</g>
		<g id="Groupe_113" transform="translate(157.34 292.191)">
			<g id="Groupe_112">
				<g id="Rectangle_24">
					<rect x="46.19" y="140.28" class="st1" width="82.6" height="0.93"/>
				</g>
			</g>
		</g>
		<g id="Groupe_115" transform="translate(88.26 214.938)">
			<g id="Groupe_114">
				<g id="Tracé_41">
					<path class="st1" d="M118.42,141.21H46.19v-0.93h74.2L118.42,141.21z"/>
				</g>
			</g>
		</g>
		<g id="Ligne_90">
			<rect x="74.75" y="253.43" class="st1" width="0.5" height="77.6"/>
		</g>
		<g id="Ligne_91">
			<rect x="105.5" y="253.43" class="st1" width="0.5" height="77.6"/>
		</g>
		<g id="Ligne_92">
			<rect x="136.24" y="253.43" class="st1" width="0.5" height="77.6"/>
		</g>
		<g id="Ligne_93">
			<rect x="166.98" y="253.43" class="st1" width="0.5" height="77.6"/>
		</g>
		<g id="Ligne_94">
			<rect x="228.47" y="253.43" class="st1" width="0.5" height="77.6"/>
		</g>
		<g id="Ligne_95">
			<rect x="259.21" y="253.43" class="st1" width="0.5" height="77.6"/>
		</g>
		<g id="Ligne_96">
			<rect x="289.96" y="253.43" class="st1" width="0.5" height="77.6"/>
		</g>
		<g id="Ligne_97">
			<path class="st1" d="M136.4,316.78c-1.1,0-2-0.9-2-2v-24.7c0-1.1,0.9-2,2-2s2,0.9,2,2v24.7
				C138.4,315.88,137.5,316.78,136.4,316.78z"/>
		</g>
		<g id="Ligne_98">
			<path class="st1" d="M106.07,296.94c-1.1,0-2-0.9-2-2v-20.05c0-1.1,0.9-2,2-2s2,0.9,2,2v20.05
				C108.07,296.04,107.17,296.94,106.07,296.94z"/>
		</g>
		<g id="Ligne_99">
			<path class="st1" d="M167.28,333.24c-1.1,0-2-0.9-2-2v-42.02c0-1.1,0.9-2,2-2s2,0.9,2,2v42.02
				C169.28,332.34,168.38,333.24,167.28,333.24z"/>
		</g>
		<g id="Ligne_100">
			<path class="st1" d="M198.19,310.66c-1.1,0-2-0.9-2-2v-29.72c0-1.1,0.9-2,2-2s2,0.9,2,2v29.72
				C200.19,309.77,199.29,310.66,198.19,310.66z"/>
		</g>
		<g id="Ligne_101">
			<path class="st1" d="M228.72,283.81c-1.1,0-2-0.9-2-2v-24.68c0-1.1,0.9-2,2-2s2,0.9,2,2v24.68
				C230.72,282.91,229.83,283.81,228.72,283.81z"/>
		</g>
		<g id="Ligne_102">
			<path class="st1" d="M259.46,268.53c-1.1,0-2-0.9-2-2v-9.68c0-1.1,0.9-2,2-2s2,0.9,2,2v9.68
				C261.46,267.63,260.57,268.53,259.46,268.53z"/>
		</g>
		<g id="Ligne_103">
			<path class="st1" d="M290,262.47c-1.1,0-2-0.9-2-2v-3.94c0-1.1,0.9-2,2-2s2,0.9,2,2v3.94C292,261.57,291.11,262.47,290,262.47z"
				/>
		</g>
		<g id="Ligne_104">
			<path class="st1" d="M75.74,262.47c-1.1,0-2-0.9-2-2v-3.94c0-1.1,0.9-2,2-2s2,0.9,2,2v3.94
				C77.74,261.57,76.85,262.47,75.74,262.47z"/>
		</g>
	</g>
	<g class="st0">
		<g>
			<path class="st1" d="M1254.97,509.26h-3.78l13.86-31.86h3.15l13.86,31.86h-3.78l-3.51-8.37h-16.29L1254.97,509.26z
				 M1259.7,497.92h13.81l-6.88-16.74L1259.7,497.92z"/>
		</g>
		<g>
			<path class="st1" d="M1285.3,488.2h2.97v3.51h0.09c0.48-0.72,1.05-1.33,1.71-1.84c0.66-0.51,1.35-0.93,2.07-1.26
				c0.72-0.33,1.46-0.57,2.23-0.72c0.76-0.15,1.49-0.22,2.18-0.22c1.65,0,3.16,0.28,4.52,0.83c1.37,0.56,2.54,1.33,3.53,2.32
				c0.99,0.99,1.76,2.16,2.32,3.51c0.55,1.35,0.83,2.82,0.83,4.41c0,1.59-0.28,3.06-0.83,4.41c-0.55,1.35-1.33,2.52-2.32,3.51
				c-0.99,0.99-2.17,1.76-3.53,2.32c-1.37,0.56-2.87,0.83-4.52,0.83c-0.69,0-1.42-0.08-2.18-0.22c-0.77-0.15-1.51-0.39-2.23-0.72
				c-0.72-0.33-1.41-0.75-2.07-1.26c-0.66-0.51-1.23-1.12-1.71-1.84h-0.09v16.47h-2.97V488.2z M1304.52,498.73
				c0-1.17-0.19-2.26-0.56-3.29c-0.38-1.02-0.91-1.9-1.6-2.65s-1.52-1.34-2.5-1.78c-0.98-0.43-2.08-0.65-3.31-0.65
				c-1.23,0-2.36,0.22-3.38,0.65c-1.02,0.43-1.91,1.03-2.66,1.78s-1.33,1.63-1.75,2.65c-0.42,1.02-0.63,2.12-0.63,3.29
				s0.21,2.27,0.63,3.29c0.42,1.02,1,1.91,1.75,2.66s1.63,1.34,2.66,1.78c1.02,0.44,2.14,0.65,3.38,0.65c1.23,0,2.33-0.22,3.31-0.65
				c0.97-0.43,1.81-1.03,2.5-1.78s1.22-1.63,1.6-2.66C1304.33,500.99,1304.52,499.9,1304.52,498.73z"/>
		</g>
		<g>
			<path class="st1" d="M1313.11,494.77c0-0.93-0.02-1.87-0.07-2.83c-0.04-0.96-0.08-2.21-0.11-3.73h2.92v3.92h0.09
				c0.21-0.57,0.51-1.12,0.9-1.64c0.39-0.53,0.86-1,1.42-1.42c0.55-0.42,1.2-0.76,1.94-1.01c0.73-0.25,1.57-0.38,2.5-0.38
				c0.84,0,1.58,0.09,2.21,0.27l-0.58,2.92c-0.39-0.15-0.96-0.22-1.71-0.22c-1.14,0-2.11,0.22-2.92,0.65
				c-0.81,0.44-1.49,0.99-2.03,1.67s-0.94,1.4-1.19,2.18s-0.38,1.53-0.38,2.25v11.88h-2.97V494.77z"/>
		</g>
		<g>
			<path class="st1" d="M1332.06,480.1c0,0.63-0.23,1.15-0.67,1.55c-0.45,0.41-0.95,0.61-1.49,0.61s-1.03-0.2-1.49-0.61
				c-0.45-0.41-0.67-0.92-0.67-1.55s0.22-1.15,0.67-1.55c0.45-0.4,0.95-0.61,1.49-0.61s1.04,0.2,1.49,0.61
				C1331.83,478.95,1332.06,479.47,1332.06,480.1z M1331.38,509.26h-2.97V488.2h2.97V509.26z"/>
		</g>
		<g>
			<path class="st1" d="M1342.18,509.26h-2.97v-34.02h2.97V509.26z"/>
		</g>
		<g>
			<path class="st1" d="M1381.02,509.26h-20.25v-3.74l12.69-12.92c0.48-0.48,0.96-0.99,1.44-1.53c0.48-0.54,0.91-1.11,1.3-1.71
				c0.39-0.6,0.71-1.23,0.95-1.89c0.24-0.66,0.36-1.35,0.36-2.07c0-0.87-0.16-1.65-0.47-2.34c-0.32-0.69-0.76-1.27-1.33-1.75
				c-0.57-0.48-1.23-0.85-1.98-1.1c-0.75-0.25-1.54-0.38-2.38-0.38c-1.62,0-3,0.45-4.14,1.35s-1.88,2.12-2.21,3.65l-3.42-0.36
				c0.45-2.37,1.54-4.23,3.26-5.58c1.72-1.35,3.82-2.03,6.28-2.03c1.29,0,2.51,0.17,3.67,0.52c1.15,0.35,2.17,0.86,3.06,1.55
				c0.88,0.69,1.59,1.55,2.12,2.59c0.52,1.04,0.79,2.24,0.79,3.62c0,1.23-0.19,2.36-0.56,3.38c-0.38,1.02-0.86,1.98-1.46,2.88
				c-0.6,0.9-1.28,1.75-2.05,2.57c-0.76,0.81-1.55,1.61-2.36,2.38l-10.04,9.95h16.74V509.26z"/>
		</g>
		<g>
			<path class="st1" d="M1419,493.33c0,2.43-0.42,4.67-1.26,6.71s-2,3.8-3.49,5.29s-3.24,2.65-5.26,3.49
				c-2.03,0.84-4.22,1.26-6.59,1.26s-4.57-0.42-6.59-1.26c-2.03-0.84-3.78-2-5.26-3.49s-2.65-3.25-3.49-5.29
				c-0.84-2.04-1.26-4.28-1.26-6.71c0-2.43,0.42-4.67,1.26-6.71c0.84-2.04,2-3.8,3.49-5.29c1.49-1.48,3.24-2.65,5.26-3.49
				c2.03-0.84,4.22-1.26,6.59-1.26s4.57,0.42,6.59,1.26c2.02,0.84,3.78,2,5.26,3.49c1.49,1.49,2.65,3.25,3.49,5.29
				S1419,490.9,1419,493.33z M1415.49,493.33c0-1.83-0.3-3.58-0.9-5.24s-1.46-3.13-2.59-4.39c-1.12-1.26-2.5-2.27-4.12-3.02
				c-1.62-0.75-3.45-1.12-5.49-1.12s-3.87,0.38-5.49,1.12c-1.62,0.75-2.99,1.75-4.12,3.02c-1.12,1.26-1.99,2.72-2.59,4.39
				s-0.9,3.41-0.9,5.24s0.3,3.58,0.9,5.24s1.46,3.13,2.59,4.39s2.5,2.27,4.12,3.01c1.62,0.75,3.45,1.12,5.49,1.12
				s3.87-0.38,5.49-1.12c1.62-0.75,2.99-1.75,4.12-3.01s1.99-2.72,2.59-4.39S1415.49,495.16,1415.49,493.33z"/>
		</g>
		<g>
			<path class="st1" d="M1443.57,509.26h-20.25v-3.74l12.69-12.92c0.48-0.48,0.96-0.99,1.44-1.53c0.48-0.54,0.92-1.11,1.31-1.71
				c0.39-0.6,0.7-1.23,0.94-1.89c0.24-0.66,0.36-1.35,0.36-2.07c0-0.87-0.16-1.65-0.47-2.34c-0.32-0.69-0.76-1.27-1.33-1.75
				c-0.57-0.48-1.23-0.85-1.98-1.1c-0.75-0.25-1.55-0.38-2.39-0.38c-1.62,0-3,0.45-4.14,1.35c-1.14,0.9-1.88,2.12-2.21,3.65
				l-3.42-0.36c0.45-2.37,1.54-4.23,3.26-5.58c1.72-1.35,3.82-2.03,6.28-2.03c1.29,0,2.51,0.17,3.67,0.52
				c1.15,0.35,2.17,0.86,3.06,1.55c0.88,0.69,1.59,1.55,2.12,2.59c0.52,1.04,0.79,2.24,0.79,3.62c0,1.23-0.19,2.36-0.56,3.38
				c-0.38,1.02-0.86,1.98-1.46,2.88c-0.6,0.9-1.28,1.75-2.05,2.57c-0.76,0.81-1.55,1.61-2.36,2.38l-10.04,9.95h16.74V509.26z"/>
		</g>
		<g>
			<path class="st1" d="M1464.9,498.73h4.59v2.97h-4.59v7.56h-3.24v-7.56h-13.77v-3.69l12.87-20.61h4.14V498.73z M1461.66,480.64
				h-0.09l-10.98,18.09h11.07V480.64z"/>
		</g>
	</g>
	<g class="st0">
		<g>
			<path class="st1" d="M1296.19,565.94h-45v-2.97h45V565.94z"/>
		</g>
		<g>
			<path class="st1" d="M1313.02,543.4h9.27c3.24,0,5.8,0.71,7.67,2.12c1.87,1.41,2.81,3.54,2.81,6.39c0,2.85-0.94,4.99-2.81,6.41
				c-1.88,1.42-4.43,2.14-7.67,2.14h-6.03v14.8h-3.24V543.4z M1316.26,557.48h5.22c1.44,0,2.66-0.15,3.67-0.45
				c1.01-0.3,1.81-0.7,2.41-1.19c0.6-0.49,1.04-1.08,1.3-1.75c0.27-0.67,0.41-1.4,0.41-2.18c0-0.75-0.13-1.46-0.41-2.14
				c-0.27-0.68-0.71-1.27-1.3-1.78c-0.6-0.51-1.4-0.91-2.41-1.19c-1-0.28-2.23-0.43-3.67-0.43h-5.22V557.48z"/>
		</g>
		<g>
			<path class="st1" d="M1351.27,562.34v-0.54c0-3.63-1.8-5.45-5.4-5.45c-2.46,0-4.61,0.83-6.44,2.48l-1.8-2.12
				c1.98-2.04,4.95-3.06,8.91-3.06c1.02,0,2,0.15,2.95,0.45c0.95,0.3,1.76,0.76,2.45,1.37c0.69,0.62,1.25,1.39,1.67,2.32
				c0.42,0.93,0.63,2.04,0.63,3.33v9.41c0,0.81,0.04,1.66,0.11,2.54c0.07,0.89,0.16,1.61,0.25,2.18h-2.88
				c-0.09-0.51-0.16-1.06-0.2-1.67c-0.04-0.6-0.07-1.18-0.07-1.75h-0.09c-0.87,1.41-1.9,2.42-3.08,3.04
				c-1.19,0.62-2.63,0.92-4.34,0.92c-0.93,0-1.83-0.13-2.7-0.38c-0.87-0.25-1.64-0.64-2.32-1.17c-0.67-0.52-1.22-1.17-1.62-1.93
				c-0.41-0.77-0.61-1.66-0.61-2.68c0-1.71,0.44-3.05,1.33-4.03c0.88-0.97,2-1.7,3.33-2.18c1.33-0.48,2.76-0.78,4.27-0.9
				c1.52-0.12,2.9-0.18,4.16-0.18H1351.27z M1349.74,564.77c-0.75,0-1.69,0.04-2.81,0.11s-2.21,0.25-3.24,0.54
				c-1.04,0.29-1.92,0.73-2.66,1.33c-0.73,0.6-1.1,1.42-1.1,2.47c0,0.69,0.14,1.28,0.43,1.78c0.28,0.5,0.67,0.9,1.15,1.22
				c0.48,0.31,1.01,0.54,1.6,0.67c0.59,0.13,1.18,0.2,1.78,0.2c1.08,0,2.02-0.18,2.81-0.54c0.79-0.36,1.46-0.85,2-1.46
				s0.94-1.33,1.19-2.16c0.25-0.83,0.38-1.7,0.38-2.63v-1.53H1349.74z"/>
		</g>
		<g>
			<path class="st1" d="M1361.44,560.77c0-0.93-0.02-1.87-0.07-2.83c-0.04-0.96-0.08-2.21-0.11-3.73h2.92v3.92h0.09
				c0.21-0.57,0.51-1.12,0.9-1.64c0.39-0.53,0.86-1,1.42-1.42c0.55-0.42,1.2-0.76,1.94-1.01c0.73-0.25,1.57-0.38,2.5-0.38
				c0.84,0,1.58,0.09,2.21,0.27l-0.58,2.92c-0.39-0.15-0.96-0.22-1.71-0.22c-1.14,0-2.11,0.22-2.92,0.65
				c-0.81,0.44-1.49,0.99-2.03,1.67s-0.94,1.4-1.19,2.18s-0.38,1.53-0.38,2.25v11.88h-2.97V560.77z"/>
		</g>
		<g>
			<path class="st1" d="M1380.39,546.1c0,0.63-0.23,1.15-0.67,1.55c-0.45,0.41-0.95,0.61-1.49,0.61s-1.03-0.2-1.49-0.61
				c-0.45-0.41-0.67-0.92-0.67-1.55s0.22-1.15,0.67-1.55c0.45-0.4,0.95-0.61,1.49-0.61s1.04,0.2,1.49,0.61
				C1380.16,544.95,1380.39,545.47,1380.39,546.1z M1379.71,575.26h-2.97V554.2h2.97V575.26z"/>
		</g>
		<g>
			<path class="st1" d="M1398.03,559.19c-0.45-0.87-1.05-1.56-1.8-2.07s-1.66-0.77-2.74-0.77c-0.51,0-1.03,0.06-1.55,0.18
				c-0.53,0.12-1,0.31-1.42,0.56s-0.76,0.58-1.01,0.97c-0.26,0.39-0.38,0.87-0.38,1.44c0,0.99,0.34,1.71,1.04,2.16
				c0.69,0.45,1.72,0.84,3.1,1.17l3.01,0.72c1.47,0.33,2.69,1,3.67,2s1.46,2.26,1.46,3.76c0,1.14-0.23,2.12-0.7,2.95
				c-0.47,0.83-1.08,1.5-1.85,2.02c-0.77,0.53-1.64,0.91-2.63,1.15c-0.99,0.24-2,0.36-3.01,0.36c-1.62,0-3.13-0.31-4.52-0.92
				c-1.39-0.61-2.59-1.67-3.58-3.17l2.57-1.75c0.6,0.96,1.36,1.72,2.27,2.29s2,0.85,3.26,0.85c0.6,0,1.2-0.07,1.8-0.2
				s1.13-0.34,1.6-0.63s0.84-0.65,1.12-1.1s0.43-0.97,0.43-1.58c0-1.05-0.39-1.81-1.17-2.27c-0.78-0.46-1.73-0.83-2.84-1.1
				l-2.88-0.67c-0.36-0.09-0.85-0.24-1.46-0.45s-1.21-0.52-1.8-0.95c-0.58-0.42-1.09-0.97-1.51-1.64c-0.42-0.67-0.63-1.51-0.63-2.5
				c0-1.08,0.22-2.03,0.65-2.83c0.43-0.81,1.02-1.47,1.76-1.98c0.73-0.51,1.57-0.89,2.5-1.15c0.93-0.25,1.89-0.38,2.88-0.38
				c1.47,0,2.83,0.29,4.09,0.85c1.26,0.57,2.24,1.55,2.92,2.92L1398.03,559.19z"/>
		</g>
	</g>
</g>
</svg>
