<?xml version="1.0" encoding="utf-8"?>
<!-- Generator: Adobe Illustrator 25.4.1, SVG Export Plug-In . SVG Version: 6.00 Build 0)  -->
<svg version="1.1" id="Calque_1" xmlns="http://www.w3.org/2000/svg" xmlns:xlink="http://www.w3.org/1999/xlink" x="0px" y="0px"
	 viewBox="0 0 157.2 158.1" style="enable-background:new 0 0 157.2 158.1;" xml:space="preserve">
<style type="text/css">
	.st0{fill:#CFD0D3;}
	.st1{fill:#39486D;}
</style>
<circle id="Ellipse_2" class="st0" cx="79.6" cy="78.6" r="74"/>
<path class="st1" d="M105.7,64L82.1,40.5c-1-1-2.6-1-3.5,0L55,64c-1,1-1,2.6,0,3.5c0.5,0.5,1.1,0.7,1.8,0.7s1.3-0.2,1.8-0.7
	l19.3-19.3v70.2c0,1.4,1.1,2.5,2.5,2.5s2.5-1.1,2.5-2.5V48.3l19.3,19.3c1,1,2.6,1,3.5,0C106.6,66.6,106.6,65,105.7,64z"/>
</svg>
