<?xml version="1.0" encoding="utf-8"?>
<!-- Generator: Adobe Illustrator 25.4.1, SVG Export Plug-In . SVG Version: 6.00 Build 0)  -->
<svg version="1.1" id="Calque_1" xmlns="http://www.w3.org/2000/svg" xmlns:xlink="http://www.w3.org/1999/xlink" x="0px" y="0px"
	 viewBox="0 0 1083.6 291.2" style="enable-background:new 0 0 1083.6 291.2;" xml:space="preserve">
<style type="text/css">
	.st0{fill:#FFFFFF;}
</style>
<g id="Groupe_194" transform="translate(48.06 226.827)">
	<g id="Groupe_169" transform="translate(0 0.952)">
		<path id="Tracé_92" class="st0" d="M43.2-95.5c-0.3,0.4-0.6,0.8-1,1.2c-0.4,0.4-0.9,0.7-1.4,1c-0.5,0.3-1.1,0.5-1.7,0.6
			c-0.6,0.2-1.3,0.2-1.9,0.2c-1.2,0-2.3-0.2-3.4-0.6c-2-0.8-3.6-2.4-4.5-4.5c-0.9-2.2-0.9-4.6,0-6.8c0.8-2,2.4-3.6,4.5-4.5
			c1.1-0.4,2.2-0.7,3.4-0.6c1,0,2.1,0.2,3,0.6c1,0.4,1.9,1.1,2.6,2l-1.4,1.1c-0.2-0.3-0.4-0.6-0.7-0.8c-0.3-0.3-0.6-0.5-1-0.7
			c-0.4-0.2-0.8-0.4-1.2-0.5c-0.4-0.1-0.8-0.2-1.3-0.2c-1,0-1.9,0.2-2.8,0.6c-0.8,0.4-1.5,0.9-2.1,1.5c-0.6,0.7-1,1.4-1.3,2.2
			c-0.6,1.7-0.6,3.6,0,5.3c0.3,0.8,0.7,1.6,1.3,2.2c0.6,0.7,1.3,1.2,2.1,1.5c0.9,0.4,1.8,0.6,2.8,0.6c0.4,0,0.9,0,1.3-0.1
			c0.4-0.1,0.8-0.2,1.2-0.4c0.4-0.2,0.8-0.4,1.1-0.7c0.4-0.3,0.7-0.7,1-1.2L43.2-95.5z"/>
	</g>
	<g id="Groupe_170" transform="translate(16.132 6.594)">
		<path id="Tracé_93" class="st0" d="M40.1-104c0,0.8-0.1,1.5-0.4,2.2c-0.5,1.4-1.6,2.4-3,3c-0.7,0.3-1.5,0.4-2.3,0.4
			s-1.6-0.1-2.3-0.4c-0.7-0.3-1.3-0.7-1.8-1.2s-0.9-1.1-1.2-1.8c-0.3-0.7-0.4-1.5-0.4-2.2c0-0.8,0.1-1.5,0.4-2.2s0.7-1.3,1.2-1.8
			s1.1-0.9,1.8-1.2c0.7-0.3,1.5-0.4,2.3-0.4s1.6,0.1,2.3,0.4s1.3,0.7,1.8,1.2s0.9,1.1,1.2,1.8C40-105.5,40.1-104.7,40.1-104z
			 M38.5-104c0-0.6-0.1-1.1-0.3-1.7c-0.2-0.5-0.5-1-0.8-1.4c-0.4-0.4-0.8-0.7-1.3-0.9c-0.5-0.2-1.1-0.3-1.7-0.3
			c-0.6,0-1.2,0.1-1.7,0.3c-0.5,0.2-0.9,0.5-1.3,0.9s-0.6,0.9-0.8,1.4c-0.4,1.1-0.4,2.3,0,3.4c0.2,0.5,0.4,1,0.8,1.4
			s0.8,0.7,1.3,0.9c1.1,0.4,2.3,0.4,3.4,0c0.5-0.2,0.9-0.5,1.3-0.9c0.4-0.4,0.6-0.9,0.8-1.4C38.4-102.8,38.5-103.4,38.5-104z"/>
	</g>
	<g id="Groupe_171" transform="translate(30.158 6.594)">
		<path id="Tracé_94" class="st0" d="M30.3-109.3c0,0.3,0.1,0.6,0.1,0.9s0,0.6,0,0.9l0,0c0.2-0.3,0.4-0.6,0.6-0.8
			c0.3-0.2,0.6-0.5,0.9-0.6c0.3-0.2,0.7-0.3,1-0.4c1.4-0.4,3,0,4.1,0.9c0.7,0.9,1.1,2,1,3.1v6.8h-1.5v-5.9c0.1-1-0.2-1.9-0.6-2.7
			c-0.5-0.7-1.4-1.1-2.3-1c-0.2,0-0.4,0-0.6,0.1c-0.4,0.1-0.8,0.3-1.1,0.5c-0.4,0.3-0.8,0.8-1,1.2c-0.3,0.7-0.5,1.5-0.5,2.3v5.5
			h-1.5v-8.4c0-0.3,0-0.7,0-1.1s-0.1-0.9-0.1-1.3H30.3L30.3-109.3z"/>
	</g>
	<g id="Groupe_172" transform="translate(41.679)">
		<path id="Tracé_95" class="st0" d="M35.1-101.4h-2.5v9.4h-1.5v-9.4h-2.3v-1.4h2.3v-2.9c-0.1-1.1,0.2-2.2,1-3
			c0.7-0.6,1.7-0.9,2.6-0.9c0.2,0,0.4,0,0.7,0c0.2,0,0.4,0.1,0.7,0.1l-0.3,1.4c-0.2,0-0.4-0.1-0.6-0.1s-0.4,0-0.6,0
			c-0.3,0-0.7,0.1-1,0.2s-0.5,0.3-0.6,0.6c-0.1,0.3-0.2,0.6-0.3,0.9c0,0.4-0.1,0.7-0.1,1.1v2.8h2.5L35.1-101.4L35.1-101.4z"/>
	</g>
	<g id="Groupe_173" transform="translate(49.226 6.587)">
		<path id="Tracé_96" class="st0" d="M30.4-103.6c0,0.5,0.2,1,0.4,1.5c0.2,0.5,0.5,0.9,0.8,1.2c0.4,0.3,0.8,0.6,1.2,0.8
			c0.5,0.2,1,0.3,1.5,0.3c0.7,0,1.5-0.2,2.1-0.6c0.5-0.3,1-0.8,1.3-1.3l1.2,1c-0.6,0.7-1.3,1.3-2.1,1.7c-0.8,0.4-1.6,0.5-2.5,0.5
			c-0.8,0-1.5-0.1-2.2-0.4c-0.7-0.3-1.3-0.7-1.8-1.2s-0.9-1.1-1.2-1.8c-0.3-0.7-0.4-1.5-0.4-2.2c0-0.8,0.1-1.5,0.4-2.2
			s0.7-1.3,1.1-1.8c0.5-0.5,1.1-0.9,1.7-1.2c0.7-0.3,1.4-0.4,2.1-0.4s1.5,0.1,2.2,0.4c0.6,0.3,1.2,0.7,1.6,1.2
			c0.4,0.5,0.8,1.1,1,1.7c0.2,0.7,0.3,1.4,0.3,2.1v0.7L30.4-103.6z M37.6-104.8c0.1-1.8-1.2-3.3-3-3.4c-0.2,0-0.3,0-0.5,0
			c-0.5,0-1,0.1-1.4,0.3c-0.4,0.2-0.8,0.4-1.2,0.8c-0.3,0.3-0.6,0.7-0.8,1.1c-0.2,0.4-0.3,0.8-0.3,1.3L37.6-104.8z"/>
	</g>
	<g id="Groupe_174" transform="translate(62.594 6.587)">
		<path id="Tracé_97" class="st0" d="M28.8-106c0-0.5,0-1,0-1.4s0-1.1-0.1-1.9h1.5v2l0,0c0.1-0.3,0.3-0.6,0.5-0.8
			c0.2-0.3,0.4-0.5,0.7-0.7c0.3-0.2,0.6-0.4,1-0.5c0.4-0.1,0.8-0.2,1.3-0.2c0.4,0,0.8,0,1.1,0.1l-0.3,1.5c-0.3-0.1-0.6-0.1-0.9-0.1
			c-0.5,0-1,0.1-1.5,0.3c-0.4,0.2-0.7,0.5-1,0.8s-0.5,0.7-0.6,1.1s-0.2,0.8-0.2,1.1v6h-1.5V-106L28.8-106z"/>
	</g>
	<g id="Groupe_175" transform="translate(69.159 6.587)">
		<path id="Tracé_98" class="st0" d="M30.4-103.6c0,0.5,0.2,1,0.4,1.5c0.2,0.5,0.5,0.9,0.8,1.2c0.4,0.3,0.8,0.6,1.2,0.8
			c0.5,0.2,1,0.3,1.5,0.3c0.7,0,1.5-0.2,2.1-0.6c0.5-0.3,1-0.8,1.3-1.3l1.2,1c-0.6,0.7-1.3,1.3-2.1,1.7c-0.8,0.4-1.6,0.5-2.5,0.5
			c-0.8,0-1.5-0.1-2.2-0.4c-0.7-0.3-1.3-0.7-1.8-1.2s-0.9-1.1-1.2-1.8c-0.3-0.7-0.4-1.5-0.4-2.2c0-0.8,0.1-1.5,0.4-2.2
			s0.7-1.3,1.1-1.8c0.5-0.5,1.1-0.9,1.7-1.2c0.7-0.3,1.4-0.4,2.1-0.4s1.5,0.1,2.2,0.4c0.6,0.3,1.2,0.7,1.6,1.2
			c0.4,0.5,0.8,1.1,1,1.7c0.2,0.7,0.3,1.4,0.3,2.1v0.7L30.4-103.6z M37.6-104.8c0.1-1.8-1.2-3.3-3-3.4c-0.2,0-0.3,0-0.5,0
			c-0.5,0-1,0.1-1.4,0.3c-0.4,0.2-0.8,0.4-1.2,0.8c-0.3,0.3-0.6,0.7-0.8,1.1c-0.2,0.4-0.3,0.8-0.3,1.3L37.6-104.8z"/>
	</g>
	<g id="Groupe_176" transform="translate(82.355 6.594)">
		<path id="Tracé_99" class="st0" d="M30.3-109.3c0,0.3,0.1,0.6,0.1,0.9s0,0.6,0,0.9l0,0c0.2-0.3,0.4-0.6,0.6-0.8
			c0.3-0.2,0.6-0.5,0.9-0.6c0.3-0.2,0.7-0.3,1-0.4c1.4-0.4,3,0,4.1,0.9c0.7,0.9,1.1,2,1,3.1v6.8h-1.5v-5.9c0.1-1-0.2-1.9-0.6-2.7
			c-0.5-0.7-1.4-1.1-2.3-1c-0.2,0-0.4,0-0.6,0.1c-0.4,0.1-0.8,0.3-1.1,0.5c-0.4,0.3-0.8,0.8-1,1.2c-0.3,0.7-0.5,1.5-0.5,2.3v5.5
			h-1.5v-8.4c0-0.3,0-0.7,0-1.1s-0.1-0.9-0.1-1.3H30.3L30.3-109.3z"/>
	</g>
	<g id="Groupe_177" transform="translate(94.657 6.593)">
		<path id="Tracé_100" class="st0" d="M37.1-106.8c-0.3-0.4-0.7-0.8-1.1-1c-0.5-0.3-1-0.4-1.6-0.4c-0.6,0-1.2,0.1-1.7,0.3
			c-0.5,0.2-0.9,0.5-1.3,0.9s-0.6,0.9-0.8,1.4c-0.2,0.5-0.3,1.1-0.3,1.7s0.1,1.2,0.3,1.7c0.2,0.5,0.4,1,0.8,1.4s0.8,0.7,1.3,0.9
			c0.5,0.2,1.1,0.3,1.7,0.3c0.6,0,1.1-0.1,1.6-0.4c0.4-0.2,0.8-0.6,1.1-1l1.2,0.9c-0.5,0.6-1.1,1.1-1.8,1.4s-1.4,0.5-2.1,0.5
			c-0.8,0-1.6-0.1-2.4-0.4c-1.4-0.5-2.4-1.6-2.9-3c-0.5-1.5-0.5-3.1,0-4.5c0.2-0.7,0.6-1.3,1.1-1.8s1.1-0.9,1.8-1.2
			c0.8-0.3,1.6-0.4,2.4-0.4c0.7,0,1.4,0.2,2.1,0.5s1.3,0.8,1.8,1.4L37.1-106.8z"/>
	</g>
	<g id="Groupe_178" transform="translate(105.683 6.587)">
		<path id="Tracé_101" class="st0" d="M30.4-103.6c0,0.5,0.2,1,0.4,1.5c0.2,0.5,0.5,0.9,0.8,1.2c0.4,0.3,0.8,0.6,1.2,0.8
			c0.5,0.2,1,0.3,1.5,0.3c0.7,0,1.5-0.2,2.1-0.6c0.5-0.3,1-0.8,1.3-1.3l1.2,1c-0.6,0.7-1.3,1.3-2.1,1.7c-0.8,0.4-1.6,0.5-2.5,0.5
			c-0.8,0-1.5-0.1-2.2-0.4c-0.7-0.3-1.3-0.7-1.8-1.2s-0.9-1.1-1.2-1.8c-0.3-0.7-0.4-1.5-0.4-2.2c0-0.8,0.1-1.5,0.4-2.2
			s0.7-1.3,1.1-1.8c0.5-0.5,1.1-0.9,1.7-1.2c0.7-0.3,1.4-0.4,2.1-0.4s1.5,0.1,2.2,0.4c0.6,0.3,1.2,0.7,1.6,1.2
			c0.4,0.5,0.8,1.1,1,1.7c0.2,0.7,0.3,1.4,0.3,2.1v0.7L30.4-103.6z M37.6-104.8c0.1-1.8-1.2-3.3-3-3.4c-0.2,0-0.3,0-0.5,0
			c-0.5,0-1,0.1-1.4,0.3c-0.4,0.2-0.8,0.4-1.2,0.8c-0.3,0.3-0.6,0.7-0.8,1.1c-0.2,0.4-0.3,0.8-0.3,1.3L37.6-104.8z"/>
	</g>
	<g id="Groupe_179" transform="translate(124.801 6.594)">
		<path id="Tracé_102" class="st0" d="M40.1-104c0,0.8-0.1,1.5-0.4,2.2c-0.5,1.4-1.6,2.4-3,3c-0.7,0.3-1.5,0.4-2.3,0.4
			s-1.6-0.1-2.3-0.4c-0.7-0.3-1.3-0.7-1.8-1.2s-0.9-1.1-1.2-1.8c-0.3-0.7-0.4-1.5-0.4-2.2c0-0.8,0.1-1.5,0.4-2.2s0.7-1.3,1.2-1.8
			s1.1-0.9,1.8-1.2c0.7-0.3,1.5-0.4,2.3-0.4s1.6,0.1,2.3,0.4c0.7,0.3,1.3,0.7,1.8,1.2s0.9,1.1,1.2,1.8C40-105.5,40.1-104.7,40.1-104
			z M38.5-104c0-0.6-0.1-1.1-0.3-1.7c-0.2-0.5-0.5-1-0.8-1.4c-0.4-0.4-0.8-0.7-1.3-0.9c-0.5-0.2-1.1-0.3-1.7-0.3
			c-0.6,0-1.2,0.1-1.7,0.3c-0.5,0.2-0.9,0.5-1.3,0.9s-0.6,0.9-0.8,1.4c-0.4,1.1-0.4,2.3,0,3.4c0.2,0.5,0.4,1,0.8,1.4
			s0.8,0.7,1.3,0.9c1.1,0.4,2.3,0.4,3.4,0c0.5-0.2,0.9-0.5,1.3-0.9c0.4-0.4,0.6-0.9,0.8-1.4S38.5-103.4,38.5-104L38.5-104z"/>
	</g>
	<g id="Groupe_180" transform="translate(138.834 6.594)">
		<path id="Tracé_103" class="st0" d="M30.3-109.3c0,0.3,0.1,0.6,0.1,0.9s0,0.6,0,0.9l0,0c0.2-0.3,0.4-0.6,0.6-0.8
			c0.3-0.2,0.6-0.5,0.9-0.6c0.3-0.2,0.7-0.3,1-0.4c1.4-0.4,3,0,4.1,0.9c0.7,0.9,1.1,2,1,3.1v6.8h-1.5v-5.9c0.1-1-0.2-1.9-0.6-2.7
			c-0.5-0.7-1.4-1.1-2.3-1c-0.2,0-0.4,0-0.6,0.1c-0.4,0.1-0.8,0.3-1.1,0.5c-0.4,0.3-0.8,0.8-1,1.2c-0.3,0.7-0.5,1.5-0.5,2.3v5.5
			h-1.5v-8.4c0-0.3,0-0.7,0-1.1s-0.1-0.9-0.1-1.3H30.3L30.3-109.3z"/>
	</g>
	<g id="Groupe_181" transform="translate(157.536 0.952)">
		<path id="Tracé_104" class="st0" d="M37.5-106.5c-0.7-1-1.9-1.6-3.1-1.6c-0.4,0-0.8,0.1-1.3,0.2c-0.4,0.1-0.8,0.3-1.1,0.5
			c-0.3,0.2-0.6,0.6-0.8,0.9c-0.2,0.4-0.3,0.9-0.3,1.3c0,0.6,0.2,1.2,0.6,1.7c0.4,0.4,1,0.8,1.5,1c0.7,0.3,1.3,0.5,2,0.7
			s1.4,0.5,2,0.8c0.6,0.3,1.1,0.8,1.5,1.4c0.4,0.7,0.7,1.5,0.6,2.3c0,0.7-0.2,1.4-0.5,2s-0.7,1.1-1.2,1.5s-1.1,0.7-1.7,0.9
			c-0.6,0.2-1.3,0.3-1.9,0.3c-1,0-1.9-0.2-2.8-0.6s-1.7-1-2.3-1.8l1.5-1.1c0.4,0.6,0.9,1.1,1.5,1.4c0.7,0.4,1.4,0.6,2.2,0.5
			c0.4,0,0.8-0.1,1.2-0.2s0.8-0.3,1.1-0.6c0.3-0.3,0.6-0.6,0.8-0.9c0.2-0.4,0.3-0.8,0.3-1.3s-0.1-1-0.4-1.4
			c-0.2-0.4-0.6-0.7-0.9-0.9c-0.4-0.3-0.9-0.5-1.3-0.6c-0.5-0.2-1-0.3-1.5-0.5s-1-0.4-1.5-0.6c-0.5-0.2-0.9-0.5-1.3-0.8
			s-0.7-0.8-0.9-1.2c-0.3-0.6-0.4-1.2-0.4-1.9c0-0.7,0.1-1.4,0.4-2s0.7-1.1,1.2-1.4c0.5-0.4,1.1-0.7,1.7-0.8
			c0.6-0.2,1.3-0.3,1.9-0.3c0.9,0,1.7,0.1,2.5,0.4s1.5,0.9,2.1,1.5L37.5-106.5z"/>
	</g>
	<g id="Groupe_182" transform="translate(170.668 6.609)">
		<path id="Tracé_105" class="st0" d="M28.9-107c0-0.4,0-0.8,0-1.2s0-0.8-0.1-1.2h1.6v1.6l0,0c0.4-0.6,0.9-1.1,1.5-1.4
			c0.6-0.3,1.3-0.5,1.9-0.5c0.3,0,0.6,0,0.9,0.1s0.7,0.2,1,0.3c0.3,0.2,0.6,0.4,0.9,0.7c0.3,0.3,0.5,0.7,0.7,1.1
			c0.3-0.7,0.8-1.3,1.5-1.6c0.6-0.4,1.3-0.6,2.1-0.6c1.1-0.1,2.2,0.3,3,1.1c0.7,0.9,1.1,2,1,3.1v6.8h-1.5v-6.3
			c0.1-0.9-0.1-1.7-0.6-2.5c-0.5-0.6-1.3-1-2.1-0.9c-0.5,0-1,0.1-1.4,0.3c-0.4,0.2-0.7,0.5-0.9,0.9c-0.2,0.4-0.4,0.8-0.5,1.2
			c-0.1,0.5-0.2,1-0.2,1.5v5.7h-1.5v-6.3c0.1-0.9-0.1-1.7-0.6-2.5c-0.5-0.6-1.3-1-2.1-0.9c-0.2,0-0.4,0-0.6,0.1
			c-0.4,0.1-0.7,0.3-1,0.5c-0.4,0.3-0.7,0.8-1,1.2c-0.3,0.7-0.5,1.5-0.4,2.3v5.5h-1.6V-107L28.9-107z"/>
	</g>
	<g id="Groupe_183" transform="translate(189.764 6.602)">
		<path id="Tracé_106" class="st0" d="M36.2-105.2v-0.3c0.2-1.3-0.7-2.6-2.1-2.8c-0.2,0-0.5,0-0.7,0c-1.2,0-2.4,0.4-3.3,1.3
			l-0.9-1.1c1.2-1.1,2.9-1.7,4.5-1.6c0.5,0,1,0.1,1.5,0.2s0.9,0.4,1.2,0.7c0.4,0.3,0.7,0.7,0.8,1.2c0.2,0.5,0.3,1.1,0.3,1.7v4.8
			c0,0.4,0,0.8,0.1,1.3c0.1,0.5,0.1,0.8,0.1,1.1h-1.5c0-0.3-0.1-0.5-0.1-0.8s0-0.6,0-0.9l0,0c-0.4,0.6-0.9,1.2-1.6,1.5
			s-1.4,0.5-2.2,0.5c-0.5,0-0.9-0.1-1.4-0.2c-0.4-0.1-0.8-0.3-1.2-0.6c-0.3-0.3-0.6-0.6-0.8-1c-0.2-0.4-0.3-0.9-0.3-1.4
			c0-0.7,0.2-1.5,0.7-2s1.1-0.9,1.7-1.1c0.7-0.2,1.4-0.4,2.2-0.5s1.5-0.1,2.1-0.1L36.2-105.2L36.2-105.2z M35.4-104
			c-0.4,0-0.9,0-1.4,0.1c-0.6,0-1.1,0.1-1.6,0.3c-0.5,0.1-1,0.4-1.4,0.7c-0.4,0.3-0.6,0.8-0.6,1.3c0,0.3,0.1,0.6,0.2,0.9
			s0.3,0.5,0.6,0.6c0.3,0.2,0.5,0.3,0.8,0.3c0.3,0.1,0.6,0.1,0.9,0.1c0.5,0,1-0.1,1.4-0.3c0.4-0.2,0.7-0.4,1-0.7
			c0.3-0.3,0.5-0.7,0.6-1.1c0.1-0.4,0.2-0.9,0.2-1.3v-0.8L35.4-104L35.4-104z"/>
	</g>
	<g id="Groupe_184" transform="translate(202.266 6.587)">
		<path id="Tracé_107" class="st0" d="M28.8-106c0-0.5,0-1,0-1.4s0-1.1-0.1-1.9h1.5v2l0,0c0.1-0.3,0.3-0.6,0.5-0.8
			c0.2-0.3,0.4-0.5,0.7-0.7c0.3-0.2,0.6-0.4,1-0.5c0.4-0.1,0.8-0.2,1.3-0.2c0.4,0,0.8,0,1.1,0.1l-0.3,1.5c-0.3-0.1-0.6-0.1-0.9-0.1
			c-0.5,0-1,0.1-1.5,0.3c-0.4,0.2-0.7,0.5-1,0.8s-0.5,0.7-0.6,1.1s-0.2,0.8-0.2,1.1v6h-1.5V-106L28.8-106z"/>
	</g>
	<g id="Groupe_185" transform="translate(208.481 3.838)">
		<path id="Tracé_108" class="st0" d="M35.6-105.2h-3.1v6.3c0,0.3,0,0.7,0.1,1c0.1,0.2,0.2,0.4,0.3,0.6c0.1,0.1,0.3,0.2,0.5,0.3
			c0.2,0.1,0.4,0.1,0.6,0.1c0.3,0,0.5,0,0.8-0.1s0.5-0.2,0.8-0.3l0.1,1.4c-0.6,0.3-1.3,0.4-2,0.4c-0.3,0-0.6,0-0.9-0.1
			s-0.6-0.2-0.9-0.4c-0.3-0.2-0.5-0.5-0.6-0.9c-0.2-0.5-0.3-1-0.3-1.4v-6.8h-2.3v-1.4H31v-3h1.5v3h3.1V-105.2L35.6-105.2z"/>
	</g>
	<g id="Groupe_186" transform="translate(224.34 1.375)">
		<path id="Tracé_109" class="st0" d="M36.7-96.4l5.5-13.2h2.5v16.2h-1.6v-14l0,0l-5.9,14h-0.9l-5.9-14l0,0v14h-1.6v-16.2h2.5
			L36.7-96.4z"/>
	</g>
	<g id="Groupe_187" transform="translate(243.615 6.587)">
		<path id="Tracé_110" class="st0" d="M30.4-103.6c0,0.5,0.2,1,0.4,1.5c0.2,0.5,0.5,0.9,0.8,1.2c0.4,0.3,0.8,0.6,1.2,0.8
			c0.5,0.2,1,0.3,1.5,0.3c0.7,0,1.5-0.2,2.1-0.6c0.5-0.3,1-0.8,1.3-1.3l1.2,1c-0.6,0.7-1.3,1.3-2.1,1.7c-0.8,0.4-1.6,0.5-2.5,0.5
			c-0.8,0-1.5-0.1-2.2-0.4c-0.7-0.3-1.3-0.7-1.8-1.2s-0.9-1.1-1.2-1.8c-0.3-0.7-0.4-1.5-0.4-2.2c0-0.8,0.1-1.5,0.4-2.2
			s0.7-1.3,1.1-1.8c0.5-0.5,1.1-0.9,1.7-1.2c0.7-0.3,1.4-0.4,2.1-0.4s1.5,0.1,2.2,0.4c0.6,0.3,1.2,0.7,1.6,1.2
			c0.4,0.5,0.8,1.1,1,1.7c0.2,0.7,0.3,1.4,0.3,2.1v0.7L30.4-103.6z M37.6-104.8c0.1-1.8-1.2-3.3-3-3.4c-0.2,0-0.3,0-0.5,0
			c-0.5,0-1,0.1-1.4,0.3c-0.4,0.2-0.8,0.4-1.2,0.8c-0.3,0.3-0.6,0.7-0.8,1.1c-0.2,0.4-0.3,0.8-0.3,1.3L37.6-104.8z"/>
	</g>
	<g id="Groupe_188" transform="translate(255.587 3.838)">
		<path id="Tracé_111" class="st0" d="M35.6-105.2h-3.1v6.3c0,0.3,0,0.7,0.1,1c0.1,0.2,0.2,0.4,0.3,0.6c0.1,0.1,0.3,0.2,0.5,0.3
			c0.2,0.1,0.4,0.1,0.6,0.1c0.3,0,0.5,0,0.8-0.1s0.5-0.2,0.8-0.3l0.1,1.4c-0.6,0.3-1.3,0.4-2,0.4c-0.3,0-0.6,0-0.9-0.1
			s-0.6-0.2-0.9-0.4c-0.3-0.2-0.5-0.5-0.6-0.9c-0.2-0.5-0.3-1-0.3-1.4v-6.8h-2.3v-1.4H31v-3h1.5v3h3.1V-105.2L35.6-105.2z"/>
	</g>
	<g id="Groupe_189" transform="translate(263.971 6.602)">
		<path id="Tracé_112" class="st0" d="M36.2-105.2v-0.3c0.2-1.3-0.7-2.6-2.1-2.8c-0.2,0-0.5,0-0.7,0c-1.2,0-2.4,0.4-3.3,1.3
			l-0.9-1.1c1.2-1.1,2.9-1.7,4.5-1.6c0.5,0,1,0.1,1.5,0.2s0.9,0.4,1.2,0.7c0.4,0.3,0.7,0.7,0.8,1.2c0.2,0.5,0.3,1.1,0.3,1.7v4.8
			c0,0.4,0,0.8,0.1,1.3c0.1,0.5,0.1,0.8,0.1,1.1h-1.5c0-0.3-0.1-0.5-0.1-0.8s0-0.6,0-0.9l0,0c-0.4,0.6-0.9,1.2-1.6,1.5
			s-1.4,0.5-2.2,0.5c-0.5,0-0.9-0.1-1.4-0.2c-0.4-0.1-0.8-0.3-1.2-0.6c-0.3-0.3-0.6-0.6-0.8-1c-0.2-0.4-0.3-0.9-0.3-1.4
			c0-0.7,0.2-1.5,0.7-2s1.1-0.9,1.7-1.1c0.7-0.2,1.4-0.4,2.2-0.5c0.8-0.1,1.5-0.1,2.1-0.1L36.2-105.2L36.2-105.2z M35.4-104
			c-0.4,0-0.9,0-1.4,0.1c-0.6,0-1.1,0.1-1.6,0.3c-0.5,0.1-1,0.4-1.4,0.7c-0.4,0.3-0.6,0.8-0.6,1.3c0,0.3,0.1,0.6,0.2,0.9
			s0.3,0.5,0.6,0.6c0.3,0.2,0.5,0.3,0.8,0.3c0.3,0.1,0.6,0.1,0.9,0.1c0.5,0,1-0.1,1.4-0.3c0.4-0.2,0.7-0.4,1-0.7
			c0.3-0.3,0.5-0.7,0.6-1.1c0.1-0.4,0.2-0.9,0.2-1.3v-0.8L35.4-104L35.4-104z"/>
	</g>
	<g id="Groupe_190" transform="translate(275.685 0.265)">
		<path id="Tracé_113" class="st0" d="M40.2-92.3h-1.5v-1.8l0,0c-0.2,0.4-0.5,0.7-0.9,0.9c-0.3,0.3-0.7,0.5-1.1,0.6
			c-0.4,0.2-0.7,0.3-1.1,0.4c-0.4,0.1-0.7,0.1-1.1,0.1c-0.8,0-1.6-0.1-2.3-0.4c-0.7-0.3-1.3-0.7-1.8-1.2s-0.9-1.1-1.2-1.8
			c-0.3-0.7-0.4-1.5-0.4-2.2c0-0.8,0.1-1.5,0.4-2.2s0.7-1.3,1.2-1.8s1.1-0.9,1.8-1.2c0.7-0.3,1.5-0.4,2.3-0.4c0.4,0,0.7,0,1.1,0.1
			c0.8,0.2,1.5,0.5,2.2,1c0.3,0.3,0.6,0.6,0.9,0.9l0,0v-8.4h1.5V-92.3z M30.4-97.6c0,0.6,0.1,1.1,0.3,1.7c0.2,0.5,0.5,1,0.8,1.4
			c0.4,0.4,0.8,0.7,1.3,0.9c0.5,0.2,1.1,0.3,1.7,0.3c0.6,0,1.2-0.1,1.7-0.3c0.5-0.2,1-0.5,1.4-0.9c0.4-0.4,0.7-0.8,0.9-1.4
			c0.4-1.1,0.4-2.3,0-3.4c-0.4-1-1.2-1.8-2.3-2.3c-0.5-0.2-1.1-0.3-1.7-0.3c-0.6,0-1.2,0.1-1.7,0.3c-0.5,0.2-0.9,0.5-1.3,0.9
			s-0.6,0.9-0.8,1.4C30.5-98.8,30.4-98.2,30.4-97.6z"/>
	</g>
	<g id="Groupe_191" transform="translate(289.862 6.602)">
		<path id="Tracé_114" class="st0" d="M36.2-105.2v-0.3c0.2-1.3-0.7-2.6-2.1-2.8c-0.2,0-0.5,0-0.7,0c-1.2,0-2.4,0.4-3.3,1.3
			l-0.9-1.1c1.2-1.1,2.9-1.7,4.5-1.6c0.5,0,1,0.1,1.5,0.2s0.9,0.4,1.2,0.7c0.4,0.3,0.7,0.7,0.8,1.2c0.2,0.5,0.3,1.1,0.3,1.7v4.8
			c0,0.4,0,0.8,0.1,1.3c0.1,0.5,0.1,0.8,0.1,1.1h-1.5c0-0.3-0.1-0.5-0.1-0.8s0-0.6,0-0.9l0,0c-0.4,0.6-0.9,1.2-1.6,1.5
			s-1.4,0.5-2.2,0.5c-0.5,0-0.9-0.1-1.4-0.2c-0.4-0.1-0.8-0.3-1.2-0.6c-0.3-0.3-0.6-0.6-0.8-1c-0.2-0.4-0.3-0.9-0.3-1.4
			c0-0.7,0.2-1.5,0.7-2s1.1-0.9,1.7-1.1c0.7-0.2,1.4-0.4,2.2-0.5s1.5-0.1,2.1-0.1L36.2-105.2L36.2-105.2z M35.4-104
			c-0.4,0-0.9,0-1.4,0.1c-0.6,0-1.1,0.1-1.6,0.3c-0.5,0.1-1,0.4-1.4,0.7c-0.4,0.3-0.6,0.8-0.6,1.3c0,0.3,0.1,0.6,0.2,0.9
			s0.3,0.5,0.6,0.6c0.3,0.2,0.5,0.3,0.8,0.3c0.3,0.1,0.6,0.1,0.9,0.1c0.5,0,1-0.1,1.4-0.3c0.4-0.2,0.7-0.4,1-0.7
			c0.3-0.3,0.5-0.7,0.6-1.1c0.1-0.4,0.2-0.9,0.2-1.3v-0.8L35.4-104L35.4-104z"/>
	</g>
	<g id="Groupe_192" transform="translate(300.975 3.838)">
		<path id="Tracé_115" class="st0" d="M35.6-105.2h-3.1v6.3c0,0.3,0,0.7,0.1,1c0.1,0.2,0.2,0.4,0.3,0.6c0.1,0.1,0.3,0.2,0.5,0.3
			c0.2,0.1,0.4,0.1,0.6,0.1c0.3,0,0.5,0,0.8-0.1s0.5-0.2,0.8-0.3l0.1,1.4c-0.6,0.3-1.3,0.4-2,0.4c-0.3,0-0.6,0-0.9-0.1
			s-0.6-0.2-0.9-0.4c-0.3-0.2-0.5-0.5-0.6-0.9c-0.2-0.5-0.3-1-0.3-1.4v-6.8h-2.3v-1.4H31v-3h1.5v3h3.1V-105.2L35.6-105.2z"/>
	</g>
	<g id="Groupe_193" transform="translate(309.366 6.602)">
		<path id="Tracé_116" class="st0" d="M36.2-105.2v-0.3c0.2-1.3-0.7-2.6-2.1-2.8c-0.2,0-0.5,0-0.7,0c-1.2,0-2.4,0.4-3.3,1.3
			l-0.9-1.1c1.2-1.1,2.9-1.7,4.5-1.6c0.5,0,1,0.1,1.5,0.2s0.9,0.4,1.2,0.7c0.4,0.3,0.6,0.7,0.8,1.2c0.2,0.5,0.3,1.1,0.3,1.7v4.8
			c0,0.4,0,0.8,0.1,1.3c0.1,0.5,0.1,0.8,0.1,1.1h-1.5c0-0.3-0.1-0.5-0.1-0.8s0-0.6,0-0.9l0,0c-0.4,0.6-0.9,1.2-1.6,1.5
			s-1.4,0.5-2.2,0.5c-0.5,0-0.9-0.1-1.4-0.2c-0.4-0.1-0.8-0.3-1.2-0.6c-0.3-0.3-0.6-0.6-0.8-1c-0.2-0.4-0.3-0.9-0.3-1.4
			c0-0.7,0.2-1.5,0.7-2s1.1-0.9,1.7-1.1c0.7-0.2,1.4-0.4,2.2-0.5c0.8-0.1,1.5-0.1,2.1-0.1L36.2-105.2L36.2-105.2z M35.4-104
			c-0.4,0-0.9,0-1.4,0.1c-0.6,0-1.1,0.1-1.6,0.3c-0.5,0.1-1,0.4-1.4,0.7c-0.4,0.3-0.6,0.8-0.6,1.3c0,0.3,0.1,0.6,0.2,0.9
			s0.3,0.5,0.6,0.6c0.3,0.2,0.5,0.3,0.8,0.3c0.3,0.1,0.6,0.1,0.9,0.1c0.5,0,1-0.1,1.4-0.3c0.4-0.2,0.7-0.4,1-0.7
			c0.3-0.3,0.5-0.7,0.6-1.1c0.1-0.4,0.2-0.9,0.2-1.3v-0.8L35.4-104L35.4-104z"/>
	</g>
</g>
<g id="Groupe_216" transform="translate(167.111 260.48)">
	<g id="Groupe_195" transform="translate(0)">
		<path id="Tracé_117" class="st0" d="M35.1-101.4h-2.5v9.4h-1.5v-9.4h-2.3v-1.4h2.3v-2.9c-0.1-1.1,0.2-2.2,1-3
			c0.7-0.6,1.7-0.9,2.6-0.9c0.2,0,0.4,0,0.7,0c0.2,0,0.4,0.1,0.7,0.1l-0.3,1.4c-0.2,0-0.4-0.1-0.6-0.1s-0.4,0-0.6,0
			c-0.3,0-0.7,0.1-1,0.2s-0.5,0.3-0.6,0.6c-0.1,0.3-0.2,0.6-0.3,0.9c0,0.4-0.1,0.7-0.1,1.1v2.7h2.5L35.1-101.4L35.1-101.4z"/>
	</g>
	<g id="Groupe_196" transform="translate(7.561 6.594)">
		<path id="Tracé_118" class="st0" d="M40.1-104c0,0.8-0.1,1.5-0.4,2.2c-0.5,1.4-1.6,2.4-3,3c-0.7,0.3-1.5,0.4-2.3,0.4
			s-1.6-0.1-2.3-0.4c-0.7-0.3-1.3-0.7-1.8-1.2s-0.9-1.1-1.2-1.8c-0.3-0.7-0.4-1.5-0.4-2.2c0-0.8,0.1-1.5,0.4-2.2s0.7-1.3,1.2-1.8
			s1.1-0.9,1.8-1.2c0.7-0.3,1.5-0.4,2.3-0.4s1.6,0.1,2.3,0.4s1.3,0.7,1.8,1.2s0.9,1.1,1.2,1.8C40-105.5,40.1-104.7,40.1-104z
			 M38.5-104c0-0.6-0.1-1.1-0.3-1.7c-0.2-0.5-0.5-1-0.8-1.4c-0.4-0.4-0.8-0.7-1.3-0.9c-0.5-0.2-1.1-0.3-1.7-0.3
			c-0.6,0-1.2,0.1-1.7,0.3c-0.5,0.2-0.9,0.5-1.3,0.9s-0.6,0.9-0.8,1.4c-0.4,1.1-0.4,2.3,0,3.4c0.2,0.5,0.4,1,0.8,1.4
			s0.8,0.7,1.3,0.9c1.1,0.4,2.3,0.4,3.4,0c0.5-0.2,0.9-0.5,1.3-0.9c0.4-0.4,0.6-0.9,0.8-1.4C38.4-102.8,38.5-103.4,38.5-104
			L38.5-104z"/>
	</g>
	<g id="Groupe_197" transform="translate(21.767 6.587)">
		<path id="Tracé_119" class="st0" d="M28.8-106c0-0.5,0-1,0-1.4s0-1.1-0.1-1.9h1.5v2l0,0c0.1-0.3,0.3-0.6,0.5-0.8
			c0.2-0.3,0.4-0.5,0.7-0.7c0.3-0.2,0.6-0.4,1-0.5c0.4-0.1,0.8-0.2,1.3-0.2c0.4,0,0.8,0,1.1,0.1l-0.3,1.5c-0.3-0.1-0.6-0.1-0.9-0.1
			c-0.5,0-1,0.1-1.5,0.3c-0.4,0.2-0.7,0.5-1,0.8s-0.5,0.7-0.6,1.1s-0.2,0.8-0.2,1.1v6h-1.5V-106L28.8-106z"/>
	</g>
	<g id="Groupe_198" transform="translate(35.12 0.959)">
		<path id="Tracé_120" class="st0" d="M45.7-101.1c0,1.2-0.2,2.3-0.6,3.4c-0.8,2-2.4,3.6-4.5,4.5c-2.2,0.9-4.6,0.9-6.7,0
			c-2-0.8-3.6-2.4-4.5-4.5c-0.9-2.2-0.9-4.6,0-6.8c0.8-2,2.4-3.6,4.5-4.5c2.2-0.9,4.6-0.9,6.7,0c2,0.8,3.6,2.4,4.5,4.5
			C45.5-103.4,45.7-102.3,45.7-101.1z M43.9-101.1c0-0.9-0.2-1.8-0.5-2.7c-0.3-0.8-0.7-1.6-1.3-2.2c-0.6-0.7-1.3-1.2-2.1-1.5
			c-1.8-0.8-3.8-0.8-5.6,0c-0.8,0.4-1.5,0.9-2.1,1.5c-0.6,0.7-1,1.4-1.3,2.2c-0.6,1.7-0.6,3.6,0,5.3c0.3,0.8,0.7,1.6,1.3,2.2
			c0.6,0.7,1.3,1.2,2.1,1.5c1.8,0.8,3.8,0.8,5.6,0c0.8-0.4,1.5-0.9,2.1-1.5c0.6-0.7,1-1.4,1.3-2.2C43.7-99.3,43.9-100.2,43.9-101.1
			L43.9-101.1z"/>
	</g>
	<g id="Groupe_199" transform="translate(53.457)">
		<path id="Tracé_121" class="st0" d="M35.1-101.4h-2.5v9.4h-1.5v-9.4h-2.3v-1.4h2.3v-2.9c-0.1-1.1,0.2-2.2,1-3
			c0.7-0.6,1.7-0.9,2.6-0.9c0.2,0,0.4,0,0.7,0c0.2,0,0.4,0.1,0.7,0.1l-0.3,1.4c-0.2,0-0.4-0.1-0.6-0.1s-0.4,0-0.6,0
			c-0.3,0-0.7,0.1-1,0.2s-0.5,0.3-0.6,0.6c-0.1,0.3-0.2,0.6-0.3,0.9c0,0.4-0.1,0.7-0.1,1.1v2.7h2.5L35.1-101.4L35.1-101.4z"/>
	</g>
	<g id="Groupe_200" transform="translate(59.823)">
		<path id="Tracé_122" class="st0" d="M35.1-101.4h-2.5v9.4h-1.5v-9.4h-2.3v-1.4h2.3v-2.9c-0.1-1.1,0.2-2.2,1-3
			c0.7-0.6,1.7-0.9,2.6-0.9c0.2,0,0.4,0,0.7,0c0.2,0,0.4,0.1,0.7,0.1l-0.3,1.4c-0.2,0-0.4-0.1-0.6-0.1s-0.4,0-0.6,0
			c-0.3,0-0.7,0.1-1,0.2s-0.5,0.3-0.6,0.6c-0.1,0.3-0.2,0.6-0.3,0.9c0,0.4-0.1,0.7-0.1,1.1v2.7h2.5L35.1-101.4L35.1-101.4z"/>
	</g>
	<g id="Groupe_201" transform="translate(67.928 1.654)">
		<path id="Tracé_123" class="st0" d="M31-108.5c0,0.3-0.1,0.6-0.3,0.8c-0.2,0.2-0.5,0.3-0.8,0.3s-0.6-0.1-0.8-0.3
			c-0.2-0.2-0.4-0.5-0.3-0.8c0-0.3,0.1-0.6,0.3-0.8c0.2-0.2,0.5-0.3,0.8-0.3s0.6,0.1,0.8,0.3C30.8-109.1,31-108.8,31-108.5z
			 M30.6-93.7h-1.5v-10.7h1.5V-93.7z"/>
	</g>
	<g id="Groupe_202" transform="translate(72.89 6.593)">
		<path id="Tracé_124" class="st0" d="M37.1-106.8c-0.3-0.4-0.7-0.8-1.1-1c-0.5-0.3-1-0.4-1.6-0.4c-0.6,0-1.2,0.1-1.7,0.3
			c-0.5,0.2-0.9,0.5-1.3,0.9s-0.6,0.9-0.8,1.4c-0.2,0.5-0.3,1.1-0.3,1.7s0.1,1.2,0.3,1.7c0.2,0.5,0.4,1,0.8,1.4s0.8,0.7,1.3,0.9
			c0.5,0.2,1.1,0.3,1.7,0.3c0.6,0,1.1-0.1,1.6-0.4c0.4-0.2,0.8-0.6,1.1-1l1.2,0.9c-0.5,0.6-1.1,1.1-1.8,1.4s-1.4,0.5-2.1,0.5
			c-0.8,0-1.6-0.1-2.4-0.4c-1.4-0.5-2.4-1.6-2.9-3c-0.5-1.5-0.5-3.1,0-4.5c0.2-0.7,0.6-1.3,1.1-1.8s1.1-0.9,1.8-1.2
			c0.8-0.3,1.6-0.4,2.4-0.4c0.7,0,1.4,0.2,2.1,0.5s1.3,0.8,1.8,1.4L37.1-106.8z"/>
	</g>
	<g id="Groupe_203" transform="translate(84.468 1.654)">
		<path id="Tracé_125" class="st0" d="M31-108.5c0,0.3-0.1,0.6-0.3,0.8c-0.2,0.2-0.5,0.3-0.8,0.3s-0.6-0.1-0.8-0.3
			c-0.2-0.2-0.4-0.5-0.3-0.8c0-0.3,0.1-0.6,0.3-0.8c0.2-0.2,0.5-0.3,0.8-0.3s0.6,0.1,0.8,0.3C30.8-109.1,31-108.8,31-108.5z
			 M30.6-93.7h-1.5v-10.7h1.5V-93.7z"/>
	</g>
	<g id="Groupe_204" transform="translate(89.43 6.602)">
		<path id="Tracé_126" class="st0" d="M36.2-105.2v-0.3c0.2-1.3-0.7-2.6-2.1-2.8c-0.2,0-0.5,0-0.7,0c-1.2,0-2.4,0.4-3.3,1.3
			l-0.9-1.1c1.2-1.1,2.9-1.7,4.5-1.6c0.5,0,1,0.1,1.5,0.2s0.9,0.4,1.2,0.7c0.4,0.3,0.7,0.7,0.8,1.2c0.2,0.5,0.3,1.1,0.3,1.7v4.8
			c0,0.4,0,0.8,0.1,1.3c0.1,0.5,0.1,0.8,0.1,1.1h-1.5c0-0.3-0.1-0.5-0.1-0.8s0-0.6,0-0.9l0,0c-0.4,0.6-0.9,1.2-1.6,1.5
			s-1.4,0.5-2.2,0.5c-0.5,0-0.9-0.1-1.4-0.2c-0.4-0.1-0.8-0.3-1.2-0.6c-0.3-0.3-0.6-0.6-0.8-1c-0.2-0.4-0.3-0.9-0.3-1.4
			c0-0.7,0.2-1.5,0.7-2s1.1-0.9,1.7-1.1c0.7-0.2,1.4-0.4,2.2-0.5c0.8-0.1,1.5-0.1,2.1-0.1L36.2-105.2L36.2-105.2z M35.4-104
			c-0.4,0-0.9,0-1.4,0.1c-0.6,0-1.1,0.1-1.6,0.3c-0.5,0.1-1,0.4-1.4,0.7c-0.4,0.3-0.6,0.8-0.6,1.3c0,0.3,0.1,0.6,0.2,0.9
			s0.3,0.5,0.6,0.6c0.3,0.2,0.5,0.3,0.8,0.3c0.3,0.1,0.6,0.1,0.9,0.1c0.5,0,1-0.1,1.4-0.3c0.4-0.2,0.7-0.4,1-0.7
			c0.3-0.3,0.5-0.7,0.6-1.1c0.1-0.4,0.2-0.9,0.2-1.3v-0.8L35.4-104L35.4-104z"/>
	</g>
	<g id="Groupe_205" transform="translate(102.21 0.279)">
		<path id="Tracé_127" class="st0" d="M30.3-92.3h-1.5v-17.3h1.5V-92.3z"/>
	</g>
	<g id="Groupe_206" transform="translate(113.223 0.952)">
		<path id="Tracé_128" class="st0" d="M37.5-106.5c-0.7-1-1.9-1.6-3.1-1.6c-0.4,0-0.8,0.1-1.3,0.2c-0.4,0.1-0.8,0.3-1.1,0.5
			c-0.3,0.2-0.6,0.6-0.8,0.9c-0.2,0.4-0.3,0.9-0.3,1.3c0,0.6,0.2,1.2,0.6,1.7c0.4,0.4,1,0.8,1.5,1c0.7,0.3,1.3,0.5,2,0.7
			s1.4,0.5,2,0.8c0.6,0.3,1.1,0.8,1.5,1.4c0.4,0.7,0.7,1.5,0.6,2.3c0,0.7-0.2,1.4-0.5,2s-0.7,1.1-1.2,1.5s-1.1,0.7-1.7,0.9
			c-0.6,0.2-1.3,0.3-1.9,0.3c-1,0-1.9-0.2-2.8-0.6s-1.7-1-2.3-1.8l1.5-1.1c0.4,0.6,0.9,1.1,1.5,1.4c0.7,0.4,1.4,0.6,2.2,0.5
			c0.4,0,0.8-0.1,1.2-0.2s0.8-0.3,1.1-0.6c0.3-0.3,0.6-0.6,0.8-0.9c0.2-0.4,0.3-0.8,0.3-1.3s-0.1-1-0.4-1.4
			c-0.2-0.4-0.6-0.7-0.9-0.9c-0.4-0.3-0.9-0.5-1.3-0.6c-0.5-0.2-1-0.3-1.5-0.5s-1-0.4-1.5-0.6c-0.5-0.2-0.9-0.5-1.3-0.8
			s-0.7-0.8-0.9-1.2c-0.3-0.6-0.4-1.2-0.4-1.9c0-0.7,0.1-1.4,0.4-2s0.7-1.1,1.2-1.4c0.5-0.4,1.1-0.7,1.7-0.8
			c0.6-0.2,1.3-0.3,1.9-0.3c0.9,0,1.7,0.1,2.5,0.4s1.5,0.9,2.1,1.5L37.5-106.5z"/>
	</g>
	<g id="Groupe_207" transform="translate(125.151 3.838)">
		<path id="Tracé_129" class="st0" d="M35.6-105.2h-3.1v6.3c0,0.3,0,0.7,0.1,1c0.1,0.2,0.2,0.4,0.3,0.6c0.1,0.1,0.3,0.2,0.5,0.3
			c0.2,0.1,0.4,0.1,0.6,0.1c0.3,0,0.5,0,0.8-0.1s0.5-0.2,0.8-0.3l0.1,1.4c-0.6,0.3-1.3,0.4-2,0.4c-0.3,0-0.6,0-0.9-0.1
			s-0.6-0.2-0.9-0.4c-0.3-0.2-0.5-0.5-0.6-0.9c-0.2-0.5-0.3-1-0.3-1.4v-6.8h-2.3v-1.4H31v-3h1.5v3h3.1V-105.2L35.6-105.2z"/>
	</g>
	<g id="Groupe_208" transform="translate(133.536 6.602)">
		<path id="Tracé_130" class="st0" d="M36.2-105.2v-0.3c0.2-1.3-0.7-2.6-2.1-2.8c-0.2,0-0.5,0-0.7,0c-1.2,0-2.4,0.4-3.3,1.3
			l-0.9-1.1c1.2-1.1,2.9-1.7,4.5-1.6c0.5,0,1,0.1,1.5,0.2s0.9,0.4,1.2,0.7c0.4,0.3,0.7,0.7,0.8,1.2c0.2,0.5,0.3,1.1,0.3,1.7v4.8
			c0,0.4,0,0.8,0.1,1.3c0.1,0.5,0.1,0.8,0.1,1.1h-1.5c0-0.3-0.1-0.5-0.1-0.8s0-0.6,0-0.9l0,0c-0.4,0.6-0.9,1.2-1.6,1.5
			s-1.4,0.5-2.2,0.5c-0.5,0-0.9-0.1-1.4-0.2c-0.4-0.1-0.8-0.3-1.2-0.6c-0.3-0.3-0.6-0.6-0.8-1c-0.2-0.4-0.3-0.9-0.3-1.4
			c0-0.7,0.2-1.5,0.7-2s1.1-0.9,1.7-1.1c0.7-0.2,1.4-0.4,2.2-0.5c0.8-0.1,1.5-0.1,2.1-0.1L36.2-105.2L36.2-105.2z M35.4-104
			c-0.4,0-0.9,0-1.4,0.1c-0.6,0-1.1,0.1-1.6,0.3c-0.5,0.1-1,0.4-1.4,0.7c-0.4,0.3-0.6,0.8-0.6,1.3c0,0.3,0.1,0.6,0.2,0.9
			s0.3,0.5,0.6,0.6c0.3,0.2,0.5,0.3,0.8,0.3c0.3,0.1,0.6,0.1,0.9,0.1c0.5,0,1-0.1,1.4-0.3c0.4-0.2,0.7-0.4,1-0.7
			c0.3-0.3,0.5-0.7,0.6-1.1c0.1-0.4,0.2-0.9,0.2-1.3v-0.8L35.4-104L35.4-104z"/>
	</g>
	<g id="Groupe_209" transform="translate(144.648 3.838)">
		<path id="Tracé_131" class="st0" d="M35.6-105.2h-3.1v6.3c0,0.3,0,0.7,0.1,1c0.1,0.2,0.2,0.4,0.3,0.6c0.1,0.1,0.3,0.2,0.5,0.3
			c0.2,0.1,0.4,0.1,0.6,0.1c0.3,0,0.5,0,0.8-0.1s0.5-0.2,0.8-0.3l0.1,1.4c-0.6,0.3-1.3,0.4-2,0.4c-0.3,0-0.6,0-0.9-0.1
			s-0.6-0.2-0.9-0.4c-0.3-0.2-0.5-0.5-0.6-0.9c-0.2-0.5-0.3-1-0.3-1.4v-6.8h-2.3v-1.4H31v-3h1.5v3h3.1V-105.2L35.6-105.2z"/>
	</g>
	<g id="Groupe_210" transform="translate(153.57 1.654)">
		<path id="Tracé_132" class="st0" d="M31-108.5c0,0.3-0.1,0.6-0.3,0.8c-0.2,0.2-0.5,0.3-0.8,0.3s-0.6-0.1-0.8-0.3
			c-0.2-0.2-0.4-0.5-0.3-0.8c0-0.3,0.1-0.6,0.3-0.8c0.2-0.2,0.5-0.3,0.8-0.3s0.6,0.1,0.8,0.3C30.8-109.1,31-108.8,31-108.5z
			 M30.6-93.7h-1.5v-10.7h1.5V-93.7z"/>
	</g>
	<g id="Groupe_211" transform="translate(158.195 6.594)">
		<path id="Tracé_133" class="st0" d="M35.3-106.8c-0.2-0.4-0.5-0.8-0.9-1.1c-0.4-0.3-0.9-0.4-1.4-0.4c-0.3,0-0.5,0-0.8,0.1
			c-0.3,0.1-0.5,0.2-0.7,0.3c-0.2,0.1-0.4,0.3-0.5,0.5s-0.2,0.5-0.2,0.7c0,0.4,0.2,0.9,0.5,1.1c0.5,0.3,1,0.5,1.6,0.6l1.5,0.4
			c0.7,0.2,1.4,0.5,1.9,1s0.8,1.2,0.7,1.9c0,1-0.5,2-1.3,2.5c-0.4,0.3-0.9,0.5-1.3,0.6c-0.5,0.1-1,0.2-1.5,0.2
			c-0.8,0-1.6-0.2-2.3-0.5c-0.8-0.3-1.4-0.9-1.8-1.6l1.3-0.9c0.3,0.5,0.7,0.9,1.2,1.2c0.5,0.3,1.1,0.5,1.7,0.4c0.3,0,0.6,0,0.9-0.1
			s0.6-0.2,0.8-0.3c0.2-0.1,0.4-0.3,0.6-0.6c0.1-0.2,0.2-0.5,0.2-0.8c0-0.5-0.2-0.9-0.6-1.2c-0.5-0.3-0.9-0.4-1.4-0.6l-1.6-0.2
			c-0.2,0-0.4-0.1-0.7-0.2c-0.3-0.1-0.6-0.3-0.9-0.5s-0.6-0.5-0.8-0.8c-0.2-0.4-0.3-0.8-0.3-1.3s0.1-1,0.3-1.4
			c0.2-0.4,0.5-0.7,0.9-1s0.8-0.5,1.3-0.6s1-0.2,1.5-0.2c0.7,0,1.4,0.1,2.1,0.4s1.2,0.8,1.5,1.5L35.3-106.8z"/>
	</g>
	<g id="Groupe_212" transform="translate(167.518 3.838)">
		<path id="Tracé_134" class="st0" d="M35.6-105.2h-3.1v6.3c0,0.3,0,0.7,0.1,1c0.1,0.2,0.2,0.4,0.3,0.6c0.1,0.1,0.3,0.2,0.5,0.3
			c0.2,0.1,0.4,0.1,0.6,0.1c0.3,0,0.5,0,0.8-0.1s0.5-0.2,0.8-0.3l0.1,1.4c-0.6,0.3-1.3,0.4-2,0.4c-0.3,0-0.6,0-0.9-0.1
			s-0.6-0.2-0.9-0.4c-0.3-0.2-0.5-0.5-0.6-0.9c-0.2-0.5-0.3-1-0.3-1.4v-6.8h-2.3v-1.4H31v-3h1.5v3h3.1V-105.2L35.6-105.2z"/>
	</g>
	<g id="Groupe_213" transform="translate(176.439 1.654)">
		<path id="Tracé_135" class="st0" d="M31-108.5c0,0.3-0.1,0.6-0.3,0.8c-0.2,0.2-0.5,0.3-0.8,0.3s-0.6-0.1-0.8-0.3
			c-0.2-0.2-0.4-0.5-0.3-0.8c0-0.3,0.1-0.6,0.3-0.8c0.2-0.2,0.5-0.3,0.8-0.3s0.6,0.1,0.8,0.3C30.8-109.1,31-108.8,31-108.5z
			 M30.6-93.7h-1.5v-10.7h1.5V-93.7z"/>
	</g>
	<g id="Groupe_214" transform="translate(181.401 6.593)">
		<path id="Tracé_136" class="st0" d="M37.1-106.8c-0.3-0.4-0.7-0.8-1.1-1c-0.5-0.3-1-0.4-1.6-0.4c-0.6,0-1.2,0.1-1.7,0.3
			c-0.5,0.2-0.9,0.5-1.3,0.9s-0.6,0.9-0.8,1.4c-0.2,0.5-0.3,1.1-0.3,1.7s0.1,1.2,0.3,1.7c0.2,0.5,0.4,1,0.8,1.4s0.8,0.7,1.3,0.9
			c0.5,0.2,1.1,0.3,1.7,0.3c0.6,0,1.1-0.1,1.6-0.4c0.4-0.2,0.8-0.6,1.1-1l1.2,0.9c-0.5,0.6-1.1,1.1-1.8,1.4s-1.4,0.5-2.1,0.5
			c-0.8,0-1.6-0.1-2.4-0.4c-1.4-0.5-2.4-1.6-2.9-3c-0.5-1.5-0.5-3.1,0-4.5c0.2-0.7,0.6-1.3,1.1-1.8s1.1-0.9,1.8-1.2
			c0.8-0.3,1.6-0.4,2.4-0.4c0.7,0,1.4,0.2,2.1,0.5s1.3,0.8,1.8,1.4L37.1-106.8z"/>
	</g>
	<g id="Groupe_215" transform="translate(192.105 6.594)">
		<path id="Tracé_137" class="st0" d="M35.3-106.8c-0.2-0.4-0.5-0.8-0.9-1.1c-0.4-0.3-0.9-0.4-1.4-0.4c-0.3,0-0.5,0-0.8,0.1
			c-0.3,0.1-0.5,0.2-0.7,0.3c-0.2,0.1-0.4,0.3-0.5,0.5s-0.2,0.5-0.2,0.7c0,0.4,0.2,0.9,0.5,1.1c0.5,0.3,1,0.5,1.6,0.6l1.5,0.4
			c0.7,0.2,1.4,0.5,1.9,1s0.8,1.2,0.7,1.9c0,1-0.5,2-1.3,2.5c-0.4,0.3-0.9,0.5-1.3,0.6c-0.5,0.1-1,0.2-1.5,0.2
			c-0.8,0-1.6-0.2-2.3-0.5c-0.8-0.3-1.4-0.9-1.8-1.6l1.3-0.9c0.3,0.5,0.7,0.9,1.2,1.2c0.5,0.3,1.1,0.5,1.7,0.4c0.3,0,0.6,0,0.9-0.1
			s0.6-0.2,0.8-0.3c0.2-0.1,0.4-0.3,0.6-0.6c0.1-0.2,0.2-0.5,0.2-0.8c0-0.5-0.2-0.9-0.6-1.2c-0.5-0.3-0.9-0.4-1.4-0.6l-1.6-0.2
			c-0.2,0-0.4-0.1-0.7-0.2c-0.3-0.1-0.6-0.3-0.9-0.5s-0.6-0.5-0.8-0.8c-0.2-0.4-0.3-0.8-0.3-1.3s0.1-1,0.3-1.4
			c0.2-0.4,0.5-0.7,0.9-1s0.8-0.5,1.3-0.6s1-0.2,1.5-0.2c0.7,0,1.4,0.1,2.1,0.4s1.2,0.8,1.5,1.5L35.3-106.8z"/>
	</g>
</g>
<g id="logo_cosmos_24_OK_xd" transform="translate(422.604 140.281)">
	<g id="Ligne_89" transform="translate(103.028 74.958)">
		<rect id="Rectangle_29" x="19.8" y="-96.9" class="st0" width="0.4" height="55.6"/>
	</g>
	<g id="Groupe_97" transform="translate(0 0.007)">
		<g id="Groupe_96">
			<g id="Tracé_35">
				<path id="Tracé_138" class="st0" d="M70.4-48.2c-1,1.5-2.2,2.8-3.5,4.1c-1.4,1.3-3,2.5-4.7,3.4c-1.9,1-3.9,1.8-5.9,2.3
					c-2.3,0.6-4.7,0.9-7.1,0.8c-4,0-8.1-0.7-11.8-2.2c-7.1-2.8-12.7-8.5-15.4-15.6c-1.5-3.8-2.2-7.8-2.2-11.9s0.7-8.1,2.2-11.9
					c2.8-7.1,8.4-12.7,15.5-15.5c3.7-1.5,7.7-2.3,11.7-2.2c4,0,8,0.8,11.7,2.5c1.7,0.8,3.3,1.7,4.8,2.8c1.4,1,2.6,2.3,3.6,3.7
					l-4.8,3.5c-0.7-1-1.5-1.9-2.4-2.7c-1-1-2.2-1.8-3.5-2.4c-1.4-0.7-2.8-1.3-4.3-1.7c-1.7-0.4-3.4-0.6-5.1-0.6
					c-3.4-0.1-6.7,0.6-9.8,2c-2.8,1.3-5.3,3.1-7.4,5.4c-2,2.3-3.6,4.9-4.6,7.8c-1.1,3-1.6,6.2-1.6,9.4c0,3.2,0.5,6.4,1.6,9.4
					c1,2.9,2.6,5.5,4.7,7.8s4.6,4.1,7.4,5.4c3.1,1.4,6.4,2,9.8,2c3.2,0,6.3-0.7,9.3-2c3-1.4,5.5-3.6,7.3-6.4L70.4-48.2z"/>
			</g>
		</g>
	</g>
	<g id="Groupe_99" transform="translate(65.971 0.001)">
		<g id="Groupe_98">
			<g id="Tracé_36">
				<path id="Tracé_139" class="st0" d="M78.7-67.3c0,4.1-0.7,8.1-2.2,11.9c-1.4,3.5-3.5,6.7-6.2,9.4s-5.8,4.8-9.3,6.2
					c-7.5,3-15.9,3-23.4,0c-7.1-2.9-12.7-8.5-15.5-15.6c-3-7.6-3-16.1,0-23.8c2.8-7.1,8.4-12.7,15.5-15.5c7.5-3,15.9-3,23.4,0
					c7.1,2.9,12.7,8.5,15.5,15.5C78-75.4,78.8-71.3,78.7-67.3z M72.7-67.2c0-3.2-0.5-6.4-1.6-9.4c-1-2.9-2.6-5.6-4.6-7.8
					c-2.1-2.3-4.6-4.1-7.4-5.4c-6.3-2.7-13.3-2.7-19.6,0c-2.8,1.3-5.3,3.1-7.4,5.4c-2,2.3-3.6,4.9-4.6,7.8c-2.1,6.1-2.1,12.7,0,18.8
					c1,2.9,2.6,5.5,4.6,7.8c2.1,2.3,4.6,4.1,7.4,5.3c6.3,2.7,13.3,2.7,19.6,0c2.8-1.3,5.3-3.1,7.4-5.3c2-2.3,3.6-4.9,4.6-7.8
					C72.1-60.8,72.7-64,72.7-67.2L72.7-67.2z"/>
			</g>
		</g>
	</g>
	<g id="Groupe_101" transform="translate(140.366)">
		<g id="Groupe_100">
			<g id="Tracé_37">
				<path id="Tracé_140" class="st0" d="M50.8-86.4c-1.2-1.7-2.8-3.1-4.7-4.1c-2.1-1.1-4.5-1.6-6.9-1.6c-1.4,0-2.9,0.2-4.2,0.6
					c-1.4,0.4-2.7,1.1-3.9,2c-2.5,1.9-4,4.9-3.9,8c-0.1,1.6,0.3,3.1,1,4.5c0.7,1.2,1.6,2.2,2.8,3c1.2,0.9,2.5,1.5,3.9,2
					c1.5,0.5,3,1.1,4.6,1.6c2,0.6,3.9,1.3,5.9,2.1c1.9,0.7,3.7,1.7,5.4,2.9c1.6,1.2,2.9,2.8,3.9,4.5c1.1,2.2,1.6,4.6,1.5,7
					c0.2,4.8-2,9.4-5.8,12.4c-1.8,1.3-3.8,2.3-5.9,2.9c-2.2,0.6-4.4,1-6.7,1c-1.7,0-3.4-0.2-5.1-0.5c-1.7-0.3-3.3-0.9-4.9-1.6
					c-1.5-0.7-3-1.6-4.3-2.6C22.2-43.4,21-44.6,20-46l5-3.7c1.3,2.1,3,3.8,5.1,5.1c2.3,1.4,5,2.1,7.8,2c1.5,0,3-0.2,4.4-0.7
					c1.5-0.4,2.8-1.1,4-2.1c1.2-0.9,2.2-2.1,3-3.4c1.5-3,1.5-6.6,0-9.6c-0.8-1.3-1.8-2.4-3.1-3.3c-1.4-0.9-2.8-1.7-4.4-2.2
					c-1.6-0.6-3.4-1.2-5.2-1.8c-1.9-0.6-3.7-1.2-5.5-2c-1.8-0.7-3.4-1.7-4.9-2.9c-1.5-1.2-2.6-2.7-3.5-4.4
					c-1.9-4.3-1.7-9.3,0.3-13.5c1-1.9,2.5-3.6,4.3-4.9C29-94.5,31-95.5,33-96c2.1-0.6,4.2-0.9,6.3-0.9c3.4-0.1,6.7,0.6,9.8,2
					c2.4,1.1,4.5,2.8,6.2,4.8L50.8-86.4z"/>
			</g>
		</g>
	</g>
	<g id="Groupe_103" transform="translate(7.195 147.548)">
		<g id="Groupe_102">
			<g id="Tracé_38">
				<path id="Tracé_141" class="st0" d="M47.8-50.2L47.8-50.2l19-46.7h8.8v56.5h-5.8v-49.1h-0.2L49.2-40.4h-3L25.8-89.5h-0.2v49.1
					h-5.8v-56.5h8.8L47.8-50.2z"/>
			</g>
		</g>
	</g>
	<g id="Groupe_105" transform="translate(74.87 146.11)">
		<g id="Groupe_104">
			<g id="Tracé_39">
				<path id="Tracé_142" class="st0" d="M78.7-67.2c0,4.1-0.7,8.1-2.2,11.9c-1.4,3.5-3.5,6.7-6.2,9.4s-5.8,4.8-9.3,6.2
					c-7.5,3-15.9,3-23.4,0c-7.1-2.9-12.7-8.5-15.5-15.5c-3-7.6-3-16.1,0-23.8c1.4-3.5,3.5-6.7,6.2-9.4c2.7-2.7,5.8-4.8,9.3-6.2
					c7.5-3,15.9-3,23.4,0c7.1,2.9,12.7,8.5,15.5,15.6C78-75.4,78.8-71.3,78.7-67.2z M72.7-67.2c0-3.2-0.5-6.4-1.6-9.4
					c-1-2.9-2.6-5.6-4.6-7.8c-2.1-2.3-4.6-4.1-7.4-5.4c-6.3-2.7-13.3-2.7-19.6,0c-2.8,1.3-5.3,3.1-7.4,5.4c-2,2.3-3.6,4.9-4.6,7.8
					c-2.1,6.1-2.1,12.7,0,18.8c1,2.9,2.6,5.5,4.6,7.8c2.1,2.3,4.6,4.1,7.4,5.3c6.3,2.7,13.3,2.7,19.6,0c2.8-1.3,5.3-3.1,7.4-5.3
					c2-2.3,3.6-4.9,4.6-7.8C72.1-60.8,72.7-64,72.7-67.2L72.7-67.2z"/>
			</g>
		</g>
	</g>
	<g id="Groupe_107" transform="translate(142.163 146.109)">
		<g id="Groupe_106">
			<g id="Tracé_40">
				<path id="Tracé_143" class="st0" d="M50.8-86.4c-1.2-1.7-2.8-3.1-4.7-4.1c-2.1-1.1-4.5-1.6-6.9-1.6c-1.4,0-2.9,0.2-4.2,0.6
					c-1.4,0.4-2.7,1.1-3.9,2c-2.5,1.9-4,4.9-3.9,8c-0.1,1.6,0.3,3.1,1,4.5c0.7,1.2,1.6,2.2,2.8,3c1.2,0.9,2.5,1.5,3.9,2
					c1.5,0.5,3,1.1,4.6,1.6c2,0.6,3.9,1.3,5.9,2.1c1.9,0.7,3.7,1.7,5.4,2.9c1.6,1.2,2.9,2.8,3.9,4.5c1.1,2.2,1.6,4.6,1.5,7
					c0.2,4.8-2,9.4-5.8,12.4c-1.8,1.3-3.8,2.3-5.9,3c-2.2,0.6-4.4,1-6.7,1c-1.7,0-3.4-0.2-5.1-0.5c-1.7-0.3-3.3-0.9-4.9-1.6
					c-1.5-0.7-3-1.6-4.3-2.6c-1.3-1.1-2.5-2.3-3.5-3.7l4.9-3.7c1.3,2.1,3,3.8,5.1,5.1c2.3,1.4,5,2.1,7.8,2c1.5,0,3-0.2,4.4-0.7
					c1.5-0.4,2.8-1.1,4-2.1c1.2-0.9,2.2-2.1,3-3.4c1.5-3,1.5-6.6,0-9.6c-0.8-1.3-1.8-2.4-3.1-3.3c-1.4-0.9-2.8-1.7-4.4-2.2
					c-1.6-0.6-3.4-1.2-5.2-1.8c-1.9-0.6-3.7-1.2-5.5-2c-1.8-0.7-3.4-1.7-4.9-2.9c-1.5-1.2-2.6-2.7-3.5-4.4
					c-1.9-4.3-1.7-9.3,0.3-13.5c1-1.9,2.5-3.6,4.3-4.9c1.8-1.3,3.7-2.2,5.8-2.8c2.1-0.6,4.2-0.9,6.3-0.9c3.4-0.1,6.7,0.6,9.8,2
					c2.4,1.1,4.5,2.8,6.2,4.8L50.8-86.4z"/>
			</g>
		</g>
	</g>
	<g id="Groupe_109" transform="translate(31.363 0.446)">
		<g id="Groupe_108">
			<g id="Rectangle_22">
				<rect id="Rectangle_30" x="19.8" y="-96.9" class="st0" width="61.8" height="0.7"/>
			</g>
		</g>
	</g>
	<g id="Groupe_111" transform="translate(94.269 58.263)">
		<g id="Groupe_110">
			<g id="Rectangle_23">
				<rect id="Rectangle_31" x="19.8" y="-96.9" class="st0" width="67.2" height="0.7"/>
			</g>
		</g>
	</g>
	<g id="Groupe_113" transform="translate(107.181 203.153)">
		<g id="Groupe_112">
			<g id="Rectangle_24">
				<rect id="Rectangle_32" x="19.8" y="-96.9" class="st0" width="59.1" height="0.7"/>
			</g>
		</g>
	</g>
	<g id="Groupe_115" transform="translate(57.719 147.839)">
		<g id="Groupe_114">
			<g id="Tracé_41">
				<path id="Tracé_144" class="st0" d="M71.6-96.3H19.8V-97H73L71.6-96.3z"/>
			</g>
		</g>
	</g>
	<g id="Ligne_90" transform="translate(14.974 74.958)">
		<rect id="Rectangle_33" x="19.8" y="-96.9" class="st0" width="0.4" height="55.6"/>
	</g>
	<g id="Ligne_91" transform="translate(36.991 74.958)">
		<rect id="Rectangle_34" x="19.8" y="-96.9" class="st0" width="0.4" height="55.6"/>
	</g>
	<g id="Ligne_92" transform="translate(59.001 74.958)">
		<rect id="Rectangle_35" x="19.8" y="-96.9" class="st0" width="0.4" height="55.6"/>
	</g>
	<g id="Ligne_93" transform="translate(81.011 74.958)">
		<rect id="Rectangle_36" x="19.8" y="-96.9" class="st0" width="0.4" height="55.6"/>
	</g>
	<g id="Ligne_94" transform="translate(125.039 74.958)">
		<rect id="Rectangle_37" x="19.8" y="-96.9" class="st0" width="0.4" height="55.6"/>
	</g>
	<g id="Ligne_95" transform="translate(147.049 74.958)">
		<rect id="Rectangle_38" x="19.8" y="-96.9" class="st0" width="0.4" height="55.6"/>
	</g>
	<g id="Ligne_96" transform="translate(169.066 74.958)">
		<rect id="Rectangle_39" x="19.8" y="-96.9" class="st0" width="0.4" height="55.6"/>
	</g>
	<g id="Ligne_97" transform="translate(57.684 99.768)">
		<path id="Tracé_145" class="st0" d="M21.3-76.4c-0.8,0-1.4-0.6-1.4-1.4v-17.7c0-0.8,0.6-1.4,1.4-1.4s1.4,0.6,1.4,1.4v17.7
			C22.7-77,22.1-76.4,21.3-76.4z"/>
	</g>
	<g id="Ligne_98" transform="translate(35.967 88.892)">
		<path id="Tracé_146" class="st0" d="M21.3-79.7c-0.8,0-1.4-0.6-1.4-1.4v-14.4c0-0.8,0.6-1.4,1.4-1.4s1.4,0.6,1.4,1.4v14.4
			C22.7-80.3,22.1-79.7,21.3-79.7z"/>
	</g>
	<g id="Ligne_99" transform="translate(79.794 99.152)">
		<path id="Tracé_147" class="st0" d="M21.3-64c-0.8,0-1.4-0.6-1.4-1.4v-30.1c0-0.8,0.6-1.4,1.4-1.4s1.4,0.6,1.4,1.4v30.1
			C22.7-64.6,22.1-64,21.3-64z"/>
	</g>
	<g id="Ligne_100" transform="translate(101.926 91.791)">
		<path id="Tracé_148" class="st0" d="M21.3-72.8c-0.8,0-1.4-0.6-1.4-1.4v-21.3c0-0.8,0.6-1.4,1.4-1.4s1.4,0.6,1.4,1.4v21.3
			C22.7-73.4,22.1-72.8,21.3-72.8L21.3-72.8z"/>
	</g>
	<g id="Ligne_101" transform="translate(123.786 76.175)">
		<path id="Tracé_149" class="st0" d="M21.3-76.4c-0.8,0-1.4-0.6-1.4-1.4v-17.7c0-0.8,0.6-1.4,1.4-1.4s1.4,0.6,1.4,1.4v17.7
			C22.7-77,22.1-76.4,21.3-76.4L21.3-76.4z"/>
	</g>
	<g id="Ligne_102" transform="translate(145.796 75.975)">
		<path id="Tracé_150" class="st0" d="M21.3-87.1c-0.8,0-1.4-0.6-1.4-1.4v-6.9c0-0.8,0.6-1.4,1.4-1.4s1.4,0.6,1.4,1.4l0,0v6.9
			C22.7-87.8,22.1-87.1,21.3-87.1L21.3-87.1z"/>
	</g>
	<g id="Ligne_103" transform="translate(167.663 75.746)">
		<path id="Tracé_151" class="st0" d="M21.3-91.2c-0.8,0-1.4-0.6-1.4-1.4v-2.8c0-0.8,0.6-1.4,1.4-1.4s1.4,0.6,1.4,1.4l0,0v2.8
			C22.7-91.9,22.1-91.2,21.3-91.2L21.3-91.2z"/>
	</g>
	<g id="Ligne_104" transform="translate(14.25 75.746)">
		<path id="Tracé_152" class="st0" d="M21.3-91.2c-0.8,0-1.4-0.6-1.4-1.4v-2.8c0-0.8,0.6-1.4,1.4-1.4s1.4,0.6,1.4,1.4l0,0v2.8
			C22.7-91.9,22.1-91.2,21.3-91.2L21.3-91.2z"/>
	</g>
</g>
<g>
	<path class="st0" d="M671.9,125.6L671.9,125.6l-3.6,2.9l-1-1.3l4.9-4h1.4v19.7h-1.6V125.6z"/>
	<path class="st0" d="M686.4,125.6L686.4,125.6l-3.6,2.9l-1-1.3l4.9-4h1.4v19.7h-1.6V125.6z"/>
	<path class="st0" d="M694.8,135.6h6.9v1.5h-6.9V135.6z"/>
	<path class="st0" d="M710.1,125.6L710.1,125.6l-3.6,2.9l-1-1.3l4.9-4h1.4v19.7h-1.6V125.6z"/>
	<path class="st0" d="M718.4,141l7.4-7.8c0.3-0.3,0.7-0.7,1-1c0.3-0.4,0.6-0.7,0.9-1.2s0.5-0.8,0.7-1.3c0.1-0.4,0.2-1,0.2-1.5
		c0-1.1-0.4-2-1.1-2.7s-1.6-1-2.8-1c-1,0-1.9,0.3-2.6,0.9c-0.7,0.6-1.2,1.3-1.3,2.3l-1.9-0.2c0.3-1.5,1-2.7,2.1-3.4s2.4-1.1,3.9-1.1
		c0.7,0,1.5,0.1,2.2,0.4s1.3,0.6,1.8,1c0.5,0.4,0.9,1,1.3,1.6c0.3,0.6,0.4,1.3,0.4,2.1s-0.1,1.5-0.4,2.1c-0.2,0.7-0.5,1.3-0.9,1.9
		c-0.4,0.6-0.8,1.1-1.3,1.6c-0.5,0.5-1,1-1.5,1.6l-6.1,6.3h10.3v1.5h-12.2V141H718.4z"/>
	<path class="st0" d="M747.7,123.3h1.9l8.3,19.7h-2.1l-2.2-5.2h-10.5l-2.2,5.2H739L747.7,123.3z M748.6,125.2L744,136h9L748.6,125.2
		z"/>
	<path class="st0" d="M759.9,130.1h1.6v2.2h0.1c0.2-0.4,0.6-0.8,1-1.1c0.4-0.3,0.8-0.6,1.3-0.8c0.4-0.2,0.9-0.4,1.4-0.4
		c0.5-0.1,1-0.1,1.5-0.1c1,0,1.9,0.1,2.7,0.5c0.8,0.3,1.6,0.8,2.2,1.4c0.6,0.6,1,1.3,1.4,2.2c0.3,0.8,0.5,1.7,0.5,2.7
		c0,1-0.1,1.9-0.5,2.7c-0.3,0.8-0.8,1.6-1.4,2.2c-0.6,0.6-1.3,1-2.2,1.4c-0.8,0.3-1.7,0.5-2.7,0.5c-0.4,0-1-0.1-1.5-0.1
		s-1-0.2-1.4-0.4s-0.9-0.4-1.3-0.8c-0.4-0.3-0.7-0.7-1-1.1h-0.1v8.4h-1.6V130.1z M761.4,136.5c0,0.7,0.1,1.4,0.4,2
		c0.3,0.7,0.7,1.2,1.1,1.6c0.4,0.4,1,0.8,1.7,1.1c0.7,0.3,1.3,0.4,2.1,0.4s1.5-0.1,2.1-0.4s1.2-0.7,1.6-1.1c0.4-0.4,0.7-1,1-1.6
		c0.2-0.7,0.4-1.3,0.4-2c0-0.7-0.1-1.4-0.4-2c-0.2-0.7-0.6-1.2-1-1.6s-1-0.8-1.6-1.1s-1.3-0.4-2.1-0.4s-1.5,0.1-2.1,0.4
		c-0.7,0.3-1.2,0.7-1.7,1.1c-0.4,0.4-0.9,1-1.1,1.6C761.6,135.1,761.4,135.7,761.4,136.5z"/>
	<path class="st0" d="M777.3,133.7c0-0.2,0-0.5,0-0.9c0-0.4,0-0.7-0.1-1c0-0.4,0-0.7-0.1-1c0-0.3,0-0.5,0-0.7h1.6c0,0.4,0,1,0.1,1.4
		c0,0.4,0,0.7,0.1,0.9c0.4-0.7,1-1.3,1.6-1.9c0.7-0.4,1.5-0.7,2.5-0.7c0.1,0,0.3,0,0.5,0.1c0.1,0,0.3,0.1,0.5,0.1l-0.2,1.6
		c-0.2-0.1-0.4-0.1-0.7-0.1c-0.7,0-1.3,0.1-1.9,0.4c-0.5,0.2-1,0.5-1.3,1c-0.4,0.4-0.6,0.9-0.7,1.4c-0.1,0.5-0.2,1.1-0.2,1.8v7h-1.6
		v-9.4H777.3z"/>
	<path class="st0" d="M786.4,125c0-0.4,0.1-0.7,0.4-0.9c0.2-0.2,0.5-0.4,0.9-0.4c0.4,0,0.7,0.1,0.9,0.4c0.2,0.2,0.4,0.5,0.4,0.9
		s-0.1,0.7-0.4,0.9c-0.2,0.2-0.5,0.4-0.9,0.4c-0.4,0-0.7-0.1-0.9-0.4C786.4,125.7,786.4,125.4,786.4,125z M786.7,130.1h1.6v12.9
		h-1.6V130.1z"/>
	<path class="st0" d="M793.5,121.9h1.6v21h-1.6V121.9z"/>
	<path class="st0" d="M806,141l7.4-7.8c0.3-0.3,0.7-0.7,1-1c0.3-0.4,0.6-0.7,0.9-1.2c0.3-0.4,0.5-0.8,0.7-1.3c0.1-0.4,0.2-1,0.2-1.5
		c0-1.1-0.4-2-1.1-2.7c-0.7-0.7-1.6-1-2.8-1c-1,0-1.9,0.3-2.6,0.9c-0.7,0.6-1.2,1.3-1.3,2.3l-1.9-0.2c0.3-1.5,1-2.7,2.1-3.4
		c1-0.7,2.4-1.1,3.9-1.1c0.7,0,1.5,0.1,2.2,0.4s1.3,0.6,1.8,1c0.5,0.4,0.9,1,1.3,1.6c0.3,0.6,0.4,1.3,0.4,2.1s-0.1,1.5-0.4,2.1
		c-0.2,0.7-0.5,1.3-0.9,1.9c-0.4,0.6-0.8,1.1-1.3,1.6c-0.5,0.5-1,1-1.5,1.6l-6.1,6.3h10.3v1.5h-12.2V141H806z"/>
	<path class="st0" d="M820.7,133.1c0-1.5,0.2-2.9,0.7-4.1c0.5-1.3,1.2-2.3,2.1-3.3c0.9-0.9,1.9-1.6,3.2-2.2c1.3-0.5,2.6-0.7,4.1-0.7
		s2.9,0.2,4.1,0.7c1.3,0.5,2.3,1.3,3.2,2.2c0.9,0.9,1.6,2,2.1,3.3c0.5,1.3,0.7,2.6,0.7,4.1s-0.2,2.9-0.7,4.2s-1.2,2.4-2.1,3.3
		c-0.9,0.9-1.9,1.6-3.2,2.2s-2.6,0.7-4.1,0.7s-2.9-0.2-4.1-0.7c-1.3-0.5-2.3-1.2-3.2-2.2c-0.9-0.9-1.6-2-2.1-3.3
		S820.7,134.5,820.7,133.1z M822.5,133.1c0,1.2,0.2,2.4,0.6,3.4c0.4,1,1,1.9,1.6,2.8c0.7,0.7,1.6,1.4,2.6,1.9s2.2,0.7,3.4,0.7
		s2.5-0.2,3.4-0.7c1-0.4,1.9-1,2.6-1.9s1.3-1.7,1.6-2.8c0.4-1,0.6-2.2,0.6-3.4s-0.2-2.4-0.6-3.4c-0.4-1-1-1.9-1.6-2.8
		c-0.7-0.8-1.6-1.4-2.6-1.9s-2.2-0.7-3.4-0.7s-2.5,0.2-3.4,0.7c-1,0.4-1.9,1-2.6,1.9c-0.7,0.7-1.3,1.7-1.6,2.8
		C822.8,130.7,822.5,131.9,822.5,133.1z"/>
	<path class="st0" d="M843.6,141l7.4-7.8c0.3-0.3,0.7-0.7,1-1s0.6-0.7,0.9-1.2c0.3-0.4,0.5-0.8,0.7-1.3c0.1-0.4,0.2-1,0.2-1.5
		c0-1.1-0.4-2-1.1-2.7s-1.6-1-2.8-1c-1,0-1.9,0.3-2.6,0.9c-0.7,0.6-1.2,1.3-1.3,2.3l-1.9-0.2c0.3-1.5,1-2.7,2.1-3.4
		c1-0.7,2.4-1.1,3.9-1.1c0.7,0,1.5,0.1,2.2,0.4s1.3,0.6,1.8,1c0.5,0.4,0.9,1,1.3,1.6c0.3,0.6,0.4,1.3,0.4,2.1s-0.1,1.5-0.4,2.1
		c-0.2,0.7-0.5,1.3-0.9,1.9c-0.4,0.6-0.8,1.1-1.3,1.6s-1,1-1.5,1.6l-6.1,6.3h10.3v1.5h-12.2V141H843.6z"/>
	<path class="st0" d="M866.1,138.1h-8.5v-1.9l7.8-12.9h2.3v13.3h3v1.5h-3v4.9h-1.6L866.1,138.1L866.1,138.1z M866.1,125.1
		L866.1,125.1l-7,11.5h7V125.1z"/>
	<path class="st0" d="M664.6,168.9h27.8v1.5h-27.8V168.9z"/>
	<path class="st0" d="M702.4,156.6h5.7c0.7,0,1.4,0.1,2.2,0.2s1.4,0.4,2.1,0.8c0.6,0.4,1.1,0.9,1.5,1.6c0.4,0.7,0.6,1.5,0.6,2.5
		c0,0.9-0.1,1.6-0.5,2.3c-0.3,0.7-0.7,1.2-1.3,1.6c-0.5,0.4-1.2,0.7-1.9,0.9c-0.7,0.2-1.5,0.3-2.2,0.3h-4.3v9.3h-1.9L702.4,156.6
		L702.4,156.6z M704.2,165.3h4.2c0.5,0,1-0.1,1.5-0.1c0.5-0.1,1-0.3,1.3-0.6c0.4-0.3,0.7-0.6,1-1c0.2-0.4,0.4-1,0.4-1.6
		c0-0.6-0.1-1.2-0.4-1.6c-0.2-0.4-0.6-0.8-1-1.1c-0.4-0.3-0.8-0.5-1.3-0.6c-0.5-0.1-1-0.2-1.6-0.2h-4L704.2,165.3L704.2,165.3z"/>
	<path class="st0" d="M727.9,170.9c0,0.6,0,1.2,0,1.7s0,1,0.1,1.4c0,0.4,0.1,0.8,0.1,1.2c0,0.4,0.1,0.7,0.1,1.1h-1.6
		c-0.1-0.6-0.1-1.3-0.1-2.1h-0.1c-0.4,0.8-1,1.4-1.8,1.9c-0.7,0.4-1.6,0.6-2.7,0.6c-0.5,0-1.1-0.1-1.6-0.2s-1-0.4-1.4-0.7
		c-0.4-0.3-0.7-0.7-1-1.2c-0.3-0.4-0.4-1-0.4-1.7c0-1,0.2-1.8,0.7-2.3c0.5-0.6,1.1-1,1.9-1.3c0.7-0.3,1.5-0.4,2.3-0.5
		c0.8-0.1,1.6-0.1,2.2-0.1h1.9v-0.7c0-1.1-0.4-1.9-1-2.4c-0.7-0.4-1.6-0.7-2.6-0.7c-1.5,0-2.8,0.4-3.9,1.4l-1-1.1
		c0.6-0.6,1.3-1,2.3-1.3c1-0.3,1.8-0.4,2.6-0.4c1.6,0,2.8,0.4,3.7,1.1c1,0.7,1.4,1.9,1.4,3.5v3H727.9z M724.5,169.8
		c-0.7,0-1.4,0.1-2,0.1c-0.7,0.1-1.3,0.2-1.8,0.4c-0.5,0.2-1,0.5-1.3,0.9c-0.3,0.4-0.4,0.8-0.4,1.4c0,0.4,0.1,0.7,0.3,1
		c0.1,0.3,0.4,0.5,0.7,0.7c0.3,0.2,0.6,0.4,0.9,0.4c0.4,0.1,0.7,0.1,1,0.1c0.9,0,1.6-0.1,2.2-0.4c0.6-0.2,1-0.6,1.3-1
		c0.3-0.4,0.6-0.9,0.7-1.4c0.1-0.5,0.2-1,0.2-1.6v-0.9H724.5z"/>
	<path class="st0" d="M732.3,167.1c0-0.2,0-0.5,0-0.9s0-0.7-0.1-1c0-0.4,0-0.7-0.1-1c0-0.3,0-0.5,0-0.7h1.6c0,0.4,0,1,0.1,1.4
		c0,0.4,0,0.7,0.1,0.9c0.4-0.7,1-1.3,1.6-1.9c0.7-0.4,1.5-0.7,2.5-0.7c0.1,0,0.3,0,0.5,0.1s0.3,0.1,0.5,0.1l-0.2,1.6
		c-0.2-0.1-0.4-0.1-0.7-0.1c-0.7,0-1.3,0.1-1.9,0.4s-1,0.5-1.3,1c-0.4,0.4-0.6,0.9-0.7,1.4c-0.1,0.5-0.2,1.1-0.2,1.8v7h-1.6v-9.4
		H732.3z"/>
	<path class="st0" d="M741.4,158.4c0-0.4,0.1-0.7,0.4-0.9c0.2-0.2,0.5-0.4,0.9-0.4c0.4,0,0.7,0.1,0.9,0.4c0.2,0.2,0.4,0.5,0.4,0.9
		s-0.1,0.7-0.4,0.9c-0.2,0.2-0.5,0.4-0.9,0.4c-0.4,0-0.7-0.1-0.9-0.4C741.5,159,741.4,158.7,741.4,158.4z M741.8,163.5h1.6v12.9
		h-1.6V163.5z"/>
	<path class="st0" d="M748.3,173c0.4,0.7,0.9,1.2,1.6,1.6c0.7,0.4,1.4,0.5,2.2,0.5c0.4,0,0.7-0.1,1-0.1c0.4-0.1,0.7-0.3,1-0.4
		c0.3-0.2,0.5-0.4,0.7-0.7c0.1-0.3,0.3-0.6,0.3-1c0-0.6-0.2-1-0.6-1.3c-0.4-0.3-0.8-0.5-1.4-0.7c-0.5-0.1-1.2-0.3-1.9-0.4
		s-1.3-0.3-1.9-0.5c-0.6-0.2-1-0.6-1.4-1c-0.4-0.4-0.6-1-0.6-1.9c0-0.6,0.1-1.2,0.4-1.6c0.2-0.4,0.6-0.8,1-1.1
		c0.4-0.3,0.9-0.5,1.4-0.7c0.5-0.1,1-0.2,1.6-0.2c1,0,1.9,0.2,2.8,0.6c0.7,0.4,1.3,1,1.8,1.9l-1.5,0.9c-0.3-0.6-0.7-1-1.2-1.3
		c-0.4-0.3-1.1-0.4-1.9-0.4c-0.3,0-0.6,0.1-0.9,0.1c-0.3,0.1-0.6,0.2-0.9,0.4c-0.2,0.1-0.4,0.4-0.7,0.7c-0.1,0.2-0.3,0.5-0.3,0.9
		c0,0.6,0.2,1,0.6,1.3c0.4,0.3,0.8,0.5,1.4,0.7c0.5,0.1,1.2,0.3,1.9,0.4c0.7,0.1,1.3,0.3,1.9,0.5s1,0.6,1.4,1.1
		c0.4,0.5,0.6,1.1,0.6,2c0,0.7-0.1,1.3-0.4,1.7c-0.2,0.4-0.6,0.9-1,1.3c-0.4,0.3-0.9,0.6-1.5,0.7c-0.5,0.1-1.1,0.2-1.7,0.2
		c-1.1,0-2.1-0.2-3.1-0.7c-0.9-0.4-1.6-1.1-2.1-1.9L748.3,173z"/>
</g>
</svg>
