<?xml version="1.0" encoding="UTF-8" standalone="no"?>
<!-- Created with Inkscape (http://www.inkscape.org/) -->

<svg
   xmlns:dc="http://purl.org/dc/elements/1.1/"
   xmlns:cc="http://creativecommons.org/ns#"
   xmlns:rdf="http://www.w3.org/1999/02/22-rdf-syntax-ns#"
   xmlns:svg="http://www.w3.org/2000/svg"
   xmlns="http://www.w3.org/2000/svg"
   xmlns:sodipodi="http://sodipodi.sourceforge.net/DTD/sodipodi-0.dtd"
   xmlns:inkscape="http://www.inkscape.org/namespaces/inkscape"
   version="1.1"
   id="svg2"
   width="198.76521"
   height="87.741562"
   viewBox="0 0 198.76522 87.741562"
   sodipodi:docname="Codata.svg"
   inkscape:version="0.92.4 (5da689c313, 2019-01-14)">
  <metadata
     id="metadata8">
    <rdf:RDF>
      <cc:Work
         rdf:about="">
        <dc:format>image/svg+xml</dc:format>
        <dc:type
           rdf:resource="http://purl.org/dc/dcmitype/StillImage" />
        <dc:title></dc:title>
      </cc:Work>
    </rdf:RDF>
  </metadata>
  <defs
     id="defs6" />
  <sodipodi:namedview
     pagecolor="#ffffff"
     bordercolor="#666666"
     borderopacity="1"
     objecttolerance="10"
     gridtolerance="10"
     guidetolerance="10"
     inkscape:pageopacity="0"
     inkscape:pageshadow="2"
     inkscape:window-width="1920"
     inkscape:window-height="1001"
     id="namedview4"
     showgrid="false"
     inkscape:zoom="8.0000004"
     inkscape:cx="107.03108"
     inkscape:cy="44.058935"
     inkscape:window-x="-9"
     inkscape:window-y="-9"
     inkscape:window-maximized="1"
     inkscape:current-layer="svg2"
     inkscape:pagecheckerboard="true"
     fit-margin-top="0"
     fit-margin-left="0"
     fit-margin-right="0"
     fit-margin-bottom="0" />
  <g
     transform="translate(238.12646,0.0768948)"
     id="g1175">
    <g
       id="g1051-7-0"
       transform="translate(-461.3569,-0.03332047)">
      <path
         style="fill:#FFFFFF;fill-opacity:1;stroke-width:0.10696394"
         d="m 265.51275,58.39893 c -5.01916,-0.52584 -9.35155,-3.56212 -11.70939,-8.20631 -0.35178,-0.69289 -0.93944,-2.48699 -1.15689,-3.53192 -0.27742,-1.33311 -0.2833,-4.32654 -0.0111,-5.625 0.62808,-2.99559 1.89935,-5.37037 4.02112,-7.51163 2.83494,-2.86096 6.29262,-4.30464 10.30982,-4.30464 1.77145,0 3.05519,0.20381 4.64516,0.73749 1.89103,0.63473 4.09893,1.93776 5.21263,3.07633 l 0.44401,0.45393 -2.05412,2.05504 -2.05413,2.05503 -0.48053,-0.42732 c -1.06465,-0.94674 -2.66758,-1.70931 -4.16463,-1.98126 -3.32737,-0.60446 -6.84745,0.86675 -8.76516,3.66337 -1.70729,2.48979 -1.97818,5.95802 -0.68028,8.70986 0.70362,1.49184 1.64579,2.59929 2.98493,3.50859 0.91692,0.6226 1.40868,0.8541 2.46948,1.16253 2.79336,0.8122 5.68283,0.22737 7.95204,-1.60949 l 0.70405,-0.56991 2.05564,2.06456 2.05565,2.06457 -0.71232,0.63183 c -1.9159,1.69941 -4.21371,2.84061 -6.76249,3.35857 -1.20728,0.24534 -3.146,0.34706 -4.30354,0.22578 z m 26.22781,-0.0166 c -3.41595,-0.35653 -6.35591,-1.77809 -8.81432,-4.26199 -2.25125,-2.27458 -3.53333,-4.74415 -4.05897,-7.81849 -0.83196,-4.86591 0.76353,-9.66979 4.34673,-13.08756 2.08512,-1.98887 4.69136,-3.31219 7.5121,-3.81427 1.3422,-0.23891 3.67671,-0.23891 5.01891,0 5.92425,1.0545 10.53673,5.5951 11.81989,11.6357 0.26924,1.26744 0.26767,4.28435 -0.003,5.57142 -0.63153,3.00422 -1.93946,5.43757 -4.06364,7.56021 -2.48081,2.47902 -5.32731,3.83725 -8.8437,4.21983 -1.15776,0.12597 -1.66894,0.12512 -2.91411,-0.005 z m 3.07983,-5.92929 c 3.28502,-0.63063 6.01339,-3.16217 6.87779,-6.38161 0.26198,-0.97573 0.26173,-3.52582 -4.3e-4,-4.5 -0.4489,-1.66807 -1.621,-3.46521 -2.95468,-4.53033 -4.42722,-3.53572 -10.78721,-2.1738 -13.29443,2.84686 -0.68996,1.38161 -0.93275,2.40549 -0.93275,3.93347 0,5.49237 4.97018,9.65565 10.30451,8.63161 z"
         id="path1011-3-0"
         inkscape:connector-curvature="0"
         sodipodi:nodetypes="cccssssccccccccccsccccccccscccccsccccccscsccc" />
      <g
         id="g992-3-3">
        <g
           id="g970-8-16">
          <circle
             style="opacity:1;fill:#2e358f;fill-opacity:1;fill-rule:nonzero;stroke:none;stroke-width:0.52042001;stroke-linejoin:miter;stroke-miterlimit:4;stroke-dasharray:none;stroke-opacity:1"
             id="path14-84-71"
             cx="254.72211"
             cy="65.088387"
             r="3.3756974" />
          <circle
             style="opacity:1;fill:#2e358f;fill-opacity:1;fill-rule:nonzero;stroke:none;stroke-width:0.52042001;stroke-linejoin:miter;stroke-miterlimit:4;stroke-dasharray:none;stroke-opacity:1"
             id="path14-1-5-3"
             cx="266.99377"
             cy="68.375404"
             r="3.3756974" />
          <circle
             style="opacity:1;fill:#2e358f;fill-opacity:1;fill-rule:nonzero;stroke:none;stroke-width:0.52042001;stroke-linejoin:miter;stroke-miterlimit:4;stroke-dasharray:none;stroke-opacity:1"
             id="path14-0-1-6"
             cx="279.20074"
             cy="65.091286"
             r="3.3756974" />
          <circle
             style="opacity:1;fill:#2e358f;fill-opacity:1;fill-rule:nonzero;stroke:none;stroke-width:0.52042001;stroke-linejoin:miter;stroke-miterlimit:4;stroke-dasharray:none;stroke-opacity:1"
             id="path14-2-2-6"
             cx="245.8015"
             cy="56.205269"
             r="3.3756974" />
          <circle
             style="opacity:1;fill:#2e358f;fill-opacity:1;fill-rule:nonzero;stroke:none;stroke-width:0.52042001;stroke-linejoin:miter;stroke-miterlimit:4;stroke-dasharray:none;stroke-opacity:1"
             id="path14-8-0-7"
             cx="242.51292"
             cy="43.837128"
             r="3.3756974" />
          <circle
             style="opacity:1;fill:#2e358f;fill-opacity:1;fill-rule:nonzero;stroke:none;stroke-width:0.52042001;stroke-linejoin:miter;stroke-miterlimit:4;stroke-dasharray:none;stroke-opacity:1"
             id="path14-81-0-4"
             cx="245.82011"
             cy="31.454941"
             r="3.3756974" />
          <circle
             style="opacity:1;fill:#2e358f;fill-opacity:1;fill-rule:nonzero;stroke:none;stroke-width:0.52042001;stroke-linejoin:miter;stroke-miterlimit:4;stroke-dasharray:none;stroke-opacity:1"
             id="path14-14-7-2"
             cx="254.70645"
             cy="22.563604"
             r="3.3756974" />
          <circle
             style="opacity:1;fill:#2e358f;fill-opacity:1;fill-rule:nonzero;stroke:none;stroke-width:0.52042001;stroke-linejoin:miter;stroke-miterlimit:4;stroke-dasharray:none;stroke-opacity:1"
             id="path14-18-8-28"
             cx="267.00842"
             cy="19.285412"
             r="3.3756974" />
          <circle
             style="opacity:1;fill:#2e358f;fill-opacity:1;fill-rule:nonzero;stroke:none;stroke-width:0.52042001;stroke-linejoin:miter;stroke-miterlimit:4;stroke-dasharray:none;stroke-opacity:1"
             id="path14-145-2-7"
             cx="279.2012"
             cy="22.573708"
             r="3.3756974" />
        </g>
        <g
           id="g959-1-3">
          <circle
             style="opacity:1;fill:#FFFFFF;fill-opacity:1;fill-rule:nonzero;stroke:none;stroke-width:0.72767544;stroke-linejoin:miter;stroke-miterlimit:4;stroke-dasharray:none;stroke-opacity:1"
             id="path14-0-4-40-4"
             cx="286.52655"
             cy="77.726616"
             r="4.720057" />
          <circle
             style="opacity:1;fill:#FFFFFF;fill-opacity:1;fill-rule:nonzero;stroke:none;stroke-width:0.72767544;stroke-linejoin:miter;stroke-miterlimit:4;stroke-dasharray:none;stroke-opacity:1"
             id="path14-0-4-4-7-6"
             cx="267.02652"
             cy="82.977928"
             r="4.720057" />
          <circle
             style="opacity:1;fill:#FFFFFF;fill-opacity:1;fill-rule:nonzero;stroke:none;stroke-width:0.72767544;stroke-linejoin:miter;stroke-miterlimit:4;stroke-dasharray:none;stroke-opacity:1"
             id="path14-0-4-8-8-2"
             cx="247.49301"
             cy="77.740677"
             r="4.720057" />
          <circle
             style="opacity:1;fill:#FFFFFF;fill-opacity:1;fill-rule:nonzero;stroke:none;stroke-width:0.72767544;stroke-linejoin:miter;stroke-miterlimit:4;stroke-dasharray:none;stroke-opacity:1"
             id="path14-0-4-46-7-2"
             cx="233.21675"
             cy="63.38348"
             r="4.720057" />
          <circle
             style="opacity:1;fill:#FFFFFF;fill-opacity:1;fill-rule:nonzero;stroke:none;stroke-width:0.72767544;stroke-linejoin:miter;stroke-miterlimit:4;stroke-dasharray:none;stroke-opacity:1"
             id="path14-0-4-3-2-6"
             cx="227.9505"
             cy="43.813194"
             r="4.720057" />
          <circle
             style="opacity:1;fill:#FFFFFF;fill-opacity:1;fill-rule:nonzero;stroke:none;stroke-width:0.72767544;stroke-linejoin:miter;stroke-miterlimit:4;stroke-dasharray:none;stroke-opacity:1"
             id="path14-0-4-7-8-1"
             cx="233.20686"
             cy="24.248775"
             r="4.720057" />
          <circle
             style="opacity:1;fill:#FFFFFF;fill-opacity:1;fill-rule:nonzero;stroke:none;stroke-width:0.72767544;stroke-linejoin:miter;stroke-miterlimit:4;stroke-dasharray:none;stroke-opacity:1"
             id="path14-0-4-5-4-4"
             cx="247.33925"
             cy="9.912159"
             r="4.720057" />
          <circle
             style="opacity:1;fill:#FFFFFF;fill-opacity:1;fill-rule:nonzero;stroke:none;stroke-width:0.72767544;stroke-linejoin:miter;stroke-miterlimit:4;stroke-dasharray:none;stroke-opacity:1"
             id="path14-0-4-56-7-6"
             cx="267.01355"
             cy="4.6764827"
             r="4.720057" />
          <circle
             style="opacity:1;fill:#FFFFFF;fill-opacity:1;fill-rule:nonzero;stroke:none;stroke-width:0.72767544;stroke-linejoin:miter;stroke-miterlimit:4;stroke-dasharray:none;stroke-opacity:1"
             id="path14-0-4-2-8-3"
             cx="286.40793"
             cy="9.9039497"
             r="4.720057" />
        </g>
      </g>
      <path
         style="fill:#2e358f;fill-opacity:1;stroke-width:0.10696394"
         d="m 311.8195,43.908917 0.0271,-13.80184 h 7.15462 c 6.36717,0 7.26337,0.0206 8.14273,0.18756 4.70618,0.89327 8.65608,4.1912 10.38677,8.67233 0.77834,2.01528 1.06377,4.95746 0.69539,7.1679 -0.48868,2.93231 -1.7394,5.34267 -3.89107,7.4988 -1.96157,1.96564 -3.95971,3.06592 -6.84439,3.76886 -0.86228,0.21012 -1.27757,0.22336 -8.30296,0.26471 l -7.39529,0.0435 z m 13.74901,7.89027 c 2.08488,-0.32996 3.84116,-1.35913 5.1681,-3.02845 0.60324,-0.75889 1.03124,-1.59121 1.36247,-2.64958 0.36141,-1.15482 0.36226,-3.33074 0.002,-4.49622 -0.94779,-3.06395 -3.53405,-5.26924 -6.65839,-5.67758 -0.52911,-0.0692 -2.29175,-0.10366 -4.35887,-0.0853 l -3.47052,0.0308 -0.0274,8.00893 -0.0274,8.00893 3.65807,-8.6e-4 c 2.01195,-4.3e-4 3.97043,-0.0502 4.35218,-0.11066 z m 11.89886,5.71798 c 0.0643,-0.168 6.43249,-11.29079 7.53467,-13.16009 0.27798,-0.47143 1.15528,-1.99018 1.94958,-3.375 3.49738,-6.09751 5.05541,-8.80606 5.65468,-9.83035 l 0.64251,-1.09822 h 0.65957 0.65957 l 1.64591,2.86608 c 0.90525,1.57634 2.49422,4.3366 3.53105,6.13392 1.03683,1.79733 2.7018,4.69018 3.69994,6.42858 0.99813,1.73839 2.28725,3.98035 2.86469,4.98214 2.31885,4.02289 4.10881,7.1574 4.10881,7.19522 0,0.022 -1.49338,0.0272 -3.31864,0.0117 l -3.31863,-0.0283 -1.07264,-1.84821 -1.07263,-1.84821 -7.75556,0.004 -7.75556,0.004 -1.05838,1.8714 -1.05837,1.87141 h -3.30456 c -3.04496,0 -3.29917,-0.0141 -3.23601,-0.1792 z m 20.77745,-9.40947 c 0,-0.0291 -0.63037,-1.15011 -1.40083,-2.49107 -0.77045,-1.34097 -1.73733,-3.02874 -2.14859,-3.75062 -0.41128,-0.72187 -0.76319,-1.3125 -0.78205,-1.3125 -0.0443,0 -0.9321,1.52032 -3.40979,5.83929 -0.33806,0.58928 -0.70868,1.22812 -0.8236,1.41964 l -0.20895,0.34821 h 4.3869 c 2.4128,0 4.38691,-0.0238 4.38691,-0.053 z m 18.55445,-1.31312 -0.0272,-10.90178 h -5.41937 -5.41937 l 10e-6,-2.91965 2e-5,-2.91964 h 13.77704 13.77706 l -0.0284,2.86607 -0.0284,2.86607 -5.41936,0.0278 -5.41935,0.0278 v 10.92759 10.92759 h -2.88271 -2.88269 z m 12.19973,10.8301 c 0,-0.0841 0.44093,-0.88458 1.22943,-2.23188 0.31039,-0.53036 1.73935,-3.0134 3.17547,-5.51786 1.43614,-2.50446 3.7767,-6.57857 5.20127,-9.05357 1.42457,-2.475 3.24036,-5.63304 4.03508,-7.01786 0.79472,-1.38482 1.60999,-2.79509 1.81169,-3.13393 l 0.36675,-0.61607 0.65967,2.2e-4 0.65968,2.1e-4 1.83233,3.18727 c 1.00777,1.753 2.61021,4.53727 3.56096,6.18727 0.95076,1.65 2.65528,4.61518 3.78782,6.58929 1.13255,1.9741 3.09807,5.39266 4.36784,7.59679 1.26977,2.20413 2.30867,4.02422 2.30867,4.04464 0,0.0204 -1.48782,0.0371 -3.30627,0.0371 h -3.30626 l -0.73415,-1.25893 c -0.40378,-0.69241 -0.88967,-1.53616 -1.07976,-1.875 l -0.34563,-0.61607 -7.7608,0.002 -7.76079,0.002 -1.06446,1.87247 -1.06445,1.87247 h -3.28705 c -1.80788,4e-5 -3.28704,-0.0322 -3.28704,-0.0717 z m 20.82313,-9.52289 c 0,-0.0324 -0.97308,-1.74226 -2.16239,-3.79975 -1.63226,-2.82375 -2.19154,-3.70899 -2.28126,-3.61078 -0.0654,0.0716 -0.96027,1.60064 -1.98866,3.39797 -1.02837,1.79732 -1.97674,3.44866 -2.10748,3.66964 l -0.2377,0.40178 h 4.38874 c 2.41382,0 4.38875,-0.0265 4.38875,-0.0589 z"
         id="path1011-6-5-8"
         inkscape:connector-curvature="0"
         sodipodi:nodetypes="csccscscccccccccccccccccsccccscccsccccccccscccccscccsccccccccccccccccccccccsscccccccssscccccccccccccccccsccc" />
    </g>
    <g
       id="text1139-3"
       style="font-style:normal;font-variant:normal;font-weight:bold;font-stretch:normal;font-size:9.51490879px;line-height:1.25;font-family:Arial;-inkscape-font-specification:'Arial Bold';text-align:center;letter-spacing:0px;word-spacing:0px;text-anchor:middle;fill:#FFFFFF;fill-opacity:1;stroke:#28a9e2;stroke-width:0.1;stroke-miterlimit:4;stroke-dasharray:none;stroke-opacity:1"
       aria-label="COMMITTEE ON DATA">
      <path
         inkscape:connector-curvature="0"
         id="path1019"
         style="font-style:normal;font-variant:normal;font-weight:normal;font-stretch:normal;font-size:8.66839314px;font-family:Gilroy-Regular;-inkscape-font-specification:Gilroy-Regular;letter-spacing:0.85000002px;fill:#FFFFFF;fill-opacity:1;stroke:#28a9e2;stroke-width:0.1;stroke-miterlimit:4;stroke-dasharray:none;stroke-opacity:1"
         d="m -146.03463,22.348152 q -1.37828,0 -2.27979,-0.910181 -0.90151,-0.910182 -0.90151,-2.227778 0,-1.317595 0.90151,-2.227777 0.90151,-0.910181 2.27979,-0.910181 0.84083,0 1.54297,0.407415 0.70214,0.398746 1.08355,1.083549 l -0.53744,0.312062 q -0.28606,-0.554777 -0.8495,-0.884176 -0.56345,-0.329399 -1.23958,-0.329399 -1.13556,0 -1.85504,0.736813 -0.71948,0.736814 -0.71948,1.811694 0,1.074881 0.71948,1.811695 0.71948,0.736813 1.85504,0.736813 0.67613,0 1.23958,-0.329399 0.56344,-0.329399 0.8495,-0.884176 l 0.53744,0.303394 q -0.37274,0.684803 -1.08355,1.092217 -0.70214,0.407415 -1.54297,0.407415 z" />
      <path
         inkscape:connector-curvature="0"
         id="path1021"
         style="font-style:normal;font-variant:normal;font-weight:normal;font-stretch:normal;font-size:8.66839314px;font-family:Gilroy-Regular;-inkscape-font-specification:Gilroy-Regular;letter-spacing:0.85000002px;fill:#FFFFFF;fill-opacity:1;stroke:#28a9e2;stroke-width:0.1;stroke-miterlimit:4;stroke-dasharray:none;stroke-opacity:1"
         d="m -136.5497,21.437971 q -0.91018,0.910181 -2.22777,0.910181 -1.3176,0 -2.22778,-0.910181 -0.91018,-0.91885 -0.91018,-2.227778 0,-1.308927 0.91018,-2.219108 0.91018,-0.91885 2.22778,-0.91885 1.31759,0 2.22777,0.91885 0.91018,0.910181 0.91018,2.219108 0,1.308928 -0.91018,2.227778 z m -4.0308,-0.416083 q 0.72815,0.736813 1.80303,0.736813 1.07488,0 1.80302,-0.736813 0.72815,-0.745482 0.72815,-1.811695 0,-1.066212 -0.72815,-1.803025 -0.72814,-0.745482 -1.80302,-0.745482 -1.07488,0 -1.80303,0.745482 -0.72814,0.736813 -0.72814,1.803025 0,1.066213 0.72814,1.811695 z" />
      <path
         inkscape:connector-curvature="0"
         id="path1023"
         style="font-style:normal;font-variant:normal;font-weight:normal;font-stretch:normal;font-size:8.66839314px;font-family:Gilroy-Regular;-inkscape-font-specification:Gilroy-Regular;letter-spacing:0.85000002px;fill:#FFFFFF;fill-opacity:1;stroke:#28a9e2;stroke-width:0.1;stroke-miterlimit:4;stroke-dasharray:none;stroke-opacity:1"
         d="m -128.19558,16.176256 v 6.067875 h -0.60678 v -5.149025 l -2.12376,3.554041 h -0.0867 l -2.12376,-3.554041 v 5.149025 h -0.60679 v -6.067875 h 0.75415 l 2.01974,3.380673 2.01973,-3.380673 z" />
      <path
         inkscape:connector-curvature="0"
         id="path1025"
         style="font-style:normal;font-variant:normal;font-weight:normal;font-stretch:normal;font-size:8.66839314px;font-family:Gilroy-Regular;-inkscape-font-specification:Gilroy-Regular;letter-spacing:0.85000002px;fill:#FFFFFF;fill-opacity:1;stroke:#28a9e2;stroke-width:0.1;stroke-miterlimit:4;stroke-dasharray:none;stroke-opacity:1"
         d="m -120.40409,16.176256 v 6.067875 h -0.60679 v -5.149025 l -2.12375,3.554041 h -0.0867 l -2.12375,-3.554041 v 5.149025 h -0.60679 v -6.067875 h 0.75415 l 2.01973,3.380673 2.01974,-3.380673 z" />
      <path
         inkscape:connector-curvature="0"
         id="path1027"
         style="font-style:normal;font-variant:normal;font-weight:normal;font-stretch:normal;font-size:8.66839314px;font-family:Gilroy-Regular;-inkscape-font-specification:Gilroy-Regular;letter-spacing:0.85000002px;fill:#FFFFFF;fill-opacity:1;stroke:#28a9e2;stroke-width:0.1;stroke-miterlimit:4;stroke-dasharray:none;stroke-opacity:1"
         d="m -118.16038,16.176256 h 0.60679 v 6.067875 h -0.60679 z" />
      <path
         inkscape:connector-curvature="0"
         id="path1029"
         style="font-style:normal;font-variant:normal;font-weight:normal;font-stretch:normal;font-size:8.66839314px;font-family:Gilroy-Regular;-inkscape-font-specification:Gilroy-Regular;letter-spacing:0.85000002px;fill:#FFFFFF;fill-opacity:1;stroke:#28a9e2;stroke-width:0.1;stroke-miterlimit:4;stroke-dasharray:none;stroke-opacity:1"
         d="m -111.49849,16.176256 v 0.572114 h -1.8637 v 5.495761 h -0.60679 V 16.74837 h -1.86371 v -0.572114 z" />
      <path
         inkscape:connector-curvature="0"
         id="path1031"
         style="font-style:normal;font-variant:normal;font-weight:normal;font-stretch:normal;font-size:8.66839314px;font-family:Gilroy-Regular;-inkscape-font-specification:Gilroy-Regular;letter-spacing:0.85000002px;fill:#FFFFFF;fill-opacity:1;stroke:#28a9e2;stroke-width:0.1;stroke-miterlimit:4;stroke-dasharray:none;stroke-opacity:1"
         d="m -105.97568,16.176256 v 0.572114 h -1.8637 v 5.495761 h -0.60679 V 16.74837 h -1.86371 v -0.572114 z" />
      <path
         inkscape:connector-curvature="0"
         id="path1033"
         style="font-style:normal;font-variant:normal;font-weight:normal;font-stretch:normal;font-size:8.66839314px;font-family:Gilroy-Regular;-inkscape-font-specification:Gilroy-Regular;letter-spacing:0.85000002px;fill:#FFFFFF;fill-opacity:1;stroke:#28a9e2;stroke-width:0.1;stroke-miterlimit:4;stroke-dasharray:none;stroke-opacity:1"
         d="m -103.66018,21.672017 h 2.94725 v 0.572114 h -3.55404 v -6.067875 h 3.5107 v 0.572114 h -2.90391 v 2.149761 h 2.6872 v 0.572114 h -2.6872 z" />
      <path
         inkscape:connector-curvature="0"
         id="path1035"
         style="font-style:normal;font-variant:normal;font-weight:normal;font-stretch:normal;font-size:8.66839314px;font-family:Gilroy-Regular;-inkscape-font-specification:Gilroy-Regular;letter-spacing:0.85000002px;fill:#FFFFFF;fill-opacity:1;stroke:#28a9e2;stroke-width:0.1;stroke-miterlimit:4;stroke-dasharray:none;stroke-opacity:1"
         d="m -98.222029,21.672017 h 2.947253 v 0.572114 h -3.554041 v -6.067875 h 3.510699 v 0.572114 h -2.903911 v 2.149761 h 2.687202 v 0.572114 h -2.687202 z" />
      <path
         inkscape:connector-curvature="0"
         id="path1037"
         style="font-style:normal;font-variant:normal;font-weight:normal;font-stretch:normal;font-size:8.66839314px;font-family:Gilroy-Regular;-inkscape-font-specification:Gilroy-Regular;letter-spacing:0.85000002px;fill:#FFFFFF;fill-opacity:1;stroke:#28a9e2;stroke-width:0.1;stroke-miterlimit:4;stroke-dasharray:none;stroke-opacity:1"
         d="m -85.354564,21.437971 q -0.910181,0.910181 -2.227777,0.910181 -1.317595,0 -2.227777,-0.910181 -0.910181,-0.91885 -0.910181,-2.227778 0,-1.308927 0.910181,-2.219108 0.910182,-0.91885 2.227777,-0.91885 1.317596,0 2.227777,0.91885 0.910182,0.910181 0.910182,2.219108 0,1.308928 -0.910182,2.227778 z m -4.030802,-0.416083 q 0.728145,0.736813 1.803025,0.736813 1.074881,0 1.803026,-0.736813 0.728145,-0.745482 0.728145,-1.811695 0,-1.066212 -0.728145,-1.803025 -0.728145,-0.745482 -1.803026,-0.745482 -1.07488,0 -1.803025,0.745482 -0.728145,0.736813 -0.728145,1.803025 0,1.066213 0.728145,1.811695 z" />
      <path
         inkscape:connector-curvature="0"
         id="path1039"
         style="font-style:normal;font-variant:normal;font-weight:normal;font-stretch:normal;font-size:8.66839314px;font-family:Gilroy-Regular;-inkscape-font-specification:Gilroy-Regular;letter-spacing:0.85000002px;fill:#FFFFFF;fill-opacity:1;stroke:#28a9e2;stroke-width:0.1;stroke-miterlimit:4;stroke-dasharray:none;stroke-opacity:1"
         d="m -78.647438,16.176256 h 0.606787 v 6.067875 h -0.520103 l -3.380674,-4.940984 v 4.940984 h -0.606787 v -6.067875 h 0.520103 l 3.380674,4.940984 z" />
      <path
         inkscape:connector-curvature="0"
         id="path1041"
         style="font-style:normal;font-variant:normal;font-weight:normal;font-stretch:normal;font-size:8.66839314px;font-family:Gilroy-Regular;-inkscape-font-specification:Gilroy-Regular;letter-spacing:0.85000002px;fill:#FFFFFF;fill-opacity:1;stroke:#28a9e2;stroke-width:0.1;stroke-miterlimit:4;stroke-dasharray:none;stroke-opacity:1"
         d="m -70.448853,16.176256 q 1.23958,0 2.04574,0.884176 0.814829,0.875508 0.814829,2.149761 0,1.274254 -0.814829,2.15843 -0.80616,0.875508 -2.04574,0.875508 h -2.340466 v -6.067875 z m 0,5.495761 q 0.996865,0 1.629658,-0.710808 0.641461,-0.710808 0.641461,-1.751016 0,-1.040207 -0.641461,-1.751015 -0.632793,-0.710808 -1.629658,-0.710808 h -1.733679 v 4.923647 z" />
      <path
         inkscape:connector-curvature="0"
         id="path1043"
         style="font-style:normal;font-variant:normal;font-weight:normal;font-stretch:normal;font-size:8.66839314px;font-family:Gilroy-Regular;-inkscape-font-specification:Gilroy-Regular;letter-spacing:0.85000002px;fill:#FFFFFF;fill-opacity:1;stroke:#28a9e2;stroke-width:0.1;stroke-miterlimit:4;stroke-dasharray:none;stroke-opacity:1"
         d="m -61.872605,22.244131 -0.563446,-1.490964 h -2.877906 l -0.563446,1.490964 h -0.641461 l 2.331798,-6.067875 h 0.624124 l 2.331798,6.067875 z m -3.224642,-2.063077 h 2.444486 l -1.222243,-3.250648 z" />
      <path
         inkscape:connector-curvature="0"
         id="path1045"
         style="font-style:normal;font-variant:normal;font-weight:normal;font-stretch:normal;font-size:8.66839314px;font-family:Gilroy-Regular;-inkscape-font-specification:Gilroy-Regular;letter-spacing:0.85000002px;fill:#FFFFFF;fill-opacity:1;stroke:#28a9e2;stroke-width:0.1;stroke-miterlimit:4;stroke-dasharray:none;stroke-opacity:1"
         d="m -56.219642,16.176256 v 0.572114 h -1.863704 v 5.495761 h -0.606788 V 16.74837 h -1.863704 v -0.572114 z" />
      <path
         inkscape:connector-curvature="0"
         id="path1047"
         style="font-style:normal;font-variant:normal;font-weight:normal;font-stretch:normal;font-size:8.66839314px;font-family:Gilroy-Regular;-inkscape-font-specification:Gilroy-Regular;letter-spacing:0.85000002px;fill:#FFFFFF;fill-opacity:1;stroke:#28a9e2;stroke-width:0.1;stroke-miterlimit:4;stroke-dasharray:none;stroke-opacity:1"
         d="m -50.911645,22.244131 -0.563445,-1.490964 h -2.877907 l -0.563445,1.490964 h -0.641462 l 2.331798,-6.067875 h 0.624125 l 2.331797,6.067875 z m -3.224642,-2.063077 h 2.444487 l -1.222244,-3.250648 z" />
    </g>
    <g
       id="text1143-1"
       style="font-style:normal;font-variant:normal;font-weight:normal;font-stretch:normal;font-size:20px;line-height:1.25;font-family:sans-serif;-inkscape-font-specification:sans-serif;text-align:center;letter-spacing:0px;word-spacing:0px;text-anchor:middle;fill:#FFFFFF;fill-opacity:1;stroke:#28a9e2;stroke-width:0.1;stroke-miterlimit:4;stroke-dasharray:none;stroke-opacity:1"
       aria-label="INTERNATIONAL ">
      <path
         inkscape:connector-curvature="0"
         id="path1050"
         style="font-style:normal;font-variant:normal;font-weight:normal;font-stretch:normal;font-size:8.66839314px;font-family:Gilroy-Regular;-inkscape-font-specification:Gilroy-Regular;letter-spacing:0.85000002px;fill:#FFFFFF;fill-opacity:1;stroke:#28a9e2;stroke-width:0.1;stroke-miterlimit:4;stroke-dasharray:none;stroke-opacity:1"
         d="m -148.86239,67.208545 h 0.60679 v 6.067876 h -0.60679 z" />
      <path
         inkscape:connector-curvature="0"
         id="path1052"
         style="font-style:normal;font-variant:normal;font-weight:normal;font-stretch:normal;font-size:8.66839314px;font-family:Gilroy-Regular;-inkscape-font-specification:Gilroy-Regular;letter-spacing:0.85000002px;fill:#FFFFFF;fill-opacity:1;stroke:#28a9e2;stroke-width:0.1;stroke-miterlimit:4;stroke-dasharray:none;stroke-opacity:1"
         d="m -142.11382,67.208545 h 0.60679 v 6.067876 h -0.52011 l -3.38067,-4.940984 v 4.940984 h -0.60679 v -6.067876 h 0.52011 l 3.38067,4.940984 z" />
      <path
         inkscape:connector-curvature="0"
         id="path1054"
         style="font-style:normal;font-variant:normal;font-weight:normal;font-stretch:normal;font-size:8.66839314px;font-family:Gilroy-Regular;-inkscape-font-specification:Gilroy-Regular;letter-spacing:0.85000002px;fill:#FFFFFF;fill-opacity:1;stroke:#28a9e2;stroke-width:0.1;stroke-miterlimit:4;stroke-dasharray:none;stroke-opacity:1"
         d="m -135.45871,67.208545 v 0.572114 h -1.8637 v 5.495762 h -0.60679 v -5.495762 h -1.8637 v -0.572114 z" />
      <path
         inkscape:connector-curvature="0"
         id="path1056"
         style="font-style:normal;font-variant:normal;font-weight:normal;font-stretch:normal;font-size:8.66839314px;font-family:Gilroy-Regular;-inkscape-font-specification:Gilroy-Regular;letter-spacing:0.85000002px;fill:#FFFFFF;fill-opacity:1;stroke:#28a9e2;stroke-width:0.1;stroke-miterlimit:4;stroke-dasharray:none;stroke-opacity:1"
         d="m -133.14321,72.704307 h 2.94726 v 0.572114 h -3.55404 v -6.067876 h 3.5107 v 0.572114 h -2.90392 v 2.149762 h 2.68721 v 0.572114 h -2.68721 z" />
      <path
         inkscape:connector-curvature="0"
         id="path1058"
         style="font-style:normal;font-variant:normal;font-weight:normal;font-stretch:normal;font-size:8.66839314px;font-family:Gilroy-Regular;-inkscape-font-specification:Gilroy-Regular;letter-spacing:0.85000002px;fill:#FFFFFF;fill-opacity:1;stroke:#28a9e2;stroke-width:0.1;stroke-miterlimit:4;stroke-dasharray:none;stroke-opacity:1"
         d="m -124.58443,73.276421 -1.42162,-2.42715 h -1.699 v 2.42715 h -0.60679 v -6.067876 h 2.42715 q 0.75415,0 1.28292,0.537441 0.53744,0.528772 0.53744,1.282922 0,0.615456 -0.37274,1.100886 -0.36407,0.476762 -0.93618,0.641461 l 1.48229,2.505166 z m -3.12062,-5.495762 v 2.496498 h 1.82036 q 0.50277,0 0.85817,-0.364073 0.35541,-0.372741 0.35541,-0.884176 0,-0.520104 -0.35541,-0.884176 -0.3554,-0.364073 -0.85817,-0.364073 z" />
      <path
         inkscape:connector-curvature="0"
         id="path1060"
         style="font-style:normal;font-variant:normal;font-weight:normal;font-stretch:normal;font-size:8.66839314px;font-family:Gilroy-Regular;-inkscape-font-specification:Gilroy-Regular;letter-spacing:0.85000002px;fill:#FFFFFF;fill-opacity:1;stroke:#28a9e2;stroke-width:0.1;stroke-miterlimit:4;stroke-dasharray:none;stroke-opacity:1"
         d="m -118.27876,67.208545 h 0.60679 v 6.067876 h -0.52011 l -3.38067,-4.940984 v 4.940984 h -0.60679 v -6.067876 h 0.52011 l 3.38067,4.940984 z" />
      <path
         inkscape:connector-curvature="0"
         id="path1062"
         style="font-style:normal;font-variant:normal;font-weight:normal;font-stretch:normal;font-size:8.66839314px;font-family:Gilroy-Regular;-inkscape-font-specification:Gilroy-Regular;letter-spacing:0.85000002px;fill:#FFFFFF;fill-opacity:1;stroke:#28a9e2;stroke-width:0.1;stroke-miterlimit:4;stroke-dasharray:none;stroke-opacity:1"
         d="m -111.39827,73.276421 -0.56344,-1.490964 h -2.87791 l -0.56345,1.490964 h -0.64146 l 2.3318,-6.067876 h 0.62412 l 2.3318,6.067876 z m -3.22464,-2.063078 h 2.44449 l -1.22225,-3.250647 z" />
      <path
         inkscape:connector-curvature="0"
         id="path1064"
         style="font-style:normal;font-variant:normal;font-weight:normal;font-stretch:normal;font-size:8.66839314px;font-family:Gilroy-Regular;-inkscape-font-specification:Gilroy-Regular;letter-spacing:0.85000002px;fill:#FFFFFF;fill-opacity:1;stroke:#28a9e2;stroke-width:0.1;stroke-miterlimit:4;stroke-dasharray:none;stroke-opacity:1"
         d="m -105.7453,67.208545 v 0.572114 h -1.86371 v 5.495762 h -0.60678 v -5.495762 h -1.86371 v -0.572114 z" />
      <path
         inkscape:connector-curvature="0"
         id="path1066"
         style="font-style:normal;font-variant:normal;font-weight:normal;font-stretch:normal;font-size:8.66839314px;font-family:Gilroy-Regular;-inkscape-font-specification:Gilroy-Regular;letter-spacing:0.85000002px;fill:#FFFFFF;fill-opacity:1;stroke:#28a9e2;stroke-width:0.1;stroke-miterlimit:4;stroke-dasharray:none;stroke-opacity:1"
         d="m -104.03659,67.208545 h 0.60679 v 6.067876 h -0.60679 z" />
      <path
         inkscape:connector-curvature="0"
         id="path1068"
         style="font-style:normal;font-variant:normal;font-weight:normal;font-stretch:normal;font-size:8.66839314px;font-family:Gilroy-Regular;-inkscape-font-specification:Gilroy-Regular;letter-spacing:0.85000002px;fill:#FFFFFF;fill-opacity:1;stroke:#28a9e2;stroke-width:0.1;stroke-miterlimit:4;stroke-dasharray:none;stroke-opacity:1"
         d="m -96.169797,72.47026 q -0.910181,0.910181 -2.227777,0.910181 -1.317595,0 -2.227776,-0.910181 -0.91018,-0.91885 -0.91018,-2.227777 0,-1.308927 0.91018,-2.219109 0.910181,-0.918849 2.227776,-0.918849 1.317596,0 2.227777,0.918849 0.910182,0.910182 0.910182,2.219109 0,1.308927 -0.910182,2.227777 z m -4.030803,-0.416083 q 0.728146,0.736814 1.803026,0.736814 1.074881,0 1.803026,-0.736814 0.728145,-0.745482 0.728145,-1.811694 0,-1.066212 -0.728145,-1.803026 -0.728145,-0.745482 -1.803026,-0.745482 -1.07488,0 -1.803026,0.745482 -0.72814,0.736814 -0.72814,1.803026 0,1.066212 0.72814,1.811694 z" />
      <path
         inkscape:connector-curvature="0"
         id="path1070"
         style="font-style:normal;font-variant:normal;font-weight:normal;font-stretch:normal;font-size:8.66839314px;font-family:Gilroy-Regular;-inkscape-font-specification:Gilroy-Regular;letter-spacing:0.85000002px;fill:#FFFFFF;fill-opacity:1;stroke:#28a9e2;stroke-width:0.1;stroke-miterlimit:4;stroke-dasharray:none;stroke-opacity:1"
         d="m -89.462671,67.208545 h 0.606787 v 6.067876 h -0.520104 l -3.380673,-4.940984 v 4.940984 h -0.606787 v -6.067876 h 0.520103 l 3.380674,4.940984 z" />
      <path
         inkscape:connector-curvature="0"
         id="path1072"
         style="font-style:normal;font-variant:normal;font-weight:normal;font-stretch:normal;font-size:8.66839314px;font-family:Gilroy-Regular;-inkscape-font-specification:Gilroy-Regular;letter-spacing:0.85000002px;fill:#FFFFFF;fill-opacity:1;stroke:#28a9e2;stroke-width:0.1;stroke-miterlimit:4;stroke-dasharray:none;stroke-opacity:1"
         d="m -82.582179,73.276421 -0.563445,-1.490964 h -2.877907 l -0.563445,1.490964 h -0.641462 l 2.331798,-6.067876 h 0.624125 l 2.331797,6.067876 z m -3.224642,-2.063078 h 2.444487 l -1.222244,-3.250647 z" />
      <path
         inkscape:connector-curvature="0"
         id="path1074"
         style="font-style:normal;font-variant:normal;font-weight:normal;font-stretch:normal;font-size:8.66839314px;font-family:Gilroy-Regular;-inkscape-font-specification:Gilroy-Regular;letter-spacing:0.85000002px;fill:#FFFFFF;fill-opacity:1;stroke:#28a9e2;stroke-width:0.1;stroke-miterlimit:4;stroke-dasharray:none;stroke-opacity:1"
         d="m -79.696324,72.704307 h 2.773886 v 0.572114 h -3.380673 v -6.067876 h 0.606787 z" />
    </g>
    <g
       id="text1153-5"
       style="font-style:normal;font-variant:normal;font-weight:bold;font-stretch:normal;font-size:20px;line-height:1.25;font-family:Arial;-inkscape-font-specification:'Arial Bold';text-align:center;letter-spacing:0px;word-spacing:0px;text-anchor:middle;fill:#FFFFFF;fill-opacity:1;stroke:#28a9e2;stroke-width:0.1;stroke-miterlimit:4;stroke-dasharray:none;stroke-opacity:1"
       aria-label="SCIENCE COUNCIL">
      <path
         inkscape:connector-curvature="0"
         id="path1077"
         style="font-style:normal;font-variant:normal;font-weight:normal;font-stretch:normal;font-size:8.66839314px;font-family:Gilroy-Regular;-inkscape-font-specification:Gilroy-Regular;letter-spacing:0.85000002px;fill:#FFFFFF;fill-opacity:1;stroke:#28a9e2;stroke-width:0.1;stroke-miterlimit:4;stroke-dasharray:none;stroke-opacity:1"
         d="m -146.93923,84.973825 q -0.83216,0 -1.43028,-0.390078 -0.58945,-0.398746 -0.8235,-1.092217 l 0.52011,-0.303394 q 0.16469,0.563446 0.60678,0.884176 0.44209,0.312062 1.13556,0.312062 0.67614,0 1.04888,-0.294725 0.38141,-0.303394 0.38141,-0.797492 0,-0.476762 -0.34674,-0.719477 -0.34673,-0.242715 -1.14423,-0.502767 -0.94485,-0.312062 -1.24824,-0.502766 -0.69348,-0.416083 -0.69348,-1.204907 0,-0.771487 0.53744,-1.213575 0.53744,-0.450757 1.32627,-0.450757 0.71081,0 1.23091,0.372741 0.5201,0.364073 0.77149,0.936187 l -0.51144,0.286057 q -0.41608,-1.005534 -1.49096,-1.005534 -0.56345,0 -0.91018,0.277389 -0.34674,0.277388 -0.34674,0.771487 0,0.450756 0.31206,0.676134 0.31207,0.225379 1.03154,0.459425 0.3294,0.112689 0.4681,0.1647 0.14736,0.04334 0.41608,0.156031 0.27739,0.104021 0.40741,0.190704 0.13003,0.07802 0.31206,0.225379 0.19071,0.138694 0.26873,0.286057 0.0867,0.138694 0.14736,0.346735 0.0693,0.199373 0.0693,0.43342 0,0.771487 -0.56344,1.23958 -0.56345,0.459425 -1.4823,0.459425 z" />
      <path
         inkscape:connector-curvature="0"
         id="path1079"
         style="font-style:normal;font-variant:normal;font-weight:normal;font-stretch:normal;font-size:8.66839314px;font-family:Gilroy-Regular;-inkscape-font-specification:Gilroy-Regular;letter-spacing:0.85000002px;fill:#FFFFFF;fill-opacity:1;stroke:#28a9e2;stroke-width:0.1;stroke-miterlimit:4;stroke-dasharray:none;stroke-opacity:1"
         d="m -140.21801,84.973825 q -1.37828,0 -2.27979,-0.910181 -0.90152,-0.910181 -0.90152,-2.227777 0,-1.317596 0.90152,-2.227777 0.90151,-0.910182 2.27979,-0.910182 0.84083,0 1.54297,0.407415 0.70214,0.398746 1.08355,1.083549 l -0.53744,0.312062 q -0.28606,-0.554777 -0.8495,-0.884176 -0.56345,-0.329399 -1.23958,-0.329399 -1.13556,0 -1.85504,0.736814 -0.71948,0.736813 -0.71948,1.811694 0,1.074881 0.71948,1.811694 0.71948,0.736813 1.85504,0.736813 0.67613,0 1.23958,-0.329399 0.56344,-0.329399 0.8495,-0.884176 l 0.53744,0.303394 q -0.37274,0.684803 -1.08355,1.092218 -0.70214,0.407414 -1.54297,0.407414 z" />
      <path
         inkscape:connector-curvature="0"
         id="path1081"
         style="font-style:normal;font-variant:normal;font-weight:normal;font-stretch:normal;font-size:8.66839314px;font-family:Gilroy-Regular;-inkscape-font-specification:Gilroy-Regular;letter-spacing:0.85000002px;fill:#FFFFFF;fill-opacity:1;stroke:#28a9e2;stroke-width:0.1;stroke-miterlimit:4;stroke-dasharray:none;stroke-opacity:1"
         d="m -135.75208,78.801929 h 0.60679 v 6.067875 h -0.60679 z" />
      <path
         inkscape:connector-curvature="0"
         id="path1083"
         style="font-style:normal;font-variant:normal;font-weight:normal;font-stretch:normal;font-size:8.66839314px;font-family:Gilroy-Regular;-inkscape-font-specification:Gilroy-Regular;letter-spacing:0.85000002px;fill:#FFFFFF;fill-opacity:1;stroke:#28a9e2;stroke-width:0.1;stroke-miterlimit:4;stroke-dasharray:none;stroke-opacity:1"
         d="m -132.29749,84.29769 h 2.94725 v 0.572114 h -3.55404 v -6.067875 h 3.5107 v 0.572114 h -2.90391 v 2.149762 h 2.6872 v 0.572114 h -2.6872 z" />
      <path
         inkscape:connector-curvature="0"
         id="path1085"
         style="font-style:normal;font-variant:normal;font-weight:normal;font-stretch:normal;font-size:8.66839314px;font-family:Gilroy-Regular;-inkscape-font-specification:Gilroy-Regular;letter-spacing:0.85000002px;fill:#FFFFFF;fill-opacity:1;stroke:#28a9e2;stroke-width:0.1;stroke-miterlimit:4;stroke-dasharray:none;stroke-opacity:1"
         d="m -123.56535,78.801929 h 0.60679 v 6.067875 h -0.52011 l -3.38067,-4.940984 v 4.940984 h -0.60679 v -6.067875 h 0.52011 l 3.38067,4.940984 z" />
      <path
         inkscape:connector-curvature="0"
         id="path1087"
         style="font-style:normal;font-variant:normal;font-weight:normal;font-stretch:normal;font-size:8.66839314px;font-family:Gilroy-Regular;-inkscape-font-specification:Gilroy-Regular;letter-spacing:0.85000002px;fill:#FFFFFF;fill-opacity:1;stroke:#28a9e2;stroke-width:0.1;stroke-miterlimit:4;stroke-dasharray:none;stroke-opacity:1"
         d="m -117.88977,84.973825 q -1.37827,0 -2.27978,-0.910181 -0.90152,-0.910181 -0.90152,-2.227777 0,-1.317596 0.90152,-2.227777 0.90151,-0.910182 2.27978,-0.910182 0.84084,0 1.54298,0.407415 0.70214,0.398746 1.08355,1.083549 l -0.53744,0.312062 q -0.28606,-0.554777 -0.84951,-0.884176 -0.56344,-0.329399 -1.23958,-0.329399 -1.13555,0 -1.85503,0.736814 -0.71948,0.736813 -0.71948,1.811694 0,1.074881 0.71948,1.811694 0.71948,0.736813 1.85503,0.736813 0.67614,0 1.23958,-0.329399 0.56345,-0.329399 0.84951,-0.884176 l 0.53744,0.303394 q -0.37274,0.684803 -1.08355,1.092218 -0.70214,0.407414 -1.54298,0.407414 z" />
      <path
         inkscape:connector-curvature="0"
         id="path1089"
         style="font-style:normal;font-variant:normal;font-weight:normal;font-stretch:normal;font-size:8.66839314px;font-family:Gilroy-Regular;-inkscape-font-specification:Gilroy-Regular;letter-spacing:0.85000002px;fill:#FFFFFF;fill-opacity:1;stroke:#28a9e2;stroke-width:0.1;stroke-miterlimit:4;stroke-dasharray:none;stroke-opacity:1"
         d="m -112.81704,84.29769 h 2.94726 v 0.572114 h -3.55405 v -6.067875 h 3.5107 v 0.572114 h -2.90391 v 2.149762 h 2.6872 v 0.572114 h -2.6872 z" />
      <path
         inkscape:connector-curvature="0"
         id="path1091"
         style="font-style:normal;font-variant:normal;font-weight:normal;font-stretch:normal;font-size:8.66839314px;font-family:Gilroy-Regular;-inkscape-font-specification:Gilroy-Regular;letter-spacing:0.85000002px;fill:#FFFFFF;fill-opacity:1;stroke:#28a9e2;stroke-width:0.1;stroke-miterlimit:4;stroke-dasharray:none;stroke-opacity:1"
         d="m -102.13401,84.973825 q -1.37828,0 -2.27979,-0.910181 -0.90151,-0.910181 -0.90151,-2.227777 0,-1.317596 0.90151,-2.227777 0.90151,-0.910182 2.27979,-0.910182 0.84083,0 1.54297,0.407415 0.702143,0.398746 1.083552,1.083549 l -0.537442,0.312062 q -0.28606,-0.554777 -0.8495,-0.884176 -0.56345,-0.329399 -1.23958,-0.329399 -1.13556,0 -1.85504,0.736814 -0.71947,0.736813 -0.71947,1.811694 0,1.074881 0.71947,1.811694 0.71948,0.736813 1.85504,0.736813 0.67613,0 1.23958,-0.329399 0.56344,-0.329399 0.8495,-0.884176 l 0.537442,0.303394 q -0.372741,0.684803 -1.083552,1.092218 -0.70214,0.407414 -1.54297,0.407414 z" />
      <path
         inkscape:connector-curvature="0"
         id="path1093"
         style="font-style:normal;font-variant:normal;font-weight:normal;font-stretch:normal;font-size:8.66839314px;font-family:Gilroy-Regular;-inkscape-font-specification:Gilroy-Regular;letter-spacing:0.85000002px;fill:#FFFFFF;fill-opacity:1;stroke:#28a9e2;stroke-width:0.1;stroke-miterlimit:4;stroke-dasharray:none;stroke-opacity:1"
         d="m -92.649073,84.063644 q -0.910181,0.910181 -2.227777,0.910181 -1.317596,0 -2.227777,-0.910181 -0.910181,-0.91885 -0.910181,-2.227777 0,-1.308928 0.910181,-2.219109 0.910181,-0.91885 2.227777,-0.91885 1.317596,0 2.227777,0.91885 0.910181,0.910181 0.910181,2.219109 0,1.308927 -0.910181,2.227777 z m -4.030803,-0.416083 q 0.728145,0.736813 1.803026,0.736813 1.074881,0 1.803026,-0.736813 0.728145,-0.745482 0.728145,-1.811694 0,-1.066213 -0.728145,-1.803026 -0.728145,-0.745482 -1.803026,-0.745482 -1.074881,0 -1.803026,0.745482 -0.728145,0.736813 -0.728145,1.803026 0,1.066212 0.728145,1.811694 z" />
      <path
         inkscape:connector-curvature="0"
         id="path1095"
         style="font-style:normal;font-variant:normal;font-weight:normal;font-stretch:normal;font-size:8.66839314px;font-family:Gilroy-Regular;-inkscape-font-specification:Gilroy-Regular;letter-spacing:0.85000002px;fill:#FFFFFF;fill-opacity:1;stroke:#28a9e2;stroke-width:0.1;stroke-miterlimit:4;stroke-dasharray:none;stroke-opacity:1"
         d="m -86.096757,84.384374 q -0.624125,0.589451 -1.629658,0.589451 -1.005534,0 -1.629658,-0.589451 -0.624125,-0.58945 -0.624125,-1.577647 v -4.004798 h 0.606788 v 4.004798 q 0,0.728145 0.43342,1.152896 0.433419,0.424751 1.213575,0.424751 0.780155,0 1.213575,-0.424751 0.433419,-0.424751 0.433419,-1.152896 v -4.004798 h 0.606788 v 4.004798 q 0,0.988197 -0.624124,1.577647 z" />
      <path
         inkscape:connector-curvature="0"
         id="path1097"
         style="font-style:normal;font-variant:normal;font-weight:normal;font-stretch:normal;font-size:8.66839314px;font-family:Gilroy-Regular;-inkscape-font-specification:Gilroy-Regular;letter-spacing:0.85000002px;fill:#FFFFFF;fill-opacity:1;stroke:#28a9e2;stroke-width:0.1;stroke-miterlimit:4;stroke-dasharray:none;stroke-opacity:1"
         d="m -79.420242,78.801929 h 0.606787 v 6.067875 h -0.520103 l -3.380674,-4.940984 v 4.940984 h -0.606787 v -6.067875 h 0.520103 l 3.380674,4.940984 z" />
      <path
         inkscape:connector-curvature="0"
         id="path1099"
         style="font-style:normal;font-variant:normal;font-weight:normal;font-stretch:normal;font-size:8.66839314px;font-family:Gilroy-Regular;-inkscape-font-specification:Gilroy-Regular;letter-spacing:0.85000002px;fill:#FFFFFF;fill-opacity:1;stroke:#28a9e2;stroke-width:0.1;stroke-miterlimit:4;stroke-dasharray:none;stroke-opacity:1"
         d="m -73.744656,84.973825 q -1.378275,0 -2.279788,-0.910181 -0.901512,-0.910181 -0.901512,-2.227777 0,-1.317596 0.901512,-2.227777 0.901513,-0.910182 2.279788,-0.910182 0.840834,0 1.542974,0.407415 0.70214,0.398746 1.083549,1.083549 l -0.53744,0.312062 q -0.286057,-0.554777 -0.849503,-0.884176 -0.563445,-0.329399 -1.23958,-0.329399 -1.13556,0 -1.855036,0.736814 -0.719477,0.736813 -0.719477,1.811694 0,1.074881 0.719477,1.811694 0.719476,0.736813 1.855036,0.736813 0.676135,0 1.23958,-0.329399 0.563446,-0.329399 0.849503,-0.884176 l 0.53744,0.303394 q -0.372741,0.684803 -1.083549,1.092218 -0.70214,0.407414 -1.542974,0.407414 z" />
      <path
         inkscape:connector-curvature="0"
         id="path1101"
         style="font-style:normal;font-variant:normal;font-weight:normal;font-stretch:normal;font-size:8.66839314px;font-family:Gilroy-Regular;-inkscape-font-specification:Gilroy-Regular;letter-spacing:0.85000002px;fill:#FFFFFF;fill-opacity:1;stroke:#28a9e2;stroke-width:0.1;stroke-miterlimit:4;stroke-dasharray:none;stroke-opacity:1"
         d="m -69.278722,78.801929 h 0.606788 v 6.067875 h -0.606788 z" />
      <path
         inkscape:connector-curvature="0"
         id="path1103"
         style="font-style:normal;font-variant:normal;font-weight:normal;font-stretch:normal;font-size:8.66839314px;font-family:Gilroy-Regular;-inkscape-font-specification:Gilroy-Regular;letter-spacing:0.85000002px;fill:#FFFFFF;fill-opacity:1;stroke:#28a9e2;stroke-width:0.1;stroke-miterlimit:4;stroke-dasharray:none;stroke-opacity:1"
         d="m -65.824141,84.29769 h 2.773886 v 0.572114 h -3.380673 v -6.067875 h 0.606787 z" />
    </g>
  </g>
</svg>
