<?xml version="1.0" encoding="utf-8"?>
<!-- Generator: Adobe Illustrator 25.4.1, SVG Export Plug-In . SVG Version: 6.00 Build 0)  -->
<svg version="1.1" id="Calque_1" xmlns="http://www.w3.org/2000/svg" xmlns:xlink="http://www.w3.org/1999/xlink" x="0px" y="0px"
	 viewBox="0 0 128.11 639.76" style="enable-background:new 0 0 128.11 639.76;" xml:space="preserve">
<style type="text/css">
	.st0{enable-background:new    ;}
	.st1{fill:#243A7D;}
</style>
<g class="st0">
	<g>
		<path class="st1" d="M50.16,447.47c0.58,0.38,1.12,0.86,1.63,1.42s0.96,1.21,1.33,1.94c0.37,0.73,0.67,1.51,0.88,2.35
			c0.21,0.84,0.32,1.73,0.32,2.67c0,1.69-0.3,3.25-0.9,4.69c-0.6,1.44-1.42,2.69-2.48,3.74c-1.06,1.06-2.31,1.88-3.76,2.48
			c-1.45,0.6-3.04,0.9-4.77,0.9c-1.73,0-3.32-0.3-4.77-0.9c-1.45-0.6-2.7-1.42-3.76-2.48c-1.06-1.06-1.88-2.3-2.48-3.74
			c-0.6-1.44-0.9-3-0.9-4.69c0-1.41,0.28-2.82,0.83-4.22c0.56-1.41,1.47-2.61,2.75-3.62l1.5,2.02c-0.36,0.24-0.73,0.56-1.09,0.96
			c-0.36,0.41-0.68,0.87-0.96,1.39c-0.28,0.52-0.5,1.08-0.67,1.68c-0.17,0.6-0.26,1.2-0.26,1.79c0,1.45,0.27,2.75,0.8,3.9
			c0.53,1.15,1.25,2.13,2.14,2.93c0.9,0.8,1.94,1.41,3.12,1.84c1.18,0.43,2.43,0.64,3.73,0.64c1.3,0,2.54-0.21,3.73-0.64
			c1.18-0.43,2.22-1.04,3.12-1.84c0.9-0.8,1.61-1.78,2.14-2.93c0.53-1.15,0.8-2.45,0.8-3.9c0-0.6-0.05-1.19-0.16-1.78
			c-0.11-0.59-0.29-1.16-0.54-1.73c-0.26-0.56-0.6-1.1-1.04-1.6c-0.44-0.5-0.99-0.96-1.65-1.39L50.16,447.47z"/>
	</g>
	<g>
		<path class="st1" d="M46.26,429.23c1.13,0,2.18,0.2,3.14,0.59s1.79,0.94,2.5,1.65c0.7,0.7,1.25,1.54,1.65,2.51
			s0.59,2.04,0.59,3.22c0,1.15-0.2,2.21-0.59,3.18s-0.94,1.81-1.65,2.51c-0.7,0.7-1.54,1.25-2.5,1.65s-2.01,0.59-3.14,0.59
			c-1.13,0-2.18-0.2-3.14-0.59s-1.79-0.94-2.5-1.65s-1.25-1.54-1.65-2.51s-0.59-2.03-0.59-3.18c0-1.17,0.2-2.25,0.59-3.22
			s0.94-1.81,1.65-2.51c0.7-0.7,1.54-1.25,2.5-1.65S45.13,429.23,46.26,429.23z M46.26,431.54c-0.83,0-1.61,0.13-2.34,0.4
			c-0.72,0.27-1.35,0.65-1.89,1.14c-0.53,0.49-0.95,1.08-1.26,1.78c-0.31,0.69-0.46,1.48-0.46,2.35c0,0.88,0.16,1.66,0.46,2.35
			s0.73,1.28,1.26,1.76s1.16,0.85,1.89,1.12c0.73,0.27,1.5,0.4,2.34,0.4s1.61-0.13,2.34-0.4c0.73-0.27,1.36-0.64,1.89-1.12
			s0.96-1.07,1.26-1.76c0.31-0.69,0.46-1.48,0.46-2.35c0-0.87-0.15-1.66-0.46-2.35c-0.31-0.69-0.73-1.28-1.26-1.78
			c-0.53-0.49-1.16-0.87-1.89-1.14C47.87,431.67,47.09,431.54,46.26,431.54z"/>
	</g>
	<g>
		<path class="st1" d="M38.77,423.38c0.41-0.04,0.8-0.07,1.2-0.08c0.4-0.01,0.79-0.02,1.2-0.02v-0.06c-0.41-0.23-0.78-0.53-1.12-0.9
			c-0.34-0.36-0.63-0.77-0.88-1.21c-0.25-0.45-0.44-0.92-0.58-1.42c-0.14-0.5-0.21-1-0.21-1.49c0-1.92,0.51-3.34,1.52-4.26
			c1.01-0.92,2.46-1.38,4.34-1.38h9.5v2.11h-8.29c-1.66,0-2.94,0.29-3.82,0.86c-0.88,0.58-1.33,1.64-1.33,3.2
			c0,0.11,0.04,0.41,0.13,0.9c0.08,0.49,0.32,1.01,0.7,1.55c0.38,0.54,0.96,1.03,1.73,1.46c0.77,0.43,1.83,0.64,3.2,0.64h7.68v2.11
			H42.07c-0.41,0-0.92,0.02-1.54,0.05c-0.62,0.03-1.21,0.07-1.76,0.11V423.38z"/>
	</g>
	<g>
		<path class="st1" d="M40.69,400.62v3.55h13.06v2.11H40.69v3.17h-1.92v-3.17h-4.1c-1.98,0-3.4-0.46-4.24-1.38
			c-0.84-0.92-1.26-2.13-1.26-3.65c0-0.3,0.02-0.6,0.06-0.91c0.04-0.31,0.1-0.61,0.16-0.91l1.92,0.38c-0.06,0.26-0.12,0.52-0.16,0.8
			s-0.06,0.55-0.06,0.83c0,0.58,0.1,1.04,0.29,1.41c0.19,0.36,0.46,0.64,0.82,0.83c0.35,0.19,0.76,0.32,1.23,0.38
			c0.47,0.06,0.97,0.1,1.5,0.1h3.84v-3.55H40.69z"/>
	</g>
	<g>
		<path class="st1" d="M46.84,396.66c0.75-0.06,1.45-0.25,2.11-0.54s1.23-0.69,1.71-1.18c0.48-0.49,0.86-1.06,1.14-1.7
			c0.28-0.64,0.42-1.33,0.42-2.08c0-1.13-0.26-2.11-0.78-2.93c-0.52-0.82-1.12-1.44-1.81-1.87l1.34-1.63
			c1.13,0.9,1.94,1.88,2.43,2.96c0.49,1.08,0.74,2.23,0.74,3.47c0,1.11-0.2,2.14-0.59,3.09s-0.94,1.77-1.65,2.45
			c-0.7,0.68-1.54,1.22-2.5,1.62c-0.96,0.4-2.01,0.59-3.14,0.59c-1.13,0-2.18-0.19-3.14-0.58s-1.79-0.92-2.5-1.6
			c-0.7-0.68-1.25-1.48-1.65-2.4s-0.59-1.91-0.59-2.98c0-1.13,0.2-2.14,0.61-3.04c0.41-0.9,0.94-1.65,1.62-2.26
			c0.67-0.61,1.46-1.07,2.37-1.39c0.91-0.32,1.87-0.48,2.9-0.48h0.96V396.66z M45.11,386.48c-1.43,0-2.59,0.43-3.47,1.28
			c-0.88,0.85-1.33,2.05-1.33,3.58c0,0.68,0.13,1.34,0.4,1.98s0.62,1.2,1.07,1.68c0.45,0.48,0.96,0.86,1.54,1.15
			c0.58,0.29,1.17,0.43,1.79,0.43V386.48z"/>
	</g>
	<g>
		<path class="st1" d="M43.44,380.11c-0.66,0-1.33,0.02-2.02,0.05c-0.68,0.03-1.57,0.06-2.66,0.08v-2.08h2.78v-0.06
			c-0.4-0.15-0.79-0.36-1.17-0.64c-0.37-0.28-0.71-0.61-1.01-1.01c-0.3-0.39-0.54-0.85-0.72-1.38c-0.18-0.52-0.27-1.11-0.27-1.78
			c0-0.6,0.06-1.12,0.19-1.57l2.08,0.42c-0.11,0.28-0.16,0.68-0.16,1.22c0,0.81,0.16,1.5,0.46,2.08c0.31,0.58,0.7,1.06,1.18,1.44
			c0.48,0.38,1,0.67,1.55,0.85c0.55,0.18,1.09,0.27,1.6,0.27h8.45v2.11H43.44z"/>
	</g>
	<g>
		<path class="st1" d="M46.84,368.82c0.75-0.06,1.45-0.25,2.11-0.54s1.23-0.69,1.71-1.18c0.48-0.49,0.86-1.06,1.14-1.7
			c0.28-0.64,0.42-1.33,0.42-2.08c0-1.13-0.26-2.11-0.78-2.93c-0.52-0.82-1.12-1.44-1.81-1.87l1.34-1.63
			c1.13,0.9,1.94,1.88,2.43,2.96c0.49,1.08,0.74,2.23,0.74,3.47c0,1.11-0.2,2.14-0.59,3.09s-0.94,1.77-1.65,2.45
			c-0.7,0.68-1.54,1.22-2.5,1.62c-0.96,0.4-2.01,0.59-3.14,0.59c-1.13,0-2.18-0.19-3.14-0.58s-1.79-0.92-2.5-1.6
			c-0.7-0.68-1.25-1.48-1.65-2.4s-0.59-1.91-0.59-2.98c0-1.13,0.2-2.14,0.61-3.04c0.41-0.9,0.94-1.65,1.62-2.26
			c0.67-0.61,1.46-1.07,2.37-1.39c0.91-0.32,1.87-0.48,2.9-0.48h0.96V368.82z M45.11,358.64c-1.43,0-2.59,0.43-3.47,1.28
			c-0.88,0.85-1.33,2.05-1.33,3.58c0,0.68,0.13,1.34,0.4,1.98s0.62,1.2,1.07,1.68c0.45,0.48,0.96,0.86,1.54,1.15
			c0.58,0.29,1.17,0.43,1.79,0.43V358.64z"/>
	</g>
	<g>
		<path class="st1" d="M38.77,350.48c0.41-0.04,0.8-0.07,1.2-0.08c0.4-0.01,0.79-0.02,1.2-0.02v-0.06c-0.41-0.23-0.78-0.53-1.12-0.9
			c-0.34-0.36-0.63-0.77-0.88-1.22c-0.25-0.45-0.44-0.92-0.58-1.42c-0.14-0.5-0.21-1-0.21-1.49c0-1.92,0.51-3.34,1.52-4.26
			c1.01-0.92,2.46-1.38,4.34-1.38h9.5v2.11h-8.29c-1.66,0-2.94,0.29-3.82,0.86c-0.88,0.58-1.33,1.64-1.33,3.2
			c0,0.11,0.04,0.4,0.13,0.9c0.08,0.49,0.32,1.01,0.7,1.55c0.38,0.54,0.96,1.03,1.73,1.46c0.77,0.43,1.83,0.64,3.2,0.64h7.68v2.11
			H42.07c-0.41,0-0.92,0.02-1.54,0.05c-0.62,0.03-1.21,0.07-1.76,0.11V350.48z"/>
	</g>
	<g>
		<path class="st1" d="M42.29,323.79c-0.55,0.36-1.02,0.87-1.41,1.52s-0.58,1.39-0.58,2.22c-0.02,0.88,0.12,1.66,0.42,2.35
			c0.3,0.69,0.72,1.29,1.25,1.78c0.53,0.49,1.17,0.86,1.9,1.12s1.53,0.38,2.38,0.38c0.85,0,1.65-0.13,2.38-0.38
			c0.74-0.26,1.37-0.63,1.9-1.12c0.53-0.49,0.95-1.08,1.25-1.78c0.3-0.69,0.44-1.48,0.42-2.35c0-0.83-0.19-1.57-0.58-2.22
			c-0.38-0.65-0.85-1.16-1.41-1.52l1.31-1.73c0.88,0.75,1.52,1.59,1.94,2.53c0.42,0.94,0.63,1.92,0.66,2.94
			c0.02,1.22-0.17,2.31-0.56,3.3c-0.39,0.98-0.94,1.82-1.65,2.51s-1.54,1.22-2.51,1.58s-2.02,0.54-3.15,0.54
			c-1.13,0-2.18-0.18-3.15-0.54s-1.81-0.89-2.51-1.58s-1.25-1.53-1.65-2.51c-0.39-0.98-0.58-2.08-0.56-3.3
			c0.02-1.02,0.24-2,0.66-2.94c0.42-0.94,1.06-1.78,1.94-2.53L42.29,323.79z"/>
	</g>
	<g>
		<path class="st1" d="M46.84,317.81c0.75-0.06,1.45-0.25,2.11-0.54s1.23-0.69,1.71-1.18c0.48-0.49,0.86-1.06,1.14-1.7
			c0.28-0.64,0.42-1.33,0.42-2.08c0-1.13-0.26-2.11-0.78-2.93c-0.52-0.82-1.12-1.44-1.81-1.87l1.34-1.63
			c1.13,0.9,1.94,1.88,2.43,2.96c0.49,1.08,0.74,2.23,0.74,3.47c0,1.11-0.2,2.14-0.59,3.09s-0.94,1.77-1.65,2.45
			c-0.7,0.68-1.54,1.22-2.5,1.62c-0.96,0.4-2.01,0.59-3.14,0.59c-1.13,0-2.18-0.19-3.14-0.58s-1.79-0.92-2.5-1.6
			c-0.7-0.68-1.25-1.48-1.65-2.4s-0.59-1.91-0.59-2.98c0-1.13,0.2-2.14,0.61-3.04c0.41-0.9,0.94-1.65,1.62-2.26
			c0.67-0.61,1.46-1.07,2.37-1.39c0.91-0.32,1.87-0.48,2.9-0.48h0.96V317.81z M45.11,307.63c-1.43,0-2.59,0.43-3.47,1.28
			c-0.88,0.85-1.33,2.05-1.33,3.58c0,0.68,0.13,1.34,0.4,1.98s0.62,1.2,1.07,1.68c0.45,0.48,0.96,0.86,1.54,1.15
			c0.58,0.29,1.17,0.43,1.79,0.43V307.63z"/>
	</g>
	<g>
		<path class="st1" d="M46.26,277.46c1.13,0,2.18,0.2,3.14,0.59c0.96,0.4,1.79,0.94,2.5,1.65c0.7,0.7,1.25,1.54,1.65,2.51
			c0.39,0.97,0.59,2.04,0.59,3.22c0,1.15-0.2,2.21-0.59,3.18c-0.39,0.97-0.94,1.81-1.65,2.51c-0.7,0.7-1.54,1.25-2.5,1.65
			c-0.96,0.4-2.01,0.59-3.14,0.59c-1.13,0-2.18-0.2-3.14-0.59c-0.96-0.39-1.79-0.94-2.5-1.65s-1.25-1.54-1.65-2.51
			c-0.39-0.97-0.59-2.03-0.59-3.18c0-1.17,0.2-2.24,0.59-3.22c0.39-0.97,0.94-1.81,1.65-2.51c0.7-0.7,1.54-1.25,2.5-1.65
			C44.08,277.65,45.13,277.46,46.26,277.46z M46.26,279.76c-0.83,0-1.61,0.13-2.34,0.4c-0.72,0.27-1.35,0.65-1.89,1.14
			c-0.53,0.49-0.95,1.08-1.26,1.78c-0.31,0.69-0.46,1.48-0.46,2.35c0,0.88,0.16,1.66,0.46,2.35c0.31,0.69,0.73,1.28,1.26,1.76
			s1.16,0.85,1.89,1.12c0.73,0.27,1.5,0.4,2.34,0.4s1.61-0.13,2.34-0.4c0.73-0.27,1.36-0.64,1.89-1.12s0.96-1.07,1.26-1.76
			c0.31-0.69,0.46-1.48,0.46-2.35c0-0.87-0.15-1.66-0.46-2.35c-0.31-0.69-0.73-1.28-1.26-1.78c-0.53-0.49-1.16-0.87-1.89-1.14
			C47.87,279.89,47.09,279.76,46.26,279.76z"/>
	</g>
	<g>
		<path class="st1" d="M38.77,271.6c0.41-0.04,0.8-0.07,1.2-0.08c0.4-0.01,0.79-0.02,1.2-0.02v-0.06c-0.41-0.23-0.78-0.53-1.12-0.9
			c-0.34-0.36-0.63-0.77-0.88-1.22c-0.25-0.45-0.44-0.92-0.58-1.42c-0.14-0.5-0.21-1-0.21-1.49c0-1.92,0.51-3.34,1.52-4.26
			c1.01-0.92,2.46-1.38,4.34-1.38h9.5v2.11h-8.29c-1.66,0-2.94,0.29-3.82,0.86c-0.88,0.58-1.33,1.64-1.33,3.2
			c0,0.11,0.04,0.41,0.13,0.9c0.08,0.49,0.32,1.01,0.7,1.55c0.38,0.54,0.96,1.03,1.73,1.46c0.77,0.43,1.83,0.64,3.2,0.64h7.68v2.11
			H42.07c-0.41,0-0.92,0.02-1.54,0.05c-0.62,0.03-1.21,0.07-1.76,0.11V271.6z"/>
	</g>
	<g>
		<path class="st1" d="M34.84,235.44c-1.47,1-2.21,2.46-2.21,4.38c0,0.6,0.08,1.18,0.24,1.76s0.41,1.09,0.74,1.55
			c0.33,0.46,0.76,0.83,1.28,1.1c0.52,0.28,1.14,0.42,1.84,0.42c1.02,0,1.82-0.29,2.38-0.86s1.03-1.29,1.39-2.14
			c0.36-0.85,0.69-1.79,0.98-2.8c0.29-1.01,0.67-1.95,1.15-2.8c0.48-0.85,1.12-1.57,1.9-2.14c0.79-0.58,1.87-0.86,3.23-0.86
			c1.02,0,1.95,0.22,2.77,0.66c0.82,0.44,1.51,1.01,2.06,1.73c0.56,0.72,0.98,1.52,1.28,2.4c0.3,0.89,0.45,1.78,0.45,2.67
			c0,1.39-0.26,2.7-0.78,3.95s-1.38,2.31-2.58,3.18l-1.5-2.11c0.83-0.49,1.5-1.17,2-2.04c0.5-0.87,0.75-1.9,0.75-3.09
			c0-0.57-0.09-1.15-0.27-1.72c-0.18-0.57-0.45-1.09-0.8-1.55c-0.35-0.46-0.78-0.83-1.3-1.13c-0.51-0.3-1.1-0.45-1.76-0.45
			c-0.79,0-1.45,0.17-1.97,0.5c-0.52,0.33-0.96,0.77-1.31,1.31c-0.35,0.54-0.64,1.16-0.88,1.86c-0.23,0.69-0.47,1.41-0.7,2.14
			c-0.23,0.74-0.5,1.45-0.8,2.14c-0.3,0.69-0.68,1.31-1.14,1.86s-1.03,0.98-1.73,1.31c-0.69,0.33-1.56,0.5-2.61,0.5
			c-1.09,0-2.04-0.21-2.85-0.62c-0.81-0.42-1.48-0.97-2.02-1.66c-0.53-0.69-0.93-1.48-1.18-2.35c-0.26-0.87-0.38-1.77-0.38-2.69
			c0-1.28,0.2-2.44,0.61-3.49c0.41-1.04,1.12-2.02,2.14-2.91L34.84,235.44z"/>
	</g>
	<g>
		<path class="st1" d="M42.1,229.14c-0.55,0-1.11,0.02-1.66,0.05c-0.55,0.03-1.11,0.07-1.66,0.11v-2.27h2.27v-0.06
			c-0.87-0.51-1.54-1.22-1.98-2.13c-0.45-0.91-0.67-1.81-0.67-2.7c0-0.4,0.04-0.84,0.13-1.3c0.09-0.46,0.24-0.9,0.46-1.33
			c0.22-0.43,0.54-0.83,0.94-1.2c0.41-0.37,0.93-0.69,1.57-0.94c-0.96-0.43-1.72-1.1-2.27-2.03c-0.55-0.93-0.83-1.89-0.83-2.9
			c0-1.92,0.51-3.34,1.52-4.26c1.01-0.92,2.46-1.38,4.34-1.38h9.5v2.11h-8.74c-1.51,0-2.68,0.27-3.49,0.8
			c-0.81,0.53-1.22,1.53-1.22,2.98c0,0.79,0.16,1.45,0.46,1.98c0.31,0.53,0.72,0.97,1.23,1.3c0.51,0.33,1.09,0.57,1.74,0.72
			c0.65,0.15,1.33,0.22,2.03,0.22h7.97v2.11h-8.74c-1.51,0-2.68,0.27-3.49,0.8c-0.81,0.53-1.22,1.53-1.22,2.98
			c0,0.13,0.04,0.42,0.13,0.88c0.08,0.46,0.32,0.93,0.7,1.42c0.38,0.49,0.96,0.93,1.73,1.33c0.77,0.4,1.83,0.59,3.2,0.59h7.68v2.11
			H42.1z"/>
	</g>
	<g>
		<path class="st1" d="M44.56,192.27h-0.38c-2.58,0-3.87,1.28-3.87,3.84c0,1.75,0.59,3.27,1.76,4.58l-1.5,1.28
			c-1.45-1.41-2.18-3.52-2.18-6.34c0-0.73,0.11-1.42,0.32-2.1c0.21-0.67,0.54-1.25,0.98-1.74c0.44-0.49,0.99-0.89,1.65-1.18
			s1.45-0.45,2.37-0.45h6.69c0.58,0,1.18-0.03,1.81-0.08c0.63-0.05,1.15-0.11,1.55-0.18v2.05c-0.36,0.06-0.76,0.11-1.18,0.14
			c-0.43,0.03-0.84,0.05-1.25,0.05v0.06c1,0.62,1.72,1.35,2.16,2.19c0.44,0.84,0.66,1.87,0.66,3.09c0,0.66-0.09,1.3-0.27,1.92
			c-0.18,0.62-0.46,1.17-0.83,1.65s-0.83,0.86-1.38,1.15c-0.54,0.29-1.18,0.43-1.9,0.43c-1.22,0-2.17-0.31-2.86-0.94
			c-0.69-0.63-1.21-1.42-1.55-2.37c-0.34-0.95-0.55-1.96-0.64-3.04c-0.08-1.08-0.13-2.06-0.13-2.96V192.27z M46.29,193.36
			c0,0.53,0.03,1.2,0.08,2c0.05,0.8,0.18,1.57,0.38,2.3c0.2,0.74,0.52,1.37,0.94,1.89c0.43,0.52,1.01,0.78,1.76,0.78
			c0.49,0,0.91-0.1,1.26-0.3c0.35-0.2,0.64-0.47,0.86-0.82c0.22-0.34,0.38-0.72,0.48-1.14c0.1-0.42,0.14-0.84,0.14-1.26
			c0-0.77-0.13-1.43-0.38-2c-0.26-0.56-0.6-1.04-1.04-1.42c-0.44-0.38-0.95-0.67-1.54-0.85c-0.59-0.18-1.21-0.27-1.87-0.27h-1.09
			V193.36z"/>
	</g>
	<g>
		<path class="st1" d="M43.44,185.04c-0.66,0-1.33,0.02-2.02,0.05c-0.68,0.03-1.57,0.06-2.66,0.08v-2.08h2.78v-0.06
			c-0.4-0.15-0.79-0.36-1.17-0.64c-0.37-0.28-0.71-0.61-1.01-1.01c-0.3-0.39-0.54-0.85-0.72-1.38c-0.18-0.52-0.27-1.11-0.27-1.78
			c0-0.6,0.06-1.12,0.19-1.57l2.08,0.42c-0.11,0.28-0.16,0.68-0.16,1.22c0,0.81,0.16,1.5,0.46,2.08c0.31,0.58,0.7,1.06,1.18,1.44
			c0.48,0.38,1,0.67,1.55,0.85c0.55,0.18,1.09,0.27,1.6,0.27h8.45v2.11H43.44z"/>
	</g>
	<g>
		<path class="st1" d="M40.69,166.9v4.32h8.83c0.55,0,1.01-0.05,1.36-0.16c0.35-0.11,0.62-0.26,0.82-0.45
			c0.19-0.19,0.33-0.42,0.4-0.69c0.08-0.27,0.11-0.56,0.11-0.88c0-0.36-0.05-0.74-0.16-1.12c-0.11-0.38-0.25-0.74-0.42-1.06
			l1.95-0.1c0.36,0.79,0.54,1.74,0.54,2.85c0,0.41-0.05,0.83-0.16,1.26c-0.11,0.44-0.31,0.84-0.61,1.2s-0.7,0.66-1.22,0.9
			c-0.51,0.23-1.18,0.35-2.02,0.35h-9.44v3.17h-1.92v-3.17h-4.22v-2.11h4.22v-4.32H40.69z"/>
	</g>
	<g>
		<path class="st1" d="M49.52,143.19l-18.43-7.65v-3.52h22.66v2.3H34.16v0.06l19.58,8.19v1.22l-19.58,8.19v0.06h19.58v2.3H31.09
			v-3.52L49.52,143.19z"/>
	</g>
	<g>
		<path class="st1" d="M46.84,125.17c0.75-0.06,1.45-0.25,2.11-0.54s1.23-0.69,1.71-1.18c0.48-0.49,0.86-1.06,1.14-1.7
			c0.28-0.64,0.42-1.33,0.42-2.08c0-1.13-0.26-2.11-0.78-2.93c-0.52-0.82-1.12-1.44-1.81-1.87l1.34-1.63
			c1.13,0.9,1.94,1.88,2.43,2.96c0.49,1.08,0.74,2.23,0.74,3.47c0,1.11-0.2,2.14-0.59,3.09s-0.94,1.77-1.65,2.45
			c-0.7,0.68-1.54,1.22-2.5,1.62c-0.96,0.4-2.01,0.59-3.14,0.59c-1.13,0-2.18-0.19-3.14-0.58c-0.96-0.38-1.79-0.92-2.5-1.6
			c-0.7-0.68-1.25-1.48-1.65-2.4c-0.39-0.92-0.59-1.91-0.59-2.98c0-1.13,0.2-2.14,0.61-3.04s0.94-1.65,1.62-2.26
			c0.67-0.61,1.46-1.07,2.37-1.39c0.91-0.32,1.87-0.48,2.9-0.48h0.96V125.17z M45.11,114.99c-1.43,0-2.59,0.43-3.47,1.28
			c-0.88,0.85-1.33,2.05-1.33,3.58c0,0.68,0.13,1.34,0.4,1.98s0.62,1.2,1.07,1.68s0.96,0.86,1.54,1.15
			c0.58,0.29,1.17,0.43,1.79,0.43V114.99z"/>
	</g>
	<g>
		<path class="st1" d="M40.69,101.11v4.32h8.83c0.55,0,1.01-0.05,1.36-0.16c0.35-0.11,0.62-0.26,0.82-0.45
			c0.19-0.19,0.33-0.42,0.4-0.69c0.08-0.27,0.11-0.56,0.11-0.88c0-0.36-0.05-0.74-0.16-1.12c-0.11-0.38-0.25-0.74-0.42-1.06
			l1.95-0.1c0.36,0.79,0.54,1.74,0.54,2.85c0,0.41-0.05,0.83-0.16,1.26c-0.11,0.44-0.31,0.84-0.61,1.2s-0.7,0.66-1.22,0.9
			c-0.51,0.23-1.18,0.35-2.02,0.35h-9.44v3.17h-1.92v-3.17h-4.22v-2.11h4.22v-4.32H40.69z"/>
	</g>
	<g>
		<path class="st1" d="M44.56,88.63h-0.38c-2.58,0-3.87,1.28-3.87,3.84c0,1.75,0.59,3.27,1.76,4.58l-1.5,1.28
			c-1.45-1.41-2.18-3.52-2.18-6.34c0-0.73,0.11-1.42,0.32-2.1c0.21-0.67,0.54-1.25,0.98-1.74c0.44-0.49,0.99-0.89,1.65-1.18
			s1.45-0.45,2.37-0.45h6.69c0.58,0,1.18-0.03,1.81-0.08c0.63-0.05,1.15-0.11,1.55-0.18v2.05c-0.36,0.06-0.76,0.11-1.18,0.14
			c-0.43,0.03-0.84,0.05-1.25,0.05v0.06c1,0.62,1.72,1.35,2.16,2.19c0.44,0.84,0.66,1.87,0.66,3.09c0,0.66-0.09,1.3-0.27,1.92
			c-0.18,0.62-0.46,1.17-0.83,1.65s-0.83,0.86-1.38,1.15c-0.54,0.29-1.18,0.43-1.9,0.43c-1.22,0-2.17-0.31-2.86-0.94
			c-0.69-0.63-1.21-1.42-1.55-2.37c-0.34-0.95-0.55-1.96-0.64-3.04c-0.08-1.08-0.13-2.06-0.13-2.96V88.63z M46.29,89.72
			c0,0.53,0.03,1.2,0.08,2c0.05,0.8,0.18,1.57,0.38,2.3c0.2,0.74,0.52,1.37,0.94,1.89c0.43,0.52,1.01,0.78,1.76,0.78
			c0.49,0,0.91-0.1,1.26-0.3c0.35-0.2,0.64-0.47,0.86-0.82c0.22-0.34,0.38-0.72,0.48-1.14c0.1-0.42,0.14-0.84,0.14-1.26
			c0-0.77-0.13-1.43-0.38-2c-0.26-0.56-0.6-1.04-1.04-1.42c-0.44-0.38-0.95-0.67-1.54-0.85c-0.59-0.18-1.21-0.27-1.87-0.27h-1.09
			V89.72z"/>
	</g>
	<g>
		<path class="st1" d="M53.75,66.68v2.11h-2.5v0.06c0.51,0.34,0.95,0.75,1.31,1.22c0.36,0.47,0.66,0.96,0.9,1.47
			c0.24,0.51,0.41,1.04,0.51,1.58c0.11,0.54,0.16,1.06,0.16,1.55c0,1.17-0.2,2.25-0.59,3.22c-0.39,0.97-0.94,1.81-1.65,2.51
			c-0.7,0.7-1.54,1.25-2.5,1.65c-0.96,0.4-2.01,0.59-3.14,0.59c-1.13,0-2.18-0.2-3.14-0.59c-0.96-0.39-1.79-0.94-2.5-1.65
			s-1.25-1.54-1.65-2.51c-0.39-0.97-0.59-2.04-0.59-3.22c0-0.49,0.05-1.01,0.16-1.55c0.11-0.54,0.28-1.07,0.51-1.58
			c0.24-0.51,0.53-1,0.9-1.47c0.36-0.47,0.8-0.87,1.31-1.22v-0.06H29.56v-2.11H53.75z M46.26,80.34c0.83,0,1.61-0.13,2.34-0.4
			c0.73-0.27,1.36-0.65,1.89-1.14c0.53-0.49,0.96-1.08,1.26-1.78c0.31-0.69,0.46-1.48,0.46-2.35c0-0.85-0.15-1.65-0.46-2.38
			c-0.31-0.74-0.73-1.37-1.26-1.9c-0.53-0.53-1.16-0.95-1.89-1.25c-0.72-0.3-1.5-0.45-2.34-0.45s-1.61,0.15-2.34,0.45
			c-0.72,0.3-1.35,0.72-1.89,1.25c-0.53,0.53-0.95,1.17-1.26,1.9c-0.31,0.74-0.46,1.53-0.46,2.38c0,0.88,0.16,1.66,0.46,2.35
			c0.31,0.69,0.73,1.29,1.26,1.78c0.53,0.49,1.16,0.87,1.89,1.14C44.65,80.21,45.43,80.34,46.26,80.34z"/>
	</g>
	<g>
		<path class="st1" d="M44.56,52.47h-0.38c-2.58,0-3.87,1.28-3.87,3.84c0,1.75,0.59,3.27,1.76,4.58l-1.5,1.28
			c-1.45-1.41-2.18-3.52-2.18-6.34c0-0.73,0.11-1.42,0.32-2.1c0.21-0.67,0.54-1.25,0.98-1.74c0.44-0.49,0.99-0.89,1.65-1.18
			s1.45-0.45,2.37-0.45h6.69c0.58,0,1.18-0.03,1.81-0.08c0.63-0.05,1.15-0.11,1.55-0.18v2.05c-0.36,0.06-0.76,0.11-1.18,0.14
			c-0.43,0.03-0.84,0.05-1.25,0.05v0.06c1,0.62,1.72,1.35,2.16,2.19c0.44,0.84,0.66,1.87,0.66,3.09c0,0.66-0.09,1.3-0.27,1.92
			c-0.18,0.62-0.46,1.17-0.83,1.65s-0.83,0.86-1.38,1.15c-0.54,0.29-1.18,0.43-1.9,0.43c-1.22,0-2.17-0.31-2.86-0.94
			c-0.69-0.63-1.21-1.42-1.55-2.37c-0.34-0.95-0.55-1.96-0.64-3.04c-0.08-1.08-0.13-2.06-0.13-2.96V52.47z M46.29,53.56
			c0,0.53,0.03,1.2,0.08,2c0.05,0.8,0.18,1.57,0.38,2.3c0.2,0.74,0.52,1.37,0.94,1.89c0.43,0.52,1.01,0.78,1.76,0.78
			c0.49,0,0.91-0.1,1.26-0.3c0.35-0.2,0.64-0.47,0.86-0.82c0.22-0.34,0.38-0.72,0.48-1.14c0.1-0.42,0.14-0.84,0.14-1.26
			c0-0.77-0.13-1.43-0.38-2c-0.26-0.56-0.6-1.04-1.04-1.42c-0.44-0.38-0.95-0.67-1.54-0.85c-0.59-0.18-1.21-0.27-1.87-0.27h-1.09
			V53.56z"/>
	</g>
	<g>
		<path class="st1" d="M40.69,37.72v4.32h8.83c0.55,0,1.01-0.05,1.36-0.16c0.35-0.11,0.62-0.26,0.82-0.45
			c0.19-0.19,0.33-0.42,0.4-0.69c0.08-0.27,0.11-0.56,0.11-0.88c0-0.36-0.05-0.74-0.16-1.12c-0.11-0.38-0.25-0.73-0.42-1.05
			l1.95-0.1c0.36,0.79,0.54,1.74,0.54,2.85c0,0.4-0.05,0.83-0.16,1.26s-0.31,0.84-0.61,1.2c-0.3,0.36-0.7,0.66-1.22,0.9
			c-0.51,0.23-1.18,0.35-2.02,0.35h-9.44v3.17h-1.92v-3.17h-4.22v-2.11h4.22v-4.32H40.69z"/>
	</g>
	<g>
		<path class="st1" d="M44.56,25.24h-0.38c-2.58,0-3.87,1.28-3.87,3.84c0,1.75,0.59,3.28,1.76,4.58l-1.5,1.28
			c-1.45-1.41-2.18-3.52-2.18-6.34c0-0.72,0.11-1.42,0.32-2.1c0.21-0.67,0.54-1.25,0.98-1.74c0.44-0.49,0.99-0.88,1.65-1.18
			c0.66-0.3,1.45-0.45,2.37-0.45h6.69c0.58,0,1.18-0.03,1.81-0.08c0.63-0.05,1.15-0.11,1.55-0.18v2.05
			c-0.36,0.06-0.76,0.11-1.18,0.14s-0.84,0.05-1.25,0.05v0.06c1,0.62,1.72,1.35,2.16,2.19c0.44,0.84,0.66,1.87,0.66,3.09
			c0,0.66-0.09,1.3-0.27,1.92c-0.18,0.62-0.46,1.17-0.83,1.65c-0.37,0.48-0.83,0.86-1.38,1.15s-1.18,0.43-1.9,0.43
			c-1.22,0-2.17-0.31-2.86-0.94c-0.69-0.63-1.21-1.42-1.55-2.37c-0.34-0.95-0.55-1.96-0.64-3.04s-0.13-2.06-0.13-2.96V25.24z
			 M46.29,26.32c0,0.53,0.03,1.2,0.08,2c0.05,0.8,0.18,1.57,0.38,2.3c0.2,0.74,0.52,1.37,0.94,1.89c0.43,0.52,1.01,0.78,1.76,0.78
			c0.49,0,0.91-0.1,1.26-0.3c0.35-0.2,0.64-0.47,0.86-0.82c0.22-0.34,0.38-0.72,0.48-1.14c0.1-0.42,0.14-0.84,0.14-1.26
			c0-0.77-0.13-1.43-0.38-2c-0.26-0.56-0.6-1.04-1.04-1.42s-0.95-0.67-1.54-0.85c-0.59-0.18-1.21-0.27-1.87-0.27h-1.09V26.32z"/>
	</g>
</g>
<g class="st0">
	<g>
		<path class="st1" d="M87.69,459.92v3.55h13.06v2.11H87.69v3.17h-1.92v-3.17h-4.1c-1.98,0-3.4-0.46-4.24-1.38s-1.26-2.13-1.26-3.65
			c0-0.3,0.02-0.6,0.06-0.91s0.1-0.61,0.16-0.91l1.92,0.38c-0.06,0.26-0.12,0.52-0.16,0.8s-0.06,0.55-0.06,0.83
			c0,0.58,0.1,1.05,0.29,1.41c0.19,0.36,0.46,0.64,0.82,0.83c0.35,0.19,0.76,0.32,1.23,0.38c0.47,0.06,0.97,0.1,1.5,0.1h3.84v-3.55
			H87.69z"/>
	</g>
	<g>
		<path class="st1" d="M93.26,442.29c1.13,0,2.18,0.2,3.14,0.59s1.79,0.94,2.5,1.65c0.7,0.7,1.25,1.54,1.65,2.51
			s0.59,2.04,0.59,3.21c0,1.15-0.2,2.21-0.59,3.18c-0.39,0.97-0.94,1.81-1.65,2.51c-0.7,0.7-1.54,1.25-2.5,1.65
			c-0.96,0.4-2.01,0.59-3.14,0.59c-1.13,0-2.18-0.2-3.14-0.59c-0.96-0.39-1.79-0.94-2.5-1.65c-0.7-0.71-1.25-1.54-1.65-2.51
			c-0.39-0.97-0.59-2.03-0.59-3.18c0-1.17,0.2-2.24,0.59-3.21s0.94-1.81,1.65-2.51s1.54-1.25,2.5-1.65S92.13,442.29,93.26,442.29z
			 M93.26,444.59c-0.83,0-1.61,0.13-2.34,0.4c-0.72,0.27-1.35,0.65-1.89,1.14s-0.95,1.08-1.26,1.78s-0.46,1.48-0.46,2.35
			c0,0.88,0.16,1.66,0.46,2.35c0.31,0.69,0.73,1.28,1.26,1.76c0.53,0.48,1.16,0.85,1.89,1.12c0.73,0.27,1.5,0.4,2.34,0.4
			s1.61-0.13,2.34-0.4c0.73-0.27,1.36-0.64,1.89-1.12c0.53-0.48,0.96-1.07,1.26-1.76c0.31-0.69,0.46-1.48,0.46-2.35
			c0-0.87-0.15-1.66-0.46-2.35c-0.31-0.69-0.73-1.29-1.26-1.78s-1.16-0.87-1.89-1.14C94.87,444.73,94.09,444.59,93.26,444.59z"/>
	</g>
	<g>
		<path class="st1" d="M90.44,438.22c-0.66,0-1.33,0.02-2.02,0.05c-0.68,0.03-1.57,0.06-2.66,0.08v-2.08h2.78v-0.06
			c-0.4-0.15-0.79-0.36-1.17-0.64c-0.37-0.28-0.71-0.61-1.01-1.01c-0.3-0.39-0.54-0.85-0.72-1.38c-0.18-0.52-0.27-1.12-0.27-1.78
			c0-0.6,0.06-1.12,0.19-1.57l2.08,0.42c-0.11,0.28-0.16,0.68-0.16,1.22c0,0.81,0.16,1.5,0.46,2.08c0.31,0.58,0.7,1.06,1.18,1.44
			c0.48,0.38,1,0.67,1.55,0.85c0.55,0.18,1.09,0.27,1.6,0.27h8.45v2.11H90.44z"/>
	</g>
	<g>
		<path class="st1" d="M89.42,396.08c1.73,0,3.32,0.3,4.77,0.9c1.45,0.6,2.7,1.42,3.76,2.48c1.06,1.06,1.88,2.3,2.48,3.74
			c0.6,1.44,0.9,3,0.9,4.69c0,1.69-0.3,3.25-0.9,4.69c-0.6,1.44-1.42,2.69-2.48,3.74c-1.06,1.06-2.31,1.88-3.76,2.48
			c-1.45,0.6-3.04,0.9-4.77,0.9c-1.73,0-3.32-0.3-4.77-0.9c-1.45-0.6-2.7-1.42-3.76-2.48c-1.06-1.06-1.88-2.3-2.48-3.74
			c-0.6-1.44-0.9-3-0.9-4.69c0-1.68,0.3-3.25,0.9-4.69c0.6-1.44,1.42-2.69,2.48-3.74c1.06-1.06,2.31-1.88,3.76-2.48
			S87.69,396.08,89.42,396.08z M89.42,398.58c-1.3,0-2.54,0.21-3.73,0.64c-1.18,0.43-2.22,1.04-3.12,1.84
			c-0.9,0.8-1.61,1.78-2.14,2.93c-0.53,1.15-0.8,2.45-0.8,3.9c0,1.45,0.27,2.75,0.8,3.9c0.53,1.15,1.25,2.13,2.14,2.93
			c0.9,0.8,1.94,1.41,3.12,1.84c1.18,0.43,2.43,0.64,3.73,0.64c1.3,0,2.54-0.21,3.73-0.64c1.18-0.43,2.22-1.04,3.12-1.84
			c0.9-0.8,1.61-1.78,2.14-2.93c0.53-1.15,0.8-2.45,0.8-3.9c0-1.45-0.27-2.75-0.8-3.9s-1.25-2.13-2.14-2.93
			c-0.9-0.8-1.94-1.41-3.12-1.84C91.96,398.79,90.72,398.58,89.42,398.58z"/>
	</g>
	<g>
		<path class="st1" d="M87.69,385.27v3.55h13.06v2.11H87.69v3.17h-1.92v-3.17h-4.1c-1.98,0-3.4-0.46-4.24-1.38
			c-0.84-0.92-1.26-2.13-1.26-3.65c0-0.3,0.02-0.6,0.06-0.91c0.04-0.31,0.1-0.61,0.16-0.91l1.92,0.38c-0.06,0.26-0.12,0.52-0.16,0.8
			s-0.06,0.55-0.06,0.83c0,0.58,0.1,1.04,0.29,1.41c0.19,0.36,0.46,0.64,0.82,0.83c0.35,0.19,0.76,0.32,1.23,0.38
			c0.47,0.06,0.97,0.1,1.5,0.1h3.84v-3.55H87.69z"/>
	</g>
	<g>
		<path class="st1" d="M87.69,376.37v3.55h13.06v2.11H87.69v3.17h-1.92v-3.17h-4.1c-1.98,0-3.4-0.46-4.24-1.38s-1.26-2.13-1.26-3.65
			c0-0.3,0.02-0.6,0.06-0.91s0.1-0.61,0.16-0.91l1.92,0.38c-0.06,0.26-0.12,0.52-0.16,0.8s-0.06,0.55-0.06,0.83
			c0,0.58,0.1,1.05,0.29,1.41c0.19,0.36,0.46,0.64,0.82,0.83c0.35,0.19,0.76,0.32,1.23,0.38c0.47,0.06,0.97,0.1,1.5,0.1h3.84v-3.55
			H87.69z"/>
	</g>
	<g>
		<path class="st1" d="M80.01,370.8c0.45,0,0.82,0.16,1.1,0.48c0.29,0.32,0.43,0.67,0.43,1.06c0,0.38-0.14,0.74-0.43,1.06
			c-0.29,0.32-0.66,0.48-1.1,0.48c-0.45,0-0.82-0.16-1.1-0.48c-0.29-0.32-0.43-0.67-0.43-1.06c0-0.38,0.14-0.74,0.43-1.06
			C79.2,370.96,79.56,370.8,80.01,370.8z M100.75,371.28v2.11H85.77v-2.11H100.75z"/>
	</g>
	<g>
		<path class="st1" d="M89.29,355.28c-0.55,0.36-1.02,0.87-1.41,1.52c-0.38,0.65-0.58,1.39-0.58,2.22
			c-0.02,0.88,0.12,1.66,0.42,2.35c0.3,0.69,0.72,1.29,1.25,1.78c0.53,0.49,1.17,0.86,1.9,1.12c0.74,0.26,1.53,0.38,2.38,0.38
			c0.85,0,1.65-0.13,2.38-0.38c0.74-0.26,1.37-0.63,1.9-1.12c0.53-0.49,0.95-1.08,1.25-1.78c0.3-0.69,0.44-1.48,0.42-2.35
			c0-0.83-0.19-1.57-0.58-2.22c-0.38-0.65-0.85-1.16-1.41-1.52l1.31-1.73c0.88,0.75,1.52,1.59,1.94,2.53
			c0.42,0.94,0.63,1.92,0.66,2.94c0.02,1.22-0.17,2.32-0.56,3.3s-0.94,1.82-1.65,2.51s-1.54,1.22-2.51,1.58
			c-0.97,0.36-2.02,0.54-3.15,0.54c-1.13,0-2.18-0.18-3.15-0.54c-0.97-0.36-1.81-0.89-2.51-1.58s-1.25-1.53-1.65-2.51
			s-0.58-2.08-0.56-3.3c0.02-1.02,0.24-2,0.66-2.94c0.42-0.94,1.06-1.78,1.94-2.53L89.29,355.28z"/>
	</g>
	<g>
		<path class="st1" d="M80.01,347.7c0.45,0,0.82,0.16,1.1,0.48c0.29,0.32,0.43,0.67,0.43,1.06c0,0.38-0.14,0.74-0.43,1.06
			c-0.29,0.32-0.66,0.48-1.1,0.48c-0.45,0-0.82-0.16-1.1-0.48c-0.29-0.32-0.43-0.67-0.43-1.06c0-0.38,0.14-0.74,0.43-1.06
			C79.2,347.86,79.56,347.7,80.01,347.7z M100.75,348.18v2.11H85.77v-2.11H100.75z"/>
	</g>
	<g>
		<path class="st1" d="M91.56,333.49h-0.38c-2.58,0-3.87,1.28-3.87,3.84c0,1.75,0.59,3.28,1.76,4.58l-1.5,1.28
			c-1.45-1.41-2.18-3.52-2.18-6.34c0-0.73,0.11-1.42,0.32-2.1c0.21-0.67,0.54-1.25,0.98-1.74c0.44-0.49,0.99-0.89,1.65-1.18
			s1.45-0.45,2.37-0.45h6.69c0.58,0,1.18-0.03,1.81-0.08s1.15-0.11,1.55-0.18v2.05c-0.36,0.06-0.76,0.11-1.18,0.14
			c-0.43,0.03-0.84,0.05-1.25,0.05v0.06c1,0.62,1.72,1.35,2.16,2.19c0.44,0.84,0.66,1.87,0.66,3.09c0,0.66-0.09,1.3-0.27,1.92
			c-0.18,0.62-0.46,1.17-0.83,1.65s-0.83,0.86-1.38,1.15s-1.18,0.43-1.9,0.43c-1.22,0-2.17-0.31-2.86-0.94
			c-0.69-0.63-1.21-1.42-1.55-2.37c-0.34-0.95-0.55-1.96-0.64-3.04c-0.08-1.08-0.13-2.06-0.13-2.96V333.49z M93.29,334.58
			c0,0.53,0.03,1.2,0.08,2c0.05,0.8,0.18,1.57,0.38,2.3c0.2,0.74,0.52,1.37,0.94,1.89s1.01,0.78,1.76,0.78c0.49,0,0.91-0.1,1.26-0.3
			c0.35-0.2,0.64-0.47,0.86-0.82c0.22-0.34,0.38-0.72,0.48-1.14c0.1-0.42,0.14-0.84,0.14-1.26c0-0.77-0.13-1.44-0.38-2
			c-0.26-0.57-0.6-1.04-1.04-1.42s-0.95-0.67-1.54-0.85c-0.59-0.18-1.21-0.27-1.87-0.27h-1.09V334.58z"/>
	</g>
	<g>
		<path class="st1" d="M100.75,323.89V326H76.56v-2.11H100.75z"/>
	</g>
	<g>
		<path class="st1" d="M81.84,298.42c-1.47,1-2.21,2.46-2.21,4.38c0,0.6,0.08,1.18,0.24,1.76s0.41,1.09,0.74,1.55
			c0.33,0.46,0.76,0.83,1.28,1.1c0.52,0.28,1.14,0.42,1.84,0.42c1.02,0,1.82-0.29,2.38-0.86s1.03-1.29,1.39-2.14
			c0.36-0.85,0.69-1.79,0.98-2.8c0.29-1.01,0.67-1.95,1.15-2.8c0.48-0.85,1.12-1.57,1.9-2.14c0.79-0.58,1.87-0.86,3.23-0.86
			c1.02,0,1.95,0.22,2.77,0.66c0.82,0.44,1.51,1.01,2.06,1.73c0.56,0.72,0.98,1.52,1.28,2.4c0.3,0.89,0.45,1.78,0.45,2.67
			c0,1.39-0.26,2.7-0.78,3.95s-1.38,2.31-2.58,3.18l-1.5-2.11c0.83-0.49,1.5-1.17,2-2.04c0.5-0.87,0.75-1.9,0.75-3.09
			c0-0.57-0.09-1.15-0.27-1.72c-0.18-0.57-0.45-1.09-0.8-1.55c-0.35-0.46-0.78-0.83-1.3-1.13c-0.51-0.3-1.1-0.45-1.76-0.45
			c-0.79,0-1.45,0.17-1.97,0.5c-0.52,0.33-0.96,0.77-1.31,1.31c-0.35,0.54-0.64,1.16-0.88,1.86c-0.23,0.69-0.47,1.41-0.7,2.14
			c-0.23,0.74-0.5,1.45-0.8,2.14c-0.3,0.69-0.68,1.31-1.14,1.86c-0.46,0.54-1.03,0.98-1.73,1.31c-0.69,0.33-1.56,0.5-2.61,0.5
			c-1.09,0-2.04-0.21-2.85-0.62c-0.81-0.42-1.48-0.97-2.02-1.66c-0.53-0.69-0.93-1.48-1.18-2.35c-0.26-0.87-0.38-1.77-0.38-2.69
			c0-1.28,0.2-2.44,0.61-3.49c0.41-1.04,1.12-2.02,2.14-2.91L81.84,298.42z"/>
	</g>
	<g>
		<path class="st1" d="M87.69,284.37v4.32h8.83c0.55,0,1.01-0.05,1.36-0.16c0.35-0.11,0.62-0.26,0.82-0.45
			c0.19-0.19,0.33-0.42,0.4-0.69c0.08-0.27,0.11-0.56,0.11-0.88c0-0.36-0.05-0.74-0.16-1.12c-0.11-0.38-0.25-0.74-0.42-1.06
			l1.95-0.1c0.36,0.79,0.54,1.74,0.54,2.85c0,0.41-0.05,0.83-0.16,1.26c-0.11,0.44-0.31,0.84-0.61,1.2s-0.7,0.66-1.22,0.9
			c-0.51,0.23-1.18,0.35-2.02,0.35h-9.44v3.17h-1.92v-3.17h-4.22v-2.11h4.22v-4.32H87.69z"/>
	</g>
	<g>
		<path class="st1" d="M91.56,271.89h-0.38c-2.58,0-3.87,1.28-3.87,3.84c0,1.75,0.59,3.27,1.76,4.58l-1.5,1.28
			c-1.45-1.41-2.18-3.52-2.18-6.34c0-0.73,0.11-1.42,0.32-2.1c0.21-0.67,0.54-1.25,0.98-1.74c0.44-0.49,0.99-0.89,1.65-1.18
			s1.45-0.45,2.37-0.45h6.69c0.58,0,1.18-0.03,1.81-0.08c0.63-0.05,1.15-0.11,1.55-0.18v2.05c-0.36,0.06-0.76,0.11-1.18,0.14
			c-0.43,0.03-0.84,0.05-1.25,0.05v0.06c1,0.62,1.72,1.35,2.16,2.19c0.44,0.84,0.66,1.87,0.66,3.09c0,0.66-0.09,1.3-0.27,1.92
			c-0.18,0.62-0.46,1.17-0.83,1.65s-0.83,0.86-1.38,1.15c-0.54,0.29-1.18,0.43-1.9,0.43c-1.22,0-2.17-0.31-2.86-0.94
			c-0.69-0.63-1.21-1.42-1.55-2.37c-0.34-0.95-0.55-1.96-0.64-3.04c-0.08-1.08-0.13-2.06-0.13-2.96V271.89z M93.29,272.98
			c0,0.53,0.03,1.2,0.08,2c0.05,0.8,0.18,1.57,0.38,2.3c0.2,0.74,0.52,1.37,0.94,1.89c0.43,0.52,1.01,0.78,1.76,0.78
			c0.49,0,0.91-0.1,1.26-0.3c0.35-0.2,0.64-0.47,0.86-0.82c0.22-0.34,0.38-0.72,0.48-1.14c0.1-0.42,0.14-0.84,0.14-1.26
			c0-0.77-0.13-1.43-0.38-2c-0.26-0.56-0.6-1.04-1.04-1.42c-0.44-0.38-0.95-0.67-1.54-0.85c-0.59-0.18-1.21-0.27-1.87-0.27h-1.09
			V272.98z"/>
	</g>
	<g>
		<path class="st1" d="M87.69,257.14v4.32h8.83c0.55,0,1.01-0.05,1.36-0.16c0.35-0.11,0.62-0.26,0.82-0.45
			c0.19-0.19,0.33-0.42,0.4-0.69c0.08-0.27,0.11-0.56,0.11-0.88c0-0.36-0.05-0.74-0.16-1.12c-0.11-0.38-0.25-0.74-0.42-1.06
			l1.95-0.1c0.36,0.79,0.54,1.74,0.54,2.85c0,0.41-0.05,0.83-0.16,1.26c-0.11,0.44-0.31,0.84-0.61,1.2s-0.7,0.66-1.22,0.9
			c-0.51,0.23-1.18,0.35-2.02,0.35h-9.44v3.17h-1.92v-3.17h-4.22v-2.11h4.22v-4.32H87.69z"/>
	</g>
	<g>
		<path class="st1" d="M80.01,251.19c0.45,0,0.82,0.16,1.1,0.48s0.43,0.67,0.43,1.06c0,0.38-0.14,0.74-0.43,1.06
			c-0.29,0.32-0.66,0.48-1.1,0.48c-0.45,0-0.82-0.16-1.1-0.48c-0.29-0.32-0.43-0.67-0.43-1.06c0-0.38,0.14-0.74,0.43-1.06
			S79.56,251.19,80.01,251.19z M100.75,251.67v2.11H85.77v-2.11H100.75z"/>
	</g>
	<g>
		<path class="st1" d="M89.32,238.64c-0.62,0.32-1.11,0.75-1.47,1.28c-0.36,0.53-0.54,1.18-0.54,1.95c0,0.36,0.04,0.73,0.13,1.1
			c0.08,0.37,0.22,0.71,0.4,1.01c0.18,0.3,0.41,0.54,0.69,0.72s0.62,0.27,1.02,0.27c0.7,0,1.22-0.25,1.54-0.74
			c0.32-0.49,0.6-1.23,0.83-2.21l0.51-2.14c0.24-1.04,0.71-1.91,1.42-2.61c0.72-0.69,1.61-1.04,2.67-1.04c0.81,0,1.51,0.17,2.1,0.5
			c0.59,0.33,1.07,0.77,1.44,1.31c0.37,0.54,0.65,1.17,0.82,1.87s0.26,1.42,0.26,2.14c0,1.15-0.22,2.22-0.66,3.22
			c-0.44,0.99-1.19,1.84-2.26,2.54L96.97,246c0.68-0.43,1.23-0.97,1.63-1.62c0.41-0.65,0.61-1.42,0.61-2.32
			c0-0.43-0.05-0.85-0.14-1.28c-0.1-0.43-0.25-0.8-0.45-1.14c-0.2-0.33-0.46-0.6-0.78-0.8c-0.32-0.2-0.69-0.3-1.12-0.3
			c-0.75,0-1.29,0.28-1.62,0.83c-0.33,0.55-0.59,1.23-0.78,2.02l-0.48,2.05c-0.06,0.26-0.17,0.6-0.32,1.04
			c-0.15,0.44-0.37,0.86-0.67,1.28c-0.3,0.42-0.69,0.77-1.17,1.07c-0.48,0.3-1.07,0.45-1.78,0.45c-0.77,0-1.44-0.15-2.02-0.46
			c-0.58-0.31-1.04-0.73-1.41-1.25c-0.36-0.52-0.63-1.11-0.82-1.78c-0.18-0.66-0.27-1.34-0.27-2.05c0-1.04,0.2-2.02,0.61-2.91
			s1.1-1.59,2.08-2.08L89.32,238.64z"/>
	</g>
	<g>
		<path class="st1" d="M87.69,225.2v4.32h8.83c0.55,0,1.01-0.05,1.36-0.16c0.35-0.11,0.62-0.26,0.82-0.45
			c0.19-0.19,0.33-0.42,0.4-0.69c0.08-0.27,0.11-0.56,0.11-0.88c0-0.36-0.05-0.74-0.16-1.12c-0.11-0.38-0.25-0.74-0.42-1.06
			l1.95-0.1c0.36,0.79,0.54,1.74,0.54,2.85c0,0.41-0.05,0.83-0.16,1.26c-0.11,0.44-0.31,0.84-0.61,1.2s-0.7,0.66-1.22,0.9
			c-0.51,0.23-1.18,0.35-2.02,0.35h-9.44v3.17h-1.92v-3.17h-4.22v-2.11h4.22v-4.32H87.69z"/>
	</g>
	<g>
		<path class="st1" d="M80.01,219.25c0.45,0,0.82,0.16,1.1,0.48s0.43,0.67,0.43,1.06c0,0.38-0.14,0.74-0.43,1.06
			c-0.29,0.32-0.66,0.48-1.1,0.48c-0.45,0-0.82-0.16-1.1-0.48c-0.29-0.32-0.43-0.67-0.43-1.06c0-0.38,0.14-0.74,0.43-1.06
			S79.56,219.25,80.01,219.25z M100.75,219.73v2.11H85.77v-2.11H100.75z"/>
	</g>
	<g>
		<path class="st1" d="M89.29,203.73c-0.55,0.36-1.02,0.87-1.41,1.52s-0.58,1.39-0.58,2.22c-0.02,0.88,0.12,1.66,0.42,2.35
			c0.3,0.69,0.72,1.29,1.25,1.78c0.53,0.49,1.17,0.86,1.9,1.12c0.74,0.26,1.53,0.38,2.38,0.38c0.85,0,1.65-0.13,2.38-0.38
			c0.74-0.26,1.37-0.63,1.9-1.12c0.53-0.49,0.95-1.08,1.25-1.78c0.3-0.69,0.44-1.48,0.42-2.35c0-0.83-0.19-1.57-0.58-2.22
			c-0.38-0.65-0.85-1.16-1.41-1.52l1.31-1.73c0.88,0.75,1.52,1.59,1.94,2.53c0.42,0.94,0.63,1.92,0.66,2.94
			c0.02,1.22-0.17,2.31-0.56,3.3s-0.94,1.82-1.65,2.51c-0.7,0.69-1.54,1.22-2.51,1.58c-0.97,0.36-2.02,0.54-3.15,0.54
			c-1.13,0-2.18-0.18-3.15-0.54c-0.97-0.36-1.81-0.89-2.51-1.58c-0.7-0.69-1.25-1.53-1.65-2.51s-0.58-2.08-0.56-3.3
			c0.02-1.02,0.24-2,0.66-2.94c0.42-0.94,1.06-1.78,1.94-2.53L89.29,203.73z"/>
	</g>
	<g>
		<path class="st1" d="M89.32,191.28c-0.62,0.32-1.11,0.75-1.47,1.28c-0.36,0.53-0.54,1.18-0.54,1.95c0,0.36,0.04,0.73,0.13,1.1
			c0.08,0.37,0.22,0.71,0.4,1.01c0.18,0.3,0.41,0.54,0.69,0.72s0.62,0.27,1.02,0.27c0.7,0,1.22-0.25,1.54-0.74
			c0.32-0.49,0.6-1.23,0.83-2.21l0.51-2.14c0.24-1.04,0.71-1.91,1.42-2.61c0.72-0.69,1.61-1.04,2.67-1.04c0.81,0,1.51,0.17,2.1,0.5
			c0.59,0.33,1.07,0.77,1.44,1.31c0.37,0.54,0.65,1.17,0.82,1.87s0.26,1.42,0.26,2.14c0,1.15-0.22,2.22-0.66,3.22
			c-0.44,0.99-1.19,1.84-2.26,2.54l-1.25-1.82c0.68-0.43,1.23-0.97,1.63-1.62c0.41-0.65,0.61-1.42,0.61-2.32
			c0-0.43-0.05-0.85-0.14-1.28c-0.1-0.43-0.25-0.8-0.45-1.14c-0.2-0.33-0.46-0.6-0.78-0.8c-0.32-0.2-0.69-0.3-1.12-0.3
			c-0.75,0-1.29,0.28-1.62,0.83c-0.33,0.55-0.59,1.23-0.78,2.02l-0.48,2.05c-0.06,0.26-0.17,0.6-0.32,1.04
			c-0.15,0.44-0.37,0.86-0.67,1.28c-0.3,0.42-0.69,0.77-1.17,1.07c-0.48,0.3-1.07,0.45-1.78,0.45c-0.77,0-1.44-0.15-2.02-0.46
			c-0.58-0.31-1.04-0.73-1.41-1.25c-0.36-0.52-0.63-1.11-0.82-1.78c-0.18-0.66-0.27-1.34-0.27-2.05c0-1.04,0.2-2.02,0.61-2.91
			s1.1-1.59,2.08-2.08L89.32,191.28z"/>
	</g>
</g>
<g id="Groupe_117" transform="translate(-83.727 -1224)">
	<g id="Ligne_89">
		<rect x="161.59" y="1757.02" class="st1" width="0.5" height="77.6"/>
	</g>
	<g id="Ligne_92">
		<rect x="118.29" y="1757.02" class="st1" width="0.5" height="77.6"/>
	</g>
	<g id="Ligne_93">
		<rect x="139.93" y="1757.02" class="st1" width="0.5" height="77.6"/>
	</g>
	<g id="Ligne_94">
		<rect x="183.26" y="1757.02" class="st1" width="0.5" height="77.6"/>
	</g>
	<g id="Ligne_97">
		<path class="st1" d="M118.44,1808.63c-1.1,0-2-0.9-2-2v-24.7c0-1.1,0.9-2,2-2s2,0.9,2,2v24.7
			C120.44,1807.73,119.55,1808.63,118.44,1808.63z"/>
	</g>
	<g id="Ligne_99">
		<path class="st1" d="M140.21,1832.7c-1.1,0-2-0.9-2-2v-42.02c0-1.1,0.9-2,2-2s2,0.9,2,2v42.02
			C142.21,1831.8,141.31,1832.7,140.21,1832.7z"/>
	</g>
	<g id="Ligne_100">
		<path class="st1" d="M161.99,1806.53c-1.1,0-2-0.9-2-2v-29.72c0-1.1,0.9-2,2-2s2,0.9,2,2v29.72
			C163.99,1805.64,163.09,1806.53,161.99,1806.53z"/>
	</g>
	<g id="Ligne_101">
		<path class="st1" d="M183.51,1791.32c-1.1,0-2-0.9-2-2v-24.68c0-1.1,0.9-2,2-2s2,0.9,2,2v24.68
			C185.51,1790.42,184.61,1791.32,183.51,1791.32z"/>
	</g>
</g>
</svg>
